  0
SECTION
  2
HEADER
  9
$ACADVER
  1
AC1014
  9
$HANDSEED
  5
FFFF
  9
$MEASUREMENT
 70
     1
  0
ENDSEC
  0
SECTION
  2
TABLES
  0
TABLE
  2
VPORT
  5
8
330
0
100
AcDbSymbolTable
 70
     4
  0
VPORT
  5
2E
330
8
100
AcDbSymbolTableRecord
100
AcDbViewportTableRecord
  2
*ACTIVE
 70
     0
 10
0.0
 20
0.0
 11
1.0
 21
1.0
 12
210.0
 22
148.5
 13
0.0
 23
0.0
 14
10.0
 24
10.0
 15
10.0
 25
10.0
 16
0.0
 26
0.0
 36
1.0
 17
0.0
 27
0.0
 37
0.0
 40
341.0
 41
1.24
 42
50.0
 43
0.0
 44
0.0
 50
0.0
 51
0.0
 71
     0
 72
   100
 73
     1
 74
     3
 75
     0
 76
     0
 77
     0
 78
     0
  0
ENDTAB
  0
TABLE
  2
LTYPE
  5
5
330
0
100
AcDbSymbolTable
 70
     1
  0
LTYPE
  5
14
330
5
100
AcDbSymbolTableRecord
100
AcDbLinetypeTableRecord
  2
BYBLOCK
 70
     0
  3

 72
    65
 73
     0
 40
0.0
  0
LTYPE
  5
15
330
5
100
AcDbSymbolTableRecord
100
AcDbLinetypeTableRecord
  2
BYLAYER
 70
     0
  3

 72
    65
 73
     0
 40
0.0
  0
LTYPE
  5
16
330
5
100
AcDbSymbolTableRecord
100
AcDbLinetypeTableRecord
  2
CONTINUOUS
 70
     0
  3
Solid line
 72
    65
 73
     0
 40
0.0
  0
ENDTAB
  0
TABLE
  2
LAYER
  5
2
100
AcDbSymbolTable
 70
1
  0
LAYER
  5
50
100
AcDbSymbolTableRecord
100
AcDbLayerTableRecord
  2
0
 70
0
  6
CONTINUOUS
  0
ENDTAB
  0
TABLE
  2
STYLE
  5
3
330
0
100
AcDbSymbolTable
 70
     1
  0
STYLE
  5
11
330
3
100
AcDbSymbolTableRecord
100
AcDbTextStyleTableRecord
  2
STANDARD
 70
     0
 40
0.0
 41
1.0
 50
0.0
 71
     0
 42
2.5
  3
txt
  4

  0
ENDTAB
  0
TABLE
  2
VIEW
  5
6
330
0
100
AcDbSymbolTable
 70
     0
  0
ENDTAB
  0
TABLE
  2
UCS
  5
7
330
0
100
AcDbSymbolTable
 70
     0
  0
ENDTAB
  0
TABLE
  2
APPID
  5
9
330
0
100
AcDbSymbolTable
 70
     2
  0
APPID
  5
12
330
9
100
AcDbSymbolTableRecord
100
AcDbRegAppTableRecord
  2
ACAD
 70
     0
  0
ENDTAB
  0
TABLE
  2
DIMSTYLE
  5
A
330
0
100
AcDbSymbolTable
 70
     1
  0
DIMSTYLE
105
27
330
A
100
AcDbSymbolTableRecord
100
AcDbDimStyleTableRecord
  2
ISO-25
 70
     0
  3

  4

  5

  6

  7

 40
1.0
 41
2.5
 42
0.625
 43
3.75
 44
1.25
 45
0.0
 46
0.0
 47
0.0
 48
0.0
140
2.5
141
2.5
142
0.0
143
0.03937007874016
144
1.0
145
0.0
146
1.0
147
0.625
 71
     0
 72
     0
 73
     0
 74
     0
 75
     0
 76
     0
 77
     1
 78
     8
170
     0
171
     3
172
     1
173
     0
174
     0
175
     0
176
     0
177
     0
178
     0
270
     2
271
     2
272
     2
273
     2
274
     3
340
11
275
     0
280
     0
281
     0
282
     0
283
     0
284
     8
285
     0
286
     0
287
     3
288
     0
  0
ENDTAB
  0
TABLE
  2
BLOCK_RECORD
  5
1
330
0
100
AcDbSymbolTable
 70
     1
  0
BLOCK_RECORD
  5
1F
330
1
100
AcDbSymbolTableRecord
100
AcDbBlockTableRecord
  2
*MODEL_SPACE
  0
BLOCK_RECORD
  5
1B
330
1
100
AcDbSymbolTableRecord
100
AcDbBlockTableRecord
  2
*PAPER_SPACE
  0
ENDTAB
  0
ENDSEC
  0
SECTION
  2
BLOCKS
  0
BLOCK
  5
20
330
1F
100
AcDbEntity
  8
0
100
AcDbBlockBegin
  2
*MODEL_SPACE
 70
     0
 10
0.0
 20
0.0
 30
0.0
  3
*MODEL_SPACE
  1

  0
ENDBLK
  5
21
330
1F
100
AcDbEntity
  8
0
100
AcDbBlockEnd
  0
BLOCK
  5
1C
330
1B
100
AcDbEntity
 67
     1
  8
0
100
AcDbBlockBegin
  2
*PAPER_SPACE
  1

  0
ENDBLK
  5
1D
330
1B
100
AcDbEntity
 67
     1
  8
0
100
AcDbBlockEnd
  0
ENDSEC
  0
SECTION
  2
ENTITIES
  0
SPLINE
  5
100
100
AcDbEntity
  8
0
 62
7
100
AcDbSpline
 70
8
 71
3
 72
8
 73
4
 74
0
 40
0
 40
0
 40
0
 40
0
 40
1
 40
1
 40
1
 40
1
 10
209.098642
 20
-64.799708
 30
0.0
 10
209.098608
 20
-64.932316
 30
0.0
 10
209.151254
 20
-65.059506
 30
0.0
 10
209.244999
 20
-65.153298
 30
0.0
  0
SPLINE
  5
101
100
AcDbEntity
  8
0
 62
7
100
AcDbSpline
 70
8
 71
3
 72
8
 73
4
 74
0
 40
0
 40
0
 40
0
 40
0
 40
1
 40
1
 40
1
 40
1
 10
209.244999
 20
-65.153298
 30
0.0
 10
209.338743
 20
-65.247090
 30
0.0
 10
209.465906
 20
-65.299800
 30
0.0
 10
209.598514
 20
-65.299834
 30
0.0
  0
SPLINE
  5
102
100
AcDbEntity
  8
0
 62
7
100
AcDbSpline
 70
8
 71
3
 72
8
 73
4
 74
0
 40
0
 40
0
 40
0
 40
0
 40
1
 40
1
 40
1
 40
1
 10
201.598276
 20
-65.300088
 30
0.0
 10
201.730884
 20
-65.300122
 30
0.0
 10
201.858074
 20
-65.247476
 30
0.0
 10
201.951866
 20
-65.153731
 30
0.0
  0
SPLINE
  5
103
100
AcDbEntity
  8
0
 62
7
100
AcDbSpline
 70
8
 71
3
 72
8
 73
4
 74
0
 40
0
 40
0
 40
0
 40
0
 40
1
 40
1
 40
1
 40
1
 10
201.951866
 20
-65.153731
 30
0.0
 10
202.045658
 20
-65.059987
 30
0.0
 10
202.098368
 20
-64.932824
 30
0.0
 10
202.098402
 20
-64.800216
 30
0.0
  0
SPLINE
  5
104
100
AcDbEntity
  8
0
 62
7
100
AcDbSpline
 70
8
 71
3
 72
8
 73
4
 74
0
 40
0
 40
0
 40
0
 40
0
 40
1
 40
1
 40
1
 40
1
 10
190.081408
 20
-64.799708
 30
0.0
 10
190.081374
 20
-64.932360
 30
0.0
 10
190.134055
 20
-65.059588
 30
0.0
 10
190.227854
 20
-65.153388
 30
0.0
  0
SPLINE
  5
105
100
AcDbEntity
  8
0
 62
7
100
AcDbSpline
 70
8
 71
3
 72
8
 73
4
 74
0
 40
0
 40
0
 40
0
 40
0
 40
1
 40
1
 40
1
 40
1
 10
190.227854
 20
-65.153388
 30
0.0
 10
190.321653
 20
-65.247187
 30
0.0
 10
190.448882
 20
-65.299868
 30
0.0
 10
190.581534
 20
-65.299834
 30
0.0
  0
SPLINE
  5
106
100
AcDbEntity
  8
0
 62
7
100
AcDbSpline
 70
8
 71
3
 72
8
 73
4
 74
0
 40
0
 40
0
 40
0
 40
0
 40
1
 40
1
 40
1
 40
1
 10
175.436276
 20
-65.300088
 30
0.0
 10
175.712319
 20
-65.300018
 30
0.0
 10
175.936078
 20
-65.076258
 30
0.0
 10
175.936148
 20
-64.800216
 30
0.0
  0
SPLINE
  5
107
100
AcDbEntity
  8
0
 62
7
100
AcDbSpline
 70
8
 71
3
 72
8
 73
4
 74
0
 40
0
 40
0
 40
0
 40
0
 40
1
 40
1
 40
1
 40
1
 10
166.205408
 20
-64.799708
 30
0.0
 10
166.205374
 20
-64.932360
 30
0.0
 10
166.258055
 20
-65.059588
 30
0.0
 10
166.351854
 20
-65.153388
 30
0.0
  0
SPLINE
  5
108
100
AcDbEntity
  8
0
 62
7
100
AcDbSpline
 70
8
 71
3
 72
8
 73
4
 74
0
 40
0
 40
0
 40
0
 40
0
 40
1
 40
1
 40
1
 40
1
 10
166.351854
 20
-65.153388
 30
0.0
 10
166.445653
 20
-65.247187
 30
0.0
 10
166.572882
 20
-65.299868
 30
0.0
 10
166.705534
 20
-65.299834
 30
0.0
  0
SPLINE
  5
109
100
AcDbEntity
  8
0
 62
7
100
AcDbSpline
 70
8
 71
3
 72
8
 73
4
 74
0
 40
0
 40
0
 40
0
 40
0
 40
1
 40
1
 40
1
 40
1
 10
151.560276
 20
-65.300088
 30
0.0
 10
151.836319
 20
-65.300018
 30
0.0
 10
152.060078
 20
-65.076258
 30
0.0
 10
152.060148
 20
-64.800216
 30
0.0
  0
SPLINE
  5
10a
100
AcDbEntity
  8
0
 62
7
100
AcDbSpline
 70
8
 71
3
 72
8
 73
4
 74
0
 40
0
 40
0
 40
0
 40
0
 40
1
 40
1
 40
1
 40
1
 10
144.836388
 20
-64.799708
 30
0.0
 10
144.836354
 20
-64.932360
 30
0.0
 10
144.889035
 20
-65.059588
 30
0.0
 10
144.982834
 20
-65.153388
 30
0.0
  0
SPLINE
  5
10b
100
AcDbEntity
  8
0
 62
7
100
AcDbSpline
 70
8
 71
3
 72
8
 73
4
 74
0
 40
0
 40
0
 40
0
 40
0
 40
1
 40
1
 40
1
 40
1
 10
144.982834
 20
-65.153388
 30
0.0
 10
145.076633
 20
-65.247187
 30
0.0
 10
145.203862
 20
-65.299868
 30
0.0
 10
145.336514
 20
-65.299834
 30
0.0
  0
SPLINE
  5
10c
100
AcDbEntity
  8
0
 62
7
100
AcDbSpline
 70
8
 71
3
 72
8
 73
4
 74
0
 40
0
 40
0
 40
0
 40
0
 40
1
 40
1
 40
1
 40
1
 10
132.510276
 20
-65.300088
 30
0.0
 10
132.786319
 20
-65.300018
 30
0.0
 10
133.010078
 20
-65.076258
 30
0.0
 10
133.010148
 20
-64.800216
 30
0.0
  0
SPLINE
  5
10d
100
AcDbEntity
  8
0
 62
7
100
AcDbSpline
 70
8
 71
3
 72
8
 73
4
 74
0
 40
0
 40
0
 40
0
 40
0
 40
1
 40
1
 40
1
 40
1
 10
120.960388
 20
-64.799708
 30
0.0
 10
120.960354
 20
-64.932360
 30
0.0
 10
121.013035
 20
-65.059588
 30
0.0
 10
121.106834
 20
-65.153388
 30
0.0
  0
SPLINE
  5
10e
100
AcDbEntity
  8
0
 62
7
100
AcDbSpline
 70
8
 71
3
 72
8
 73
4
 74
0
 40
0
 40
0
 40
0
 40
0
 40
1
 40
1
 40
1
 40
1
 10
121.106834
 20
-65.153388
 30
0.0
 10
121.200633
 20
-65.247187
 30
0.0
 10
121.327862
 20
-65.299868
 30
0.0
 10
121.460514
 20
-65.299834
 30
0.0
  0
SPLINE
  5
10f
100
AcDbEntity
  8
0
 62
7
100
AcDbSpline
 70
8
 71
3
 72
8
 73
4
 74
0
 40
0
 40
0
 40
0
 40
0
 40
1
 40
1
 40
1
 40
1
 10
94.798388
 20
-64.799708
 30
0.0
 10
94.798354
 20
-64.932360
 30
0.0
 10
94.851035
 20
-65.059588
 30
0.0
 10
94.944834
 20
-65.153388
 30
0.0
  0
SPLINE
  5
110
100
AcDbEntity
  8
0
 62
7
100
AcDbSpline
 70
8
 71
3
 72
8
 73
4
 74
0
 40
0
 40
0
 40
0
 40
0
 40
1
 40
1
 40
1
 40
1
 10
94.944834
 20
-65.153388
 30
0.0
 10
95.038633
 20
-65.247187
 30
0.0
 10
95.165862
 20
-65.299868
 30
0.0
 10
95.298514
 20
-65.299834
 30
0.0
  0
SPLINE
  5
111
100
AcDbEntity
  8
0
 62
7
100
AcDbSpline
 70
8
 71
3
 72
8
 73
4
 74
0
 40
0
 40
0
 40
0
 40
0
 40
1
 40
1
 40
1
 40
1
 10
82.543396
 20
-65.300088
 30
0.0
 10
82.819439
 20
-65.300018
 30
0.0
 10
83.043198
 20
-65.076258
 30
0.0
 10
83.043268
 20
-64.800216
 30
0.0
  0
SPLINE
  5
112
100
AcDbEntity
  8
0
 62
7
100
AcDbSpline
 70
8
 71
3
 72
8
 73
4
 74
0
 40
0
 40
0
 40
0
 40
0
 40
1
 40
1
 40
1
 40
1
 10
0.100001
 20
-84.300304
 30
0.0
 10
0.100001
 20
-85.957154
 30
0.0
 10
1.443143
 20
-87.300297
 30
0.0
 10
3.099994
 20
-87.300298
 30
0.0
  0
LWPOLYLINE
  5
113
100
AcDbEntity
  8
0
 62
7
100
AcDbPolyline
 90
2
 70
0
 10
0.099060
 20
-84.298780
 30
0.0
 10
0.099060
 20
-3.148320
 30
0.0
  0
SPLINE
  5
114
100
AcDbEntity
  8
0
 62
7
100
AcDbSpline
 70
8
 71
3
 72
8
 73
4
 74
0
 40
0
 40
0
 40
0
 40
0
 40
1
 40
1
 40
1
 40
1
 10
265.224260
 20
-87.300298
 30
0.0
 10
266.881012
 20
-87.300158
 30
0.0
 10
268.224000
 20
-85.957056
 30
0.0
 10
268.224000
 20
-84.300304
 30
0.0
  0
LWPOLYLINE
  5
115
100
AcDbEntity
  8
0
 62
7
100
AcDbPolyline
 90
2
 70
0
 10
265.224260
 20
-87.298520
 30
0.0
 10
3.098800
 20
-87.298520
 30
0.0
  0
SPLINE
  5
116
100
AcDbEntity
  8
0
 62
7
100
AcDbSpline
 70
8
 71
3
 72
8
 73
4
 74
0
 40
0
 40
0
 40
0
 40
0
 40
1
 40
1
 40
1
 40
1
 10
268.224000
 20
-3.150403
 30
0.0
 10
268.224004
 20
-1.493648
 30
0.0
 10
266.881015
 20
-0.150541
 30
0.0
 10
265.224260
 20
-0.150401
 30
0.0
  0
LWPOLYLINE
  5
117
100
AcDbEntity
  8
0
 62
7
100
AcDbPolyline
 90
2
 70
0
 10
268.224000
 20
-3.148320
 30
0.0
 10
268.224000
 20
-84.298780
 30
0.0
  0
SPLINE
  5
118
100
AcDbEntity
  8
0
 62
7
100
AcDbSpline
 70
8
 71
3
 72
8
 73
4
 74
0
 40
0
 40
0
 40
0
 40
0
 40
1
 40
1
 40
1
 40
1
 10
3.099994
 20
-0.150401
 30
0.0
 10
2.304345
 20
-0.150401
 30
0.0
 10
1.541284
 20
-0.466472
 30
0.0
 10
0.978676
 20
-1.029082
 30
0.0
  0
SPLINE
  5
119
100
AcDbEntity
  8
0
 62
7
100
AcDbSpline
 70
8
 71
3
 72
8
 73
4
 74
0
 40
0
 40
0
 40
0
 40
0
 40
1
 40
1
 40
1
 40
1
 10
0.978676
 20
-1.029082
 30
0.0
 10
0.416068
 20
-1.591692
 30
0.0
 10
0.099999
 20
-2.354754
 30
0.0
 10
0.100001
 20
-3.150403
 30
0.0
  0
SPLINE
  5
11a
100
AcDbEntity
  8
0
 62
7
100
AcDbSpline
 70
8
 71
3
 72
8
 73
4
 74
0
 40
0
 40
0
 40
0
 40
0
 40
1
 40
1
 40
1
 40
1
 10
3.099994
 20
-83.200303
 30
0.0
 10
2.655085
 20
-83.200303
 30
0.0
 10
2.253985
 20
-83.468310
 30
0.0
 10
2.083726
 20
-83.879352
 30
0.0
  0
SPLINE
  5
11b
100
AcDbEntity
  8
0
 62
7
100
AcDbSpline
 70
8
 71
3
 72
8
 73
4
 74
0
 40
0
 40
0
 40
0
 40
0
 40
1
 40
1
 40
1
 40
1
 10
2.083726
 20
-83.879352
 30
0.0
 10
1.913467
 20
-84.290394
 30
0.0
 10
2.007578
 20
-84.763524
 30
0.0
 10
2.322176
 20
-85.078122
 30
0.0
  0
SPLINE
  5
11c
100
AcDbEntity
  8
0
 62
7
100
AcDbSpline
 70
8
 71
3
 72
8
 73
4
 74
0
 40
0
 40
0
 40
0
 40
0
 40
1
 40
1
 40
1
 40
1
 10
2.322176
 20
-85.078122
 30
0.0
 10
2.636774
 20
-85.392719
 30
0.0
 10
3.109904
 20
-85.486831
 30
0.0
 10
3.520946
 20
-85.316572
 30
0.0
  0
SPLINE
  5
11d
100
AcDbEntity
  8
0
 62
7
100
AcDbSpline
 70
8
 71
3
 72
8
 73
4
 74
0
 40
0
 40
0
 40
0
 40
0
 40
1
 40
1
 40
1
 40
1
 10
3.520946
 20
-85.316572
 30
0.0
 10
3.931988
 20
-85.146312
 30
0.0
 10
4.199994
 20
-84.745212
 30
0.0
 10
4.199994
 20
-84.300304
 30
0.0
  0
SPLINE
  5
11e
100
AcDbEntity
  8
0
 62
7
100
AcDbSpline
 70
8
 71
3
 72
8
 73
4
 74
0
 40
0
 40
0
 40
0
 40
0
 40
1
 40
1
 40
1
 40
1
 10
4.199994
 20
-84.300304
 30
0.0
 10
4.199994
 20
-84.008566
 30
0.0
 10
4.084102
 20
-83.728776
 30
0.0
 10
3.877811
 20
-83.522486
 30
0.0
  0
SPLINE
  5
11f
100
AcDbEntity
  8
0
 62
7
100
AcDbSpline
 70
8
 71
3
 72
8
 73
4
 74
0
 40
0
 40
0
 40
0
 40
0
 40
1
 40
1
 40
1
 40
1
 10
3.877811
 20
-83.522486
 30
0.0
 10
3.671521
 20
-83.316196
 30
0.0
 10
3.391732
 20
-83.200303
 30
0.0
 10
3.099994
 20
-83.200303
 30
0.0
  0
LWPOLYLINE
  5
120
100
AcDbEntity
  8
0
 62
7
100
AcDbPolyline
 90
2
 70
0
 10
3.098800
 20
-0.148580
 30
0.0
 10
265.224260
 20
-0.148580
 30
0.0
  0
SPLINE
  5
121
100
AcDbEntity
  8
0
 62
7
100
AcDbSpline
 70
8
 71
3
 72
8
 73
4
 74
0
 40
0
 40
0
 40
0
 40
0
 40
1
 40
1
 40
1
 40
1
 10
29.387546
 20
-42.625327
 30
0.0
 10
28.942637
 20
-42.625327
 30
0.0
 10
28.541537
 20
-42.893334
 30
0.0
 10
28.371278
 20
-43.304376
 30
0.0
  0
SPLINE
  5
122
100
AcDbEntity
  8
0
 62
7
100
AcDbSpline
 70
8
 71
3
 72
8
 73
4
 74
0
 40
0
 40
0
 40
0
 40
0
 40
1
 40
1
 40
1
 40
1
 10
28.371278
 20
-43.304376
 30
0.0
 10
28.201019
 20
-43.715418
 30
0.0
 10
28.295130
 20
-44.188548
 30
0.0
 10
28.609728
 20
-44.503146
 30
0.0
  0
SPLINE
  5
123
100
AcDbEntity
  8
0
 62
7
100
AcDbSpline
 70
8
 71
3
 72
8
 73
4
 74
0
 40
0
 40
0
 40
0
 40
0
 40
1
 40
1
 40
1
 40
1
 10
28.609728
 20
-44.503146
 30
0.0
 10
28.924326
 20
-44.817743
 30
0.0
 10
29.397456
 20
-44.911855
 30
0.0
 10
29.808498
 20
-44.741596
 30
0.0
  0
SPLINE
  5
124
100
AcDbEntity
  8
0
 62
7
100
AcDbSpline
 70
8
 71
3
 72
8
 73
4
 74
0
 40
0
 40
0
 40
0
 40
0
 40
1
 40
1
 40
1
 40
1
 10
29.808498
 20
-44.741596
 30
0.0
 10
30.219540
 20
-44.571336
 30
0.0
 10
30.487546
 20
-44.170236
 30
0.0
 10
30.487546
 20
-43.725328
 30
0.0
  0
SPLINE
  5
125
100
AcDbEntity
  8
0
 62
7
100
AcDbSpline
 70
8
 71
3
 72
8
 73
4
 74
0
 40
0
 40
0
 40
0
 40
0
 40
1
 40
1
 40
1
 40
1
 10
30.487546
 20
-43.725328
 30
0.0
 10
30.487546
 20
-43.433590
 30
0.0
 10
30.371654
 20
-43.153800
 30
0.0
 10
30.165364
 20
-42.947510
 30
0.0
  0
SPLINE
  5
126
100
AcDbEntity
  8
0
 62
7
100
AcDbSpline
 70
8
 71
3
 72
8
 73
4
 74
0
 40
0
 40
0
 40
0
 40
0
 40
1
 40
1
 40
1
 40
1
 10
30.165364
 20
-42.947510
 30
0.0
 10
29.959074
 20
-42.741220
 30
0.0
 10
29.679284
 20
-42.625327
 30
0.0
 10
29.387546
 20
-42.625327
 30
0.0
  0
LWPOLYLINE
  5
127
100
AcDbEntity
  8
0
 62
7
100
AcDbPolyline
 90
1
 70
1
 10
3.099994
 20
-83.200303
 30
0.0
  0
SPLINE
  5
128
100
AcDbEntity
  8
0
 62
7
100
AcDbSpline
 70
8
 71
3
 72
8
 73
4
 74
0
 40
0
 40
0
 40
0
 40
0
 40
1
 40
1
 40
1
 40
1
 10
177.850038
 20
-2.050402
 30
0.0
 10
177.405129
 20
-2.050402
 30
0.0
 10
177.004029
 20
-2.318409
 30
0.0
 10
176.833770
 20
-2.729451
 30
0.0
  0
SPLINE
  5
129
100
AcDbEntity
  8
0
 62
7
100
AcDbSpline
 70
8
 71
3
 72
8
 73
4
 74
0
 40
0
 40
0
 40
0
 40
0
 40
1
 40
1
 40
1
 40
1
 10
176.833770
 20
-2.729451
 30
0.0
 10
176.663511
 20
-3.140493
 30
0.0
 10
176.757622
 20
-3.613622
 30
0.0
 10
177.072220
 20
-3.928220
 30
0.0
  0
SPLINE
  5
12a
100
AcDbEntity
  8
0
 62
7
100
AcDbSpline
 70
8
 71
3
 72
8
 73
4
 74
0
 40
0
 40
0
 40
0
 40
0
 40
1
 40
1
 40
1
 40
1
 10
177.072220
 20
-3.928220
 30
0.0
 10
177.386818
 20
-4.242818
 30
0.0
 10
177.859948
 20
-4.336930
 30
0.0
 10
178.270990
 20
-4.166670
 30
0.0
  0
SPLINE
  5
12b
100
AcDbEntity
  8
0
 62
7
100
AcDbSpline
 70
8
 71
3
 72
8
 73
4
 74
0
 40
0
 40
0
 40
0
 40
0
 40
1
 40
1
 40
1
 40
1
 10
178.270990
 20
-4.166670
 30
0.0
 10
178.682032
 20
-3.996411
 30
0.0
 10
178.950038
 20
-3.595311
 30
0.0
 10
178.950038
 20
-3.150403
 30
0.0
  0
SPLINE
  5
12c
100
AcDbEntity
  8
0
 62
7
100
AcDbSpline
 70
8
 71
3
 72
8
 73
4
 74
0
 40
0
 40
0
 40
0
 40
0
 40
1
 40
1
 40
1
 40
1
 10
178.950038
 20
-3.150403
 30
0.0
 10
178.950038
 20
-2.858664
 30
0.0
 10
178.834146
 20
-2.578875
 30
0.0
 10
178.627856
 20
-2.372585
 30
0.0
  0
SPLINE
  5
12d
100
AcDbEntity
  8
0
 62
7
100
AcDbSpline
 70
8
 71
3
 72
8
 73
4
 74
0
 40
0
 40
0
 40
0
 40
0
 40
1
 40
1
 40
1
 40
1
 10
178.627856
 20
-2.372585
 30
0.0
 10
178.421566
 20
-2.166295
 30
0.0
 10
178.141776
 20
-2.050402
 30
0.0
 10
177.850038
 20
-2.050402
 30
0.0
  0
LWPOLYLINE
  5
12e
100
AcDbEntity
  8
0
 62
7
100
AcDbPolyline
 90
1
 70
1
 10
29.387546
 20
-42.625327
 30
0.0
  0
SPLINE
  5
12f
100
AcDbEntity
  8
0
 62
7
100
AcDbSpline
 70
8
 71
3
 72
8
 73
4
 74
0
 40
0
 40
0
 40
0
 40
0
 40
1
 40
1
 40
1
 40
1
 10
90.475054
 20
-2.050402
 30
0.0
 10
90.030145
 20
-2.050402
 30
0.0
 10
89.629045
 20
-2.318409
 30
0.0
 10
89.458786
 20
-2.729451
 30
0.0
  0
SPLINE
  5
130
100
AcDbEntity
  8
0
 62
7
100
AcDbSpline
 70
8
 71
3
 72
8
 73
4
 74
0
 40
0
 40
0
 40
0
 40
0
 40
1
 40
1
 40
1
 40
1
 10
89.458786
 20
-2.729451
 30
0.0
 10
89.288527
 20
-3.140493
 30
0.0
 10
89.382638
 20
-3.613622
 30
0.0
 10
89.697236
 20
-3.928220
 30
0.0
  0
SPLINE
  5
131
100
AcDbEntity
  8
0
 62
7
100
AcDbSpline
 70
8
 71
3
 72
8
 73
4
 74
0
 40
0
 40
0
 40
0
 40
0
 40
1
 40
1
 40
1
 40
1
 10
89.697236
 20
-3.928220
 30
0.0
 10
90.011834
 20
-4.242818
 30
0.0
 10
90.484964
 20
-4.336930
 30
0.0
 10
90.896006
 20
-4.166670
 30
0.0
  0
SPLINE
  5
132
100
AcDbEntity
  8
0
 62
7
100
AcDbSpline
 70
8
 71
3
 72
8
 73
4
 74
0
 40
0
 40
0
 40
0
 40
0
 40
1
 40
1
 40
1
 40
1
 10
90.896006
 20
-4.166670
 30
0.0
 10
91.307048
 20
-3.996411
 30
0.0
 10
91.575054
 20
-3.595311
 30
0.0
 10
91.575054
 20
-3.150403
 30
0.0
  0
SPLINE
  5
133
100
AcDbEntity
  8
0
 62
7
100
AcDbSpline
 70
8
 71
3
 72
8
 73
4
 74
0
 40
0
 40
0
 40
0
 40
0
 40
1
 40
1
 40
1
 40
1
 10
91.575054
 20
-3.150403
 30
0.0
 10
91.575054
 20
-2.858664
 30
0.0
 10
91.459162
 20
-2.578875
 30
0.0
 10
91.252872
 20
-2.372585
 30
0.0
  0
SPLINE
  5
134
100
AcDbEntity
  8
0
 62
7
100
AcDbSpline
 70
8
 71
3
 72
8
 73
4
 74
0
 40
0
 40
0
 40
0
 40
0
 40
1
 40
1
 40
1
 40
1
 10
91.252872
 20
-2.372585
 30
0.0
 10
91.046582
 20
-2.166295
 30
0.0
 10
90.766792
 20
-2.050402
 30
0.0
 10
90.475054
 20
-2.050402
 30
0.0
  0
LWPOLYLINE
  5
135
100
AcDbEntity
  8
0
 62
7
100
AcDbPolyline
 90
1
 70
1
 10
177.850038
 20
-2.050402
 30
0.0
  0
SPLINE
  5
136
100
AcDbEntity
  8
0
 62
7
100
AcDbSpline
 70
8
 71
3
 72
8
 73
4
 74
0
 40
0
 40
0
 40
0
 40
0
 40
1
 40
1
 40
1
 40
1
 10
177.850038
 20
-83.200303
 30
0.0
 10
177.405129
 20
-83.200303
 30
0.0
 10
177.004029
 20
-83.468310
 30
0.0
 10
176.833770
 20
-83.879352
 30
0.0
  0
SPLINE
  5
137
100
AcDbEntity
  8
0
 62
7
100
AcDbSpline
 70
8
 71
3
 72
8
 73
4
 74
0
 40
0
 40
0
 40
0
 40
0
 40
1
 40
1
 40
1
 40
1
 10
176.833770
 20
-83.879352
 30
0.0
 10
176.663511
 20
-84.290394
 30
0.0
 10
176.757622
 20
-84.763524
 30
0.0
 10
177.072220
 20
-85.078122
 30
0.0
  0
SPLINE
  5
138
100
AcDbEntity
  8
0
 62
7
100
AcDbSpline
 70
8
 71
3
 72
8
 73
4
 74
0
 40
0
 40
0
 40
0
 40
0
 40
1
 40
1
 40
1
 40
1
 10
177.072220
 20
-85.078122
 30
0.0
 10
177.386818
 20
-85.392719
 30
0.0
 10
177.859948
 20
-85.486831
 30
0.0
 10
178.270990
 20
-85.316572
 30
0.0
  0
SPLINE
  5
139
100
AcDbEntity
  8
0
 62
7
100
AcDbSpline
 70
8
 71
3
 72
8
 73
4
 74
0
 40
0
 40
0
 40
0
 40
0
 40
1
 40
1
 40
1
 40
1
 10
178.270990
 20
-85.316572
 30
0.0
 10
178.682032
 20
-85.146312
 30
0.0
 10
178.950038
 20
-84.745212
 30
0.0
 10
178.950038
 20
-84.300304
 30
0.0
  0
SPLINE
  5
13a
100
AcDbEntity
  8
0
 62
7
100
AcDbSpline
 70
8
 71
3
 72
8
 73
4
 74
0
 40
0
 40
0
 40
0
 40
0
 40
1
 40
1
 40
1
 40
1
 10
178.950038
 20
-84.300304
 30
0.0
 10
178.950038
 20
-84.008566
 30
0.0
 10
178.834146
 20
-83.728776
 30
0.0
 10
178.627856
 20
-83.522486
 30
0.0
  0
SPLINE
  5
13b
100
AcDbEntity
  8
0
 62
7
100
AcDbSpline
 70
8
 71
3
 72
8
 73
4
 74
0
 40
0
 40
0
 40
0
 40
0
 40
1
 40
1
 40
1
 40
1
 10
178.627856
 20
-83.522486
 30
0.0
 10
178.421566
 20
-83.316196
 30
0.0
 10
178.141776
 20
-83.200303
 30
0.0
 10
177.850038
 20
-83.200303
 30
0.0
  0
LWPOLYLINE
  5
13c
100
AcDbEntity
  8
0
 62
7
100
AcDbPolyline
 90
1
 70
1
 10
90.475054
 20
-2.050402
 30
0.0
  0
SPLINE
  5
13d
100
AcDbEntity
  8
0
 62
7
100
AcDbSpline
 70
8
 71
3
 72
8
 73
4
 74
0
 40
0
 40
0
 40
0
 40
0
 40
1
 40
1
 40
1
 40
1
 10
90.475054
 20
-83.200303
 30
0.0
 10
90.030145
 20
-83.200303
 30
0.0
 10
89.629045
 20
-83.468310
 30
0.0
 10
89.458786
 20
-83.879352
 30
0.0
  0
SPLINE
  5
13e
100
AcDbEntity
  8
0
 62
7
100
AcDbSpline
 70
8
 71
3
 72
8
 73
4
 74
0
 40
0
 40
0
 40
0
 40
0
 40
1
 40
1
 40
1
 40
1
 10
89.458786
 20
-83.879352
 30
0.0
 10
89.288527
 20
-84.290394
 30
0.0
 10
89.382638
 20
-84.763524
 30
0.0
 10
89.697236
 20
-85.078122
 30
0.0
  0
SPLINE
  5
13f
100
AcDbEntity
  8
0
 62
7
100
AcDbSpline
 70
8
 71
3
 72
8
 73
4
 74
0
 40
0
 40
0
 40
0
 40
0
 40
1
 40
1
 40
1
 40
1
 10
89.697236
 20
-85.078122
 30
0.0
 10
90.011834
 20
-85.392719
 30
0.0
 10
90.484964
 20
-85.486831
 30
0.0
 10
90.896006
 20
-85.316572
 30
0.0
  0
SPLINE
  5
140
100
AcDbEntity
  8
0
 62
7
100
AcDbSpline
 70
8
 71
3
 72
8
 73
4
 74
0
 40
0
 40
0
 40
0
 40
0
 40
1
 40
1
 40
1
 40
1
 10
90.896006
 20
-85.316572
 30
0.0
 10
91.307048
 20
-85.146312
 30
0.0
 10
91.575054
 20
-84.745212
 30
0.0
 10
91.575054
 20
-84.300304
 30
0.0
  0
SPLINE
  5
141
100
AcDbEntity
  8
0
 62
7
100
AcDbSpline
 70
8
 71
3
 72
8
 73
4
 74
0
 40
0
 40
0
 40
0
 40
0
 40
1
 40
1
 40
1
 40
1
 10
91.575054
 20
-84.300304
 30
0.0
 10
91.575054
 20
-84.008566
 30
0.0
 10
91.459162
 20
-83.728776
 30
0.0
 10
91.252872
 20
-83.522486
 30
0.0
  0
SPLINE
  5
142
100
AcDbEntity
  8
0
 62
7
100
AcDbSpline
 70
8
 71
3
 72
8
 73
4
 74
0
 40
0
 40
0
 40
0
 40
0
 40
1
 40
1
 40
1
 40
1
 10
91.252872
 20
-83.522486
 30
0.0
 10
91.046582
 20
-83.316196
 30
0.0
 10
90.766792
 20
-83.200303
 30
0.0
 10
90.475054
 20
-83.200303
 30
0.0
  0
LWPOLYLINE
  5
143
100
AcDbEntity
  8
0
 62
7
100
AcDbPolyline
 90
1
 70
1
 10
177.850038
 20
-83.200303
 30
0.0
  0
SPLINE
  5
144
100
AcDbEntity
  8
0
 62
7
100
AcDbSpline
 70
8
 71
3
 72
8
 73
4
 74
0
 40
0
 40
0
 40
0
 40
0
 40
1
 40
1
 40
1
 40
1
 10
265.224260
 20
-83.200303
 30
0.0
 10
264.779351
 20
-83.200303
 30
0.0
 10
264.378251
 20
-83.468310
 30
0.0
 10
264.207992
 20
-83.879352
 30
0.0
  0
SPLINE
  5
145
100
AcDbEntity
  8
0
 62
7
100
AcDbSpline
 70
8
 71
3
 72
8
 73
4
 74
0
 40
0
 40
0
 40
0
 40
0
 40
1
 40
1
 40
1
 40
1
 10
264.207992
 20
-83.879352
 30
0.0
 10
264.037733
 20
-84.290394
 30
0.0
 10
264.131844
 20
-84.763524
 30
0.0
 10
264.446442
 20
-85.078122
 30
0.0
  0
SPLINE
  5
146
100
AcDbEntity
  8
0
 62
7
100
AcDbSpline
 70
8
 71
3
 72
8
 73
4
 74
0
 40
0
 40
0
 40
0
 40
0
 40
1
 40
1
 40
1
 40
1
 10
264.446442
 20
-85.078122
 30
0.0
 10
264.761040
 20
-85.392719
 30
0.0
 10
265.234170
 20
-85.486831
 30
0.0
 10
265.645212
 20
-85.316572
 30
0.0
  0
SPLINE
  5
147
100
AcDbEntity
  8
0
 62
7
100
AcDbSpline
 70
8
 71
3
 72
8
 73
4
 74
0
 40
0
 40
0
 40
0
 40
0
 40
1
 40
1
 40
1
 40
1
 10
265.645212
 20
-85.316572
 30
0.0
 10
266.056254
 20
-85.146312
 30
0.0
 10
266.324260
 20
-84.745212
 30
0.0
 10
266.324260
 20
-84.300304
 30
0.0
  0
SPLINE
  5
148
100
AcDbEntity
  8
0
 62
7
100
AcDbSpline
 70
8
 71
3
 72
8
 73
4
 74
0
 40
0
 40
0
 40
0
 40
0
 40
1
 40
1
 40
1
 40
1
 10
266.324260
 20
-84.300304
 30
0.0
 10
266.324260
 20
-84.008566
 30
0.0
 10
266.208368
 20
-83.728776
 30
0.0
 10
266.002078
 20
-83.522486
 30
0.0
  0
SPLINE
  5
149
100
AcDbEntity
  8
0
 62
7
100
AcDbSpline
 70
8
 71
3
 72
8
 73
4
 74
0
 40
0
 40
0
 40
0
 40
0
 40
1
 40
1
 40
1
 40
1
 10
266.002078
 20
-83.522486
 30
0.0
 10
265.795788
 20
-83.316196
 30
0.0
 10
265.515998
 20
-83.200303
 30
0.0
 10
265.224260
 20
-83.200303
 30
0.0
  0
LWPOLYLINE
  5
14a
100
AcDbEntity
  8
0
 62
7
100
AcDbPolyline
 90
1
 70
1
 10
90.475054
 20
-83.200303
 30
0.0
  0
SPLINE
  5
14b
100
AcDbEntity
  8
0
 62
7
100
AcDbSpline
 70
8
 71
3
 72
8
 73
4
 74
0
 40
0
 40
0
 40
0
 40
0
 40
1
 40
1
 40
1
 40
1
 10
265.224260
 20
-2.050402
 30
0.0
 10
264.779351
 20
-2.050402
 30
0.0
 10
264.378251
 20
-2.318409
 30
0.0
 10
264.207992
 20
-2.729451
 30
0.0
  0
SPLINE
  5
14c
100
AcDbEntity
  8
0
 62
7
100
AcDbSpline
 70
8
 71
3
 72
8
 73
4
 74
0
 40
0
 40
0
 40
0
 40
0
 40
1
 40
1
 40
1
 40
1
 10
264.207992
 20
-2.729451
 30
0.0
 10
264.037733
 20
-3.140493
 30
0.0
 10
264.131844
 20
-3.613622
 30
0.0
 10
264.446442
 20
-3.928220
 30
0.0
  0
SPLINE
  5
14d
100
AcDbEntity
  8
0
 62
7
100
AcDbSpline
 70
8
 71
3
 72
8
 73
4
 74
0
 40
0
 40
0
 40
0
 40
0
 40
1
 40
1
 40
1
 40
1
 10
264.446442
 20
-3.928220
 30
0.0
 10
264.761040
 20
-4.242818
 30
0.0
 10
265.234170
 20
-4.336930
 30
0.0
 10
265.645212
 20
-4.166670
 30
0.0
  0
SPLINE
  5
14e
100
AcDbEntity
  8
0
 62
7
100
AcDbSpline
 70
8
 71
3
 72
8
 73
4
 74
0
 40
0
 40
0
 40
0
 40
0
 40
1
 40
1
 40
1
 40
1
 10
265.645212
 20
-4.166670
 30
0.0
 10
266.056254
 20
-3.996411
 30
0.0
 10
266.324260
 20
-3.595311
 30
0.0
 10
266.324260
 20
-3.150403
 30
0.0
  0
SPLINE
  5
14f
100
AcDbEntity
  8
0
 62
7
100
AcDbSpline
 70
8
 71
3
 72
8
 73
4
 74
0
 40
0
 40
0
 40
0
 40
0
 40
1
 40
1
 40
1
 40
1
 10
266.324260
 20
-3.150403
 30
0.0
 10
266.324260
 20
-2.858664
 30
0.0
 10
266.208368
 20
-2.578875
 30
0.0
 10
266.002078
 20
-2.372585
 30
0.0
  0
SPLINE
  5
150
100
AcDbEntity
  8
0
 62
7
100
AcDbSpline
 70
8
 71
3
 72
8
 73
4
 74
0
 40
0
 40
0
 40
0
 40
0
 40
1
 40
1
 40
1
 40
1
 10
266.002078
 20
-2.372585
 30
0.0
 10
265.795788
 20
-2.166295
 30
0.0
 10
265.515998
 20
-2.050402
 30
0.0
 10
265.224260
 20
-2.050402
 30
0.0
  0
LWPOLYLINE
  5
151
100
AcDbEntity
  8
0
 62
7
100
AcDbPolyline
 90
1
 70
1
 10
265.224260
 20
-83.200303
 30
0.0
  0
SPLINE
  5
152
100
AcDbEntity
  8
0
 62
7
100
AcDbSpline
 70
8
 71
3
 72
8
 73
4
 74
0
 40
0
 40
0
 40
0
 40
0
 40
1
 40
1
 40
1
 40
1
 10
3.099994
 20
-2.050402
 30
0.0
 10
2.655085
 20
-2.050402
 30
0.0
 10
2.253985
 20
-2.318409
 30
0.0
 10
2.083726
 20
-2.729451
 30
0.0
  0
SPLINE
  5
153
100
AcDbEntity
  8
0
 62
7
100
AcDbSpline
 70
8
 71
3
 72
8
 73
4
 74
0
 40
0
 40
0
 40
0
 40
0
 40
1
 40
1
 40
1
 40
1
 10
2.083726
 20
-2.729451
 30
0.0
 10
1.913467
 20
-3.140493
 30
0.0
 10
2.007578
 20
-3.613622
 30
0.0
 10
2.322176
 20
-3.928220
 30
0.0
  0
SPLINE
  5
154
100
AcDbEntity
  8
0
 62
7
100
AcDbSpline
 70
8
 71
3
 72
8
 73
4
 74
0
 40
0
 40
0
 40
0
 40
0
 40
1
 40
1
 40
1
 40
1
 10
2.322176
 20
-3.928220
 30
0.0
 10
2.636774
 20
-4.242818
 30
0.0
 10
3.109904
 20
-4.336930
 30
0.0
 10
3.520946
 20
-4.166670
 30
0.0
  0
SPLINE
  5
155
100
AcDbEntity
  8
0
 62
7
100
AcDbSpline
 70
8
 71
3
 72
8
 73
4
 74
0
 40
0
 40
0
 40
0
 40
0
 40
1
 40
1
 40
1
 40
1
 10
3.520946
 20
-4.166670
 30
0.0
 10
3.931988
 20
-3.996411
 30
0.0
 10
4.199994
 20
-3.595311
 30
0.0
 10
4.199994
 20
-3.150403
 30
0.0
  0
SPLINE
  5
156
100
AcDbEntity
  8
0
 62
7
100
AcDbSpline
 70
8
 71
3
 72
8
 73
4
 74
0
 40
0
 40
0
 40
0
 40
0
 40
1
 40
1
 40
1
 40
1
 10
4.199994
 20
-3.150403
 30
0.0
 10
4.199994
 20
-2.858664
 30
0.0
 10
4.084102
 20
-2.578875
 30
0.0
 10
3.877811
 20
-2.372585
 30
0.0
  0
SPLINE
  5
157
100
AcDbEntity
  8
0
 62
7
100
AcDbSpline
 70
8
 71
3
 72
8
 73
4
 74
0
 40
0
 40
0
 40
0
 40
0
 40
1
 40
1
 40
1
 40
1
 10
3.877811
 20
-2.372585
 30
0.0
 10
3.671521
 20
-2.166295
 30
0.0
 10
3.391732
 20
-2.050402
 30
0.0
 10
3.099994
 20
-2.050402
 30
0.0
  0
LWPOLYLINE
  5
158
100
AcDbEntity
  8
0
 62
7
100
AcDbPolyline
 90
1
 70
1
 10
265.224260
 20
-2.050402
 30
0.0
  0
LWPOLYLINE
  5
159
100
AcDbEntity
  8
0
 62
7
100
AcDbPolyline
 90
1
 70
1
 10
3.099994
 20
-2.050402
 30
0.0
  0
LWPOLYLINE
  5
15a
100
AcDbEntity
  8
0
 62
7
100
AcDbPolyline
 90
2
 70
0
 10
240.842800
 20
-79.269580
 30
0.0
 10
240.974880
 20
-79.198460
 30
0.0
  0
LWPOLYLINE
  5
15b
100
AcDbEntity
  8
0
 62
7
100
AcDbPolyline
 90
2
 70
0
 10
240.672620
 20
-79.297520
 30
0.0
 10
240.842800
 20
-79.269580
 30
0.0
  0
LWPOLYLINE
  5
15c
100
AcDbEntity
  8
0
 62
7
100
AcDbPolyline
 90
2
 70
0
 10
112.080040
 20
-79.297520
 30
0.0
 10
240.672620
 20
-79.297520
 30
0.0
  0
LWPOLYLINE
  5
15d
100
AcDbEntity
  8
0
 62
7
100
AcDbPolyline
 90
2
 70
0
 10
111.988600
 20
-79.289900
 30
0.0
 10
112.080040
 20
-79.297520
 30
0.0
  0
LWPOLYLINE
  5
15e
100
AcDbEntity
  8
0
 62
7
100
AcDbPolyline
 90
2
 70
0
 10
111.841280
 20
-79.239100
 30
0.0
 10
111.988600
 20
-79.289900
 30
0.0
  0
LWPOLYLINE
  5
15f
100
AcDbEntity
  8
0
 62
7
100
AcDbPolyline
 90
2
 70
0
 10
111.724440
 20
-79.152740
 30
0.0
 10
111.841280
 20
-79.239100
 30
0.0
  0
LWPOLYLINE
  5
160
100
AcDbEntity
  8
0
 62
7
100
AcDbPolyline
 90
2
 70
0
 10
111.681260
 20
-79.101940
 30
0.0
 10
111.724440
 20
-79.152740
 30
0.0
  0
LWPOLYLINE
  5
161
100
AcDbEntity
  8
0
 62
7
100
AcDbPolyline
 90
2
 70
0
 10
111.610140
 20
-78.972400
 30
0.0
 10
111.681260
 20
-79.101940
 30
0.0
  0
LWPOLYLINE
  5
162
100
AcDbEntity
  8
0
 62
7
100
AcDbPolyline
 90
2
 70
0
 10
111.579660
 20
-78.799680
 30
0.0
 10
111.610140
 20
-78.972400
 30
0.0
  0
LWPOLYLINE
  5
163
100
AcDbEntity
  8
0
 62
7
100
AcDbPolyline
 90
2
 70
0
 10
111.579660
 20
-64.799200
 30
0.0
 10
111.579660
 20
-78.799680
 30
0.0
  0
LWPOLYLINE
  5
164
100
AcDbEntity
  8
0
 62
7
100
AcDbPolyline
 90
2
 70
0
 10
111.587280
 20
-64.707760
 30
0.0
 10
111.579660
 20
-64.799200
 30
0.0
  0
LWPOLYLINE
  5
165
100
AcDbEntity
  8
0
 62
7
100
AcDbPolyline
 90
2
 70
0
 10
111.638080
 20
-64.560440
 30
0.0
 10
111.587280
 20
-64.707760
 30
0.0
  0
LWPOLYLINE
  5
166
100
AcDbEntity
  8
0
 62
7
100
AcDbPolyline
 90
2
 70
0
 10
111.724440
 20
-64.446140
 30
0.0
 10
111.638080
 20
-64.560440
 30
0.0
  0
LWPOLYLINE
  5
167
100
AcDbEntity
  8
0
 62
7
100
AcDbPolyline
 90
2
 70
0
 10
111.777780
 20
-64.397880
 30
0.0
 10
111.724440
 20
-64.446140
 30
0.0
  0
LWPOLYLINE
  5
168
100
AcDbEntity
  8
0
 62
7
100
AcDbPolyline
 90
2
 70
0
 10
111.907320
 20
-64.329300
 30
0.0
 10
111.777780
 20
-64.397880
 30
0.0
  0
LWPOLYLINE
  5
169
100
AcDbEntity
  8
0
 62
7
100
AcDbPolyline
 90
2
 70
0
 10
112.080040
 20
-64.298820
 30
0.0
 10
111.907320
 20
-64.329300
 30
0.0
  0
LWPOLYLINE
  5
16a
100
AcDbEntity
  8
0
 62
7
100
AcDbPolyline
 90
2
 70
0
 10
120.459500
 20
-64.298820
 30
0.0
 10
112.080040
 20
-64.298820
 30
0.0
  0
LWPOLYLINE
  5
16b
100
AcDbEntity
  8
0
 62
7
100
AcDbPolyline
 90
2
 70
0
 10
120.548400
 20
-64.306440
 30
0.0
 10
120.459500
 20
-64.298820
 30
0.0
  0
LWPOLYLINE
  5
16c
100
AcDbEntity
  8
0
 62
7
100
AcDbPolyline
 90
2
 70
0
 10
120.698260
 20
-64.357240
 30
0.0
 10
120.548400
 20
-64.306440
 30
0.0
  0
LWPOLYLINE
  5
16d
100
AcDbEntity
  8
0
 62
7
100
AcDbPolyline
 90
2
 70
0
 10
120.812560
 20
-64.446140
 30
0.0
 10
120.698260
 20
-64.357240
 30
0.0
  0
LWPOLYLINE
  5
16e
100
AcDbEntity
  8
0
 62
7
100
AcDbPolyline
 90
2
 70
0
 10
120.858280
 20
-64.496940
 30
0.0
 10
120.812560
 20
-64.446140
 30
0.0
  0
LWPOLYLINE
  5
16f
100
AcDbEntity
  8
0
 62
7
100
AcDbPolyline
 90
2
 70
0
 10
120.929400
 20
-64.626480
 30
0.0
 10
120.858280
 20
-64.496940
 30
0.0
  0
LWPOLYLINE
  5
170
100
AcDbEntity
  8
0
 62
7
100
AcDbPolyline
 90
2
 70
0
 10
120.959880
 20
-64.799200
 30
0.0
 10
120.929400
 20
-64.626480
 30
0.0
  0
LWPOLYLINE
  5
171
100
AcDbEntity
  8
0
 62
7
100
AcDbPolyline
 90
2
 70
0
 10
132.509260
 20
-65.299580
 30
0.0
 10
121.460260
 20
-65.299580
 30
0.0
  0
LWPOLYLINE
  5
172
100
AcDbEntity
  8
0
 62
7
100
AcDbPolyline
 90
2
 70
0
 10
133.017260
 20
-64.707760
 30
0.0
 10
133.009640
 20
-64.799200
 30
0.0
  0
LWPOLYLINE
  5
173
100
AcDbEntity
  8
0
 62
7
100
AcDbPolyline
 90
2
 70
0
 10
133.070600
 20
-64.560440
 30
0.0
 10
133.017260
 20
-64.707760
 30
0.0
  0
LWPOLYLINE
  5
174
100
AcDbEntity
  8
0
 62
7
100
AcDbPolyline
 90
2
 70
0
 10
133.156960
 20
-64.446140
 30
0.0
 10
133.070600
 20
-64.560440
 30
0.0
  0
LWPOLYLINE
  5
175
100
AcDbEntity
  8
0
 62
7
100
AcDbPolyline
 90
2
 70
0
 10
133.210300
 20
-64.397880
 30
0.0
 10
133.156960
 20
-64.446140
 30
0.0
  0
LWPOLYLINE
  5
176
100
AcDbEntity
  8
0
 62
7
100
AcDbPolyline
 90
2
 70
0
 10
133.339840
 20
-64.329300
 30
0.0
 10
133.210300
 20
-64.397880
 30
0.0
  0
LWPOLYLINE
  5
177
100
AcDbEntity
  8
0
 62
7
100
AcDbPolyline
 90
2
 70
0
 10
133.510020
 20
-64.298820
 30
0.0
 10
133.339840
 20
-64.329300
 30
0.0
  0
LWPOLYLINE
  5
178
100
AcDbEntity
  8
0
 62
7
100
AcDbPolyline
 90
2
 70
0
 10
144.335500
 20
-64.298820
 30
0.0
 10
133.510020
 20
-64.298820
 30
0.0
  0
LWPOLYLINE
  5
179
100
AcDbEntity
  8
0
 62
7
100
AcDbPolyline
 90
2
 70
0
 10
144.424400
 20
-64.306440
 30
0.0
 10
144.335500
 20
-64.298820
 30
0.0
  0
LWPOLYLINE
  5
17a
100
AcDbEntity
  8
0
 62
7
100
AcDbPolyline
 90
2
 70
0
 10
144.574260
 20
-64.357240
 30
0.0
 10
144.424400
 20
-64.306440
 30
0.0
  0
LWPOLYLINE
  5
17b
100
AcDbEntity
  8
0
 62
7
100
AcDbPolyline
 90
2
 70
0
 10
144.688560
 20
-64.446140
 30
0.0
 10
144.574260
 20
-64.357240
 30
0.0
  0
LWPOLYLINE
  5
17c
100
AcDbEntity
  8
0
 62
7
100
AcDbPolyline
 90
2
 70
0
 10
144.734280
 20
-64.496940
 30
0.0
 10
144.688560
 20
-64.446140
 30
0.0
  0
LWPOLYLINE
  5
17d
100
AcDbEntity
  8
0
 62
7
100
AcDbPolyline
 90
2
 70
0
 10
144.805400
 20
-64.626480
 30
0.0
 10
144.734280
 20
-64.496940
 30
0.0
  0
LWPOLYLINE
  5
17e
100
AcDbEntity
  8
0
 62
7
100
AcDbPolyline
 90
2
 70
0
 10
144.835880
 20
-64.799200
 30
0.0
 10
144.805400
 20
-64.626480
 30
0.0
  0
LWPOLYLINE
  5
17f
100
AcDbEntity
  8
0
 62
7
100
AcDbPolyline
 90
2
 70
0
 10
151.559260
 20
-65.299580
 30
0.0
 10
145.336260
 20
-65.299580
 30
0.0
  0
LWPOLYLINE
  5
180
100
AcDbEntity
  8
0
 62
7
100
AcDbPolyline
 90
2
 70
0
 10
152.067260
 20
-64.707760
 30
0.0
 10
152.059640
 20
-64.799200
 30
0.0
  0
LWPOLYLINE
  5
181
100
AcDbEntity
  8
0
 62
7
100
AcDbPolyline
 90
2
 70
0
 10
152.120600
 20
-64.560440
 30
0.0
 10
152.067260
 20
-64.707760
 30
0.0
  0
LWPOLYLINE
  5
182
100
AcDbEntity
  8
0
 62
7
100
AcDbPolyline
 90
2
 70
0
 10
152.206960
 20
-64.446140
 30
0.0
 10
152.120600
 20
-64.560440
 30
0.0
  0
LWPOLYLINE
  5
183
100
AcDbEntity
  8
0
 62
7
100
AcDbPolyline
 90
2
 70
0
 10
152.260300
 20
-64.397880
 30
0.0
 10
152.206960
 20
-64.446140
 30
0.0
  0
LWPOLYLINE
  5
184
100
AcDbEntity
  8
0
 62
7
100
AcDbPolyline
 90
2
 70
0
 10
152.389840
 20
-64.329300
 30
0.0
 10
152.260300
 20
-64.397880
 30
0.0
  0
LWPOLYLINE
  5
185
100
AcDbEntity
  8
0
 62
7
100
AcDbPolyline
 90
2
 70
0
 10
152.560020
 20
-64.298820
 30
0.0
 10
152.389840
 20
-64.329300
 30
0.0
  0
LWPOLYLINE
  5
186
100
AcDbEntity
  8
0
 62
7
100
AcDbPolyline
 90
2
 70
0
 10
165.704520
 20
-64.298820
 30
0.0
 10
152.560020
 20
-64.298820
 30
0.0
  0
LWPOLYLINE
  5
187
100
AcDbEntity
  8
0
 62
7
100
AcDbPolyline
 90
2
 70
0
 10
165.793420
 20
-64.306440
 30
0.0
 10
165.704520
 20
-64.298820
 30
0.0
  0
LWPOLYLINE
  5
188
100
AcDbEntity
  8
0
 62
7
100
AcDbPolyline
 90
2
 70
0
 10
165.940740
 20
-64.357240
 30
0.0
 10
165.793420
 20
-64.306440
 30
0.0
  0
LWPOLYLINE
  5
189
100
AcDbEntity
  8
0
 62
7
100
AcDbPolyline
 90
2
 70
0
 10
166.057580
 20
-64.446140
 30
0.0
 10
165.940740
 20
-64.357240
 30
0.0
  0
LWPOLYLINE
  5
18a
100
AcDbEntity
  8
0
 62
7
100
AcDbPolyline
 90
2
 70
0
 10
166.103300
 20
-64.496940
 30
0.0
 10
166.057580
 20
-64.446140
 30
0.0
  0
LWPOLYLINE
  5
18b
100
AcDbEntity
  8
0
 62
7
100
AcDbPolyline
 90
2
 70
0
 10
166.174420
 20
-64.626480
 30
0.0
 10
166.103300
 20
-64.496940
 30
0.0
  0
LWPOLYLINE
  5
18c
100
AcDbEntity
  8
0
 62
7
100
AcDbPolyline
 90
2
 70
0
 10
166.204900
 20
-64.799200
 30
0.0
 10
166.174420
 20
-64.626480
 30
0.0
  0
LWPOLYLINE
  5
18d
100
AcDbEntity
  8
0
 62
7
100
AcDbPolyline
 90
2
 70
0
 10
175.435260
 20
-65.299580
 30
0.0
 10
166.705280
 20
-65.299580
 30
0.0
  0
LWPOLYLINE
  5
18e
100
AcDbEntity
  8
0
 62
7
100
AcDbPolyline
 90
2
 70
0
 10
175.943260
 20
-64.707760
 30
0.0
 10
175.935640
 20
-64.799200
 30
0.0
  0
LWPOLYLINE
  5
18f
100
AcDbEntity
  8
0
 62
7
100
AcDbPolyline
 90
2
 70
0
 10
175.996600
 20
-64.560440
 30
0.0
 10
175.943260
 20
-64.707760
 30
0.0
  0
LWPOLYLINE
  5
190
100
AcDbEntity
  8
0
 62
7
100
AcDbPolyline
 90
2
 70
0
 10
176.082960
 20
-64.446140
 30
0.0
 10
175.996600
 20
-64.560440
 30
0.0
  0
LWPOLYLINE
  5
191
100
AcDbEntity
  8
0
 62
7
100
AcDbPolyline
 90
2
 70
0
 10
176.136300
 20
-64.397880
 30
0.0
 10
176.082960
 20
-64.446140
 30
0.0
  0
LWPOLYLINE
  5
192
100
AcDbEntity
  8
0
 62
7
100
AcDbPolyline
 90
2
 70
0
 10
176.265840
 20
-64.329300
 30
0.0
 10
176.136300
 20
-64.397880
 30
0.0
  0
LWPOLYLINE
  5
193
100
AcDbEntity
  8
0
 62
7
100
AcDbPolyline
 90
2
 70
0
 10
176.436020
 20
-64.298820
 30
0.0
 10
176.265840
 20
-64.329300
 30
0.0
  0
LWPOLYLINE
  5
194
100
AcDbEntity
  8
0
 62
7
100
AcDbPolyline
 90
2
 70
0
 10
189.580520
 20
-64.298820
 30
0.0
 10
176.436020
 20
-64.298820
 30
0.0
  0
LWPOLYLINE
  5
195
100
AcDbEntity
  8
0
 62
7
100
AcDbPolyline
 90
2
 70
0
 10
189.669420
 20
-64.306440
 30
0.0
 10
189.580520
 20
-64.298820
 30
0.0
  0
LWPOLYLINE
  5
196
100
AcDbEntity
  8
0
 62
7
100
AcDbPolyline
 90
2
 70
0
 10
189.816740
 20
-64.357240
 30
0.0
 10
189.669420
 20
-64.306440
 30
0.0
  0
LWPOLYLINE
  5
197
100
AcDbEntity
  8
0
 62
7
100
AcDbPolyline
 90
2
 70
0
 10
189.933580
 20
-64.446140
 30
0.0
 10
189.816740
 20
-64.357240
 30
0.0
  0
LWPOLYLINE
  5
198
100
AcDbEntity
  8
0
 62
7
100
AcDbPolyline
 90
2
 70
0
 10
189.979300
 20
-64.496940
 30
0.0
 10
189.933580
 20
-64.446140
 30
0.0
  0
LWPOLYLINE
  5
199
100
AcDbEntity
  8
0
 62
7
100
AcDbPolyline
 90
2
 70
0
 10
190.050420
 20
-64.626480
 30
0.0
 10
189.979300
 20
-64.496940
 30
0.0
  0
LWPOLYLINE
  5
19a
100
AcDbEntity
  8
0
 62
7
100
AcDbPolyline
 90
2
 70
0
 10
190.080900
 20
-64.799200
 30
0.0
 10
190.050420
 20
-64.626480
 30
0.0
  0
LWPOLYLINE
  5
19b
100
AcDbEntity
  8
0
 62
7
100
AcDbPolyline
 90
2
 70
0
 10
201.597260
 20
-65.299580
 30
0.0
 10
190.581280
 20
-65.299580
 30
0.0
  0
LWPOLYLINE
  5
19c
100
AcDbEntity
  8
0
 62
7
100
AcDbPolyline
 90
2
 70
0
 10
202.105260
 20
-64.707760
 30
0.0
 10
202.097640
 20
-64.799200
 30
0.0
  0
LWPOLYLINE
  5
19d
100
AcDbEntity
  8
0
 62
7
100
AcDbPolyline
 90
2
 70
0
 10
202.158600
 20
-64.560440
 30
0.0
 10
202.105260
 20
-64.707760
 30
0.0
  0
LWPOLYLINE
  5
19e
100
AcDbEntity
  8
0
 62
7
100
AcDbPolyline
 90
2
 70
0
 10
202.244960
 20
-64.446140
 30
0.0
 10
202.158600
 20
-64.560440
 30
0.0
  0
LWPOLYLINE
  5
19f
100
AcDbEntity
  8
0
 62
7
100
AcDbPolyline
 90
2
 70
0
 10
202.298300
 20
-64.397880
 30
0.0
 10
202.244960
 20
-64.446140
 30
0.0
  0
LWPOLYLINE
  5
1a0
100
AcDbEntity
  8
0
 62
7
100
AcDbPolyline
 90
2
 70
0
 10
202.427840
 20
-64.329300
 30
0.0
 10
202.298300
 20
-64.397880
 30
0.0
  0
LWPOLYLINE
  5
1a1
100
AcDbEntity
  8
0
 62
7
100
AcDbPolyline
 90
2
 70
0
 10
202.598020
 20
-64.298820
 30
0.0
 10
202.427840
 20
-64.329300
 30
0.0
  0
LWPOLYLINE
  5
1a2
100
AcDbEntity
  8
0
 62
7
100
AcDbPolyline
 90
2
 70
0
 10
208.597500
 20
-64.298820
 30
0.0
 10
202.598020
 20
-64.298820
 30
0.0
  0
LWPOLYLINE
  5
1a3
100
AcDbEntity
  8
0
 62
7
100
AcDbPolyline
 90
2
 70
0
 10
208.686400
 20
-64.306440
 30
0.0
 10
208.597500
 20
-64.298820
 30
0.0
  0
LWPOLYLINE
  5
1a4
100
AcDbEntity
  8
0
 62
7
100
AcDbPolyline
 90
2
 70
0
 10
208.836260
 20
-64.357240
 30
0.0
 10
208.686400
 20
-64.306440
 30
0.0
  0
LWPOLYLINE
  5
1a5
100
AcDbEntity
  8
0
 62
7
100
AcDbPolyline
 90
2
 70
0
 10
208.950560
 20
-64.446140
 30
0.0
 10
208.836260
 20
-64.357240
 30
0.0
  0
LWPOLYLINE
  5
1a6
100
AcDbEntity
  8
0
 62
7
100
AcDbPolyline
 90
2
 70
0
 10
208.996280
 20
-64.496940
 30
0.0
 10
208.950560
 20
-64.446140
 30
0.0
  0
LWPOLYLINE
  5
1a7
100
AcDbEntity
  8
0
 62
7
100
AcDbPolyline
 90
2
 70
0
 10
209.067400
 20
-64.626480
 30
0.0
 10
208.996280
 20
-64.496940
 30
0.0
  0
LWPOLYLINE
  5
1a8
100
AcDbEntity
  8
0
 62
7
100
AcDbPolyline
 90
2
 70
0
 10
209.097880
 20
-64.799200
 30
0.0
 10
209.067400
 20
-64.626480
 30
0.0
  0
LWPOLYLINE
  5
1a9
100
AcDbEntity
  8
0
 62
7
100
AcDbPolyline
 90
2
 70
0
 10
240.672620
 20
-65.299580
 30
0.0
 10
209.598260
 20
-65.299580
 30
0.0
  0
LWPOLYLINE
  5
1aa
100
AcDbEntity
  8
0
 62
7
100
AcDbPolyline
 90
2
 70
0
 10
240.761520
 20
-65.307200
 30
0.0
 10
240.672620
 20
-65.299580
 30
0.0
  0
LWPOLYLINE
  5
1ab
100
AcDbEntity
  8
0
 62
7
100
AcDbPolyline
 90
2
 70
0
 10
240.911380
 20
-65.358000
 30
0.0
 10
240.761520
 20
-65.307200
 30
0.0
  0
LWPOLYLINE
  5
1ac
100
AcDbEntity
  8
0
 62
7
100
AcDbPolyline
 90
2
 70
0
 10
241.025680
 20
-65.444360
 30
0.0
 10
240.911380
 20
-65.358000
 30
0.0
  0
LWPOLYLINE
  5
1ad
100
AcDbEntity
  8
0
 62
7
100
AcDbPolyline
 90
2
 70
0
 10
241.071400
 20
-65.497700
 30
0.0
 10
241.025680
 20
-65.444360
 30
0.0
  0
LWPOLYLINE
  5
1ae
100
AcDbEntity
  8
0
 62
7
100
AcDbPolyline
 90
2
 70
0
 10
241.142520
 20
-65.627240
 30
0.0
 10
241.071400
 20
-65.497700
 30
0.0
  0
LWPOLYLINE
  5
1af
100
AcDbEntity
  8
0
 62
7
100
AcDbPolyline
 90
2
 70
0
 10
241.173000
 20
-65.797420
 30
0.0
 10
241.142520
 20
-65.627240
 30
0.0
  0
LWPOLYLINE
  5
1b0
100
AcDbEntity
  8
0
 62
7
100
AcDbPolyline
 90
2
 70
0
 10
241.173000
 20
-78.799680
 30
0.0
 10
241.173000
 20
-65.797420
 30
0.0
  0
LWPOLYLINE
  5
1b1
100
AcDbEntity
  8
0
 62
7
100
AcDbPolyline
 90
2
 70
0
 10
241.165380
 20
-78.888580
 30
0.0
 10
241.173000
 20
-78.799680
 30
0.0
  0
LWPOLYLINE
  5
1b2
100
AcDbEntity
  8
0
 62
7
100
AcDbPolyline
 90
2
 70
0
 10
241.112040
 20
-79.038440
 30
0.0
 10
241.165380
 20
-78.888580
 30
0.0
  0
LWPOLYLINE
  5
1b3
100
AcDbEntity
  8
0
 62
7
100
AcDbPolyline
 90
2
 70
0
 10
241.025680
 20
-79.152740
 30
0.0
 10
241.112040
 20
-79.038440
 30
0.0
  0
LWPOLYLINE
  5
1b4
100
AcDbEntity
  8
0
 62
7
100
AcDbPolyline
 90
2
 70
0
 10
240.974880
 20
-79.198460
 30
0.0
 10
241.025680
 20
-79.152740
 30
0.0
  0
LWPOLYLINE
  5
1b5
100
AcDbEntity
  8
0
 62
7
100
AcDbPolyline
 90
2
 70
0
 10
107.492800
 20
-79.269580
 30
0.0
 10
107.624880
 20
-79.198460
 30
0.0
  0
LWPOLYLINE
  5
1b6
100
AcDbEntity
  8
0
 62
7
100
AcDbPolyline
 90
2
 70
0
 10
107.322620
 20
-79.297520
 30
0.0
 10
107.492800
 20
-79.269580
 30
0.0
  0
LWPOLYLINE
  5
1b7
100
AcDbEntity
  8
0
 62
7
100
AcDbPolyline
 90
2
 70
0
 10
56.222900
 20
-79.297520
 30
0.0
 10
107.322620
 20
-79.297520
 30
0.0
  0
LWPOLYLINE
  5
1b8
100
AcDbEntity
  8
0
 62
7
100
AcDbPolyline
 90
2
 70
0
 10
56.134000
 20
-79.289900
 30
0.0
 10
56.222900
 20
-79.297520
 30
0.0
  0
LWPOLYLINE
  5
1b9
100
AcDbEntity
  8
0
 62
7
100
AcDbPolyline
 90
2
 70
0
 10
55.984140
 20
-79.239100
 30
0.0
 10
56.134000
 20
-79.289900
 30
0.0
  0
LWPOLYLINE
  5
1ba
100
AcDbEntity
  8
0
 62
7
100
AcDbPolyline
 90
2
 70
0
 10
55.869840
 20
-79.152740
 30
0.0
 10
55.984140
 20
-79.239100
 30
0.0
  0
LWPOLYLINE
  5
1bb
100
AcDbEntity
  8
0
 62
7
100
AcDbPolyline
 90
2
 70
0
 10
55.826660
 20
-79.101940
 30
0.0
 10
55.869840
 20
-79.152740
 30
0.0
  0
LWPOLYLINE
  5
1bc
100
AcDbEntity
  8
0
 62
7
100
AcDbPolyline
 90
2
 70
0
 10
55.755540
 20
-78.972400
 30
0.0
 10
55.826660
 20
-79.101940
 30
0.0
  0
LWPOLYLINE
  5
1bd
100
AcDbEntity
  8
0
 62
7
100
AcDbPolyline
 90
2
 70
0
 10
55.722520
 20
-78.799680
 30
0.0
 10
55.755540
 20
-78.972400
 30
0.0
  0
LWPOLYLINE
  5
1be
100
AcDbEntity
  8
0
 62
7
100
AcDbPolyline
 90
2
 70
0
 10
55.722520
 20
-65.797420
 30
0.0
 10
55.722520
 20
-78.799680
 30
0.0
  0
LWPOLYLINE
  5
1bf
100
AcDbEntity
  8
0
 62
7
100
AcDbPolyline
 90
2
 70
0
 10
55.730140
 20
-65.708520
 30
0.0
 10
55.722520
 20
-65.797420
 30
0.0
  0
LWPOLYLINE
  5
1c0
100
AcDbEntity
  8
0
 62
7
100
AcDbPolyline
 90
2
 70
0
 10
55.783480
 20
-65.561200
 30
0.0
 10
55.730140
 20
-65.708520
 30
0.0
  0
LWPOLYLINE
  5
1c1
100
AcDbEntity
  8
0
 62
7
100
AcDbPolyline
 90
2
 70
0
 10
55.869840
 20
-65.444360
 30
0.0
 10
55.783480
 20
-65.561200
 30
0.0
  0
LWPOLYLINE
  5
1c2
100
AcDbEntity
  8
0
 62
7
100
AcDbPolyline
 90
2
 70
0
 10
55.923180
 20
-65.398640
 30
0.0
 10
55.869840
 20
-65.444360
 30
0.0
  0
LWPOLYLINE
  5
1c3
100
AcDbEntity
  8
0
 62
7
100
AcDbPolyline
 90
2
 70
0
 10
56.052720
 20
-65.327520
 30
0.0
 10
55.923180
 20
-65.398640
 30
0.0
  0
LWPOLYLINE
  5
1c4
100
AcDbEntity
  8
0
 62
7
100
AcDbPolyline
 90
2
 70
0
 10
56.222900
 20
-65.299580
 30
0.0
 10
56.052720
 20
-65.327520
 30
0.0
  0
LWPOLYLINE
  5
1c5
100
AcDbEntity
  8
0
 62
7
100
AcDbPolyline
 90
2
 70
0
 10
82.542380
 20
-65.299580
 30
0.0
 10
56.222900
 20
-65.299580
 30
0.0
  0
LWPOLYLINE
  5
1c6
100
AcDbEntity
  8
0
 62
7
100
AcDbPolyline
 90
2
 70
0
 10
83.050380
 20
-64.707760
 30
0.0
 10
83.042760
 20
-64.799200
 30
0.0
  0
LWPOLYLINE
  5
1c7
100
AcDbEntity
  8
0
 62
7
100
AcDbPolyline
 90
2
 70
0
 10
83.101180
 20
-64.560440
 30
0.0
 10
83.050380
 20
-64.707760
 30
0.0
  0
LWPOLYLINE
  5
1c8
100
AcDbEntity
  8
0
 62
7
100
AcDbPolyline
 90
2
 70
0
 10
83.187540
 20
-64.446140
 30
0.0
 10
83.101180
 20
-64.560440
 30
0.0
  0
LWPOLYLINE
  5
1c9
100
AcDbEntity
  8
0
 62
7
100
AcDbPolyline
 90
2
 70
0
 10
83.240880
 20
-64.397880
 30
0.0
 10
83.187540
 20
-64.446140
 30
0.0
  0
LWPOLYLINE
  5
1ca
100
AcDbEntity
  8
0
 62
7
100
AcDbPolyline
 90
2
 70
0
 10
83.370420
 20
-64.329300
 30
0.0
 10
83.240880
 20
-64.397880
 30
0.0
  0
LWPOLYLINE
  5
1cb
100
AcDbEntity
  8
0
 62
7
100
AcDbPolyline
 90
2
 70
0
 10
83.543140
 20
-64.298820
 30
0.0
 10
83.370420
 20
-64.329300
 30
0.0
  0
LWPOLYLINE
  5
1cc
100
AcDbEntity
  8
0
 62
7
100
AcDbPolyline
 90
2
 70
0
 10
94.297500
 20
-64.298820
 30
0.0
 10
83.543140
 20
-64.298820
 30
0.0
  0
LWPOLYLINE
  5
1cd
100
AcDbEntity
  8
0
 62
7
100
AcDbPolyline
 90
2
 70
0
 10
94.386400
 20
-64.306440
 30
0.0
 10
94.297500
 20
-64.298820
 30
0.0
  0
LWPOLYLINE
  5
1ce
100
AcDbEntity
  8
0
 62
7
100
AcDbPolyline
 90
2
 70
0
 10
94.536260
 20
-64.357240
 30
0.0
 10
94.386400
 20
-64.306440
 30
0.0
  0
LWPOLYLINE
  5
1cf
100
AcDbEntity
  8
0
 62
7
100
AcDbPolyline
 90
2
 70
0
 10
94.650560
 20
-64.446140
 30
0.0
 10
94.536260
 20
-64.357240
 30
0.0
  0
LWPOLYLINE
  5
1d0
100
AcDbEntity
  8
0
 62
7
100
AcDbPolyline
 90
2
 70
0
 10
94.696280
 20
-64.496940
 30
0.0
 10
94.650560
 20
-64.446140
 30
0.0
  0
LWPOLYLINE
  5
1d1
100
AcDbEntity
  8
0
 62
7
100
AcDbPolyline
 90
2
 70
0
 10
94.767400
 20
-64.626480
 30
0.0
 10
94.696280
 20
-64.496940
 30
0.0
  0
LWPOLYLINE
  5
1d2
100
AcDbEntity
  8
0
 62
7
100
AcDbPolyline
 90
2
 70
0
 10
94.797880
 20
-64.799200
 30
0.0
 10
94.767400
 20
-64.626480
 30
0.0
  0
LWPOLYLINE
  5
1d3
100
AcDbEntity
  8
0
 62
7
100
AcDbPolyline
 90
2
 70
0
 10
107.322620
 20
-65.299580
 30
0.0
 10
95.298260
 20
-65.299580
 30
0.0
  0
LWPOLYLINE
  5
1d4
100
AcDbEntity
  8
0
 62
7
100
AcDbPolyline
 90
2
 70
0
 10
107.411520
 20
-65.307200
 30
0.0
 10
107.322620
 20
-65.299580
 30
0.0
  0
LWPOLYLINE
  5
1d5
100
AcDbEntity
  8
0
 62
7
100
AcDbPolyline
 90
2
 70
0
 10
107.561380
 20
-65.358000
 30
0.0
 10
107.411520
 20
-65.307200
 30
0.0
  0
LWPOLYLINE
  5
1d6
100
AcDbEntity
  8
0
 62
7
100
AcDbPolyline
 90
2
 70
0
 10
107.675680
 20
-65.444360
 30
0.0
 10
107.561380
 20
-65.358000
 30
0.0
  0
LWPOLYLINE
  5
1d7
100
AcDbEntity
  8
0
 62
7
100
AcDbPolyline
 90
2
 70
0
 10
107.721400
 20
-65.497700
 30
0.0
 10
107.675680
 20
-65.444360
 30
0.0
  0
LWPOLYLINE
  5
1d8
100
AcDbEntity
  8
0
 62
7
100
AcDbPolyline
 90
2
 70
0
 10
107.792520
 20
-65.627240
 30
0.0
 10
107.721400
 20
-65.497700
 30
0.0
  0
LWPOLYLINE
  5
1d9
100
AcDbEntity
  8
0
 62
7
100
AcDbPolyline
 90
2
 70
0
 10
107.823000
 20
-65.797420
 30
0.0
 10
107.792520
 20
-65.627240
 30
0.0
  0
LWPOLYLINE
  5
1da
100
AcDbEntity
  8
0
 62
7
100
AcDbPolyline
 90
2
 70
0
 10
107.823000
 20
-78.799680
 30
0.0
 10
107.823000
 20
-65.797420
 30
0.0
  0
LWPOLYLINE
  5
1db
100
AcDbEntity
  8
0
 62
7
100
AcDbPolyline
 90
2
 70
0
 10
107.815380
 20
-78.888580
 30
0.0
 10
107.823000
 20
-78.799680
 30
0.0
  0
LWPOLYLINE
  5
1dc
100
AcDbEntity
  8
0
 62
7
100
AcDbPolyline
 90
2
 70
0
 10
107.762040
 20
-79.038440
 30
0.0
 10
107.815380
 20
-78.888580
 30
0.0
  0
LWPOLYLINE
  5
1dd
100
AcDbEntity
  8
0
 62
7
100
AcDbPolyline
 90
2
 70
0
 10
107.675680
 20
-79.152740
 30
0.0
 10
107.762040
 20
-79.038440
 30
0.0
  0
LWPOLYLINE
  5
1de
100
AcDbEntity
  8
0
 62
7
100
AcDbPolyline
 90
2
 70
0
 10
107.624880
 20
-79.198460
 30
0.0
 10
107.675680
 20
-79.152740
 30
0.0
  0
LWPOLYLINE
  5
1df
100
AcDbEntity
  8
0
 62
7
100
AcDbPolyline
 90
2
 70
0
 10
243.850160
 20
-65.708520
 30
0.0
 10
243.842540
 20
-65.797420
 30
0.0
  0
LWPOLYLINE
  5
1e0
100
AcDbEntity
  8
0
 62
7
100
AcDbPolyline
 90
2
 70
0
 10
243.900960
 20
-65.561200
 30
0.0
 10
243.850160
 20
-65.708520
 30
0.0
  0
LWPOLYLINE
  5
1e1
100
AcDbEntity
  8
0
 62
7
100
AcDbPolyline
 90
2
 70
0
 10
243.987320
 20
-65.444360
 30
0.0
 10
243.900960
 20
-65.561200
 30
0.0
  0
LWPOLYLINE
  5
1e2
100
AcDbEntity
  8
0
 62
7
100
AcDbPolyline
 90
2
 70
0
 10
244.040660
 20
-65.398640
 30
0.0
 10
243.987320
 20
-65.444360
 30
0.0
  0
LWPOLYLINE
  5
1e3
100
AcDbEntity
  8
0
 62
7
100
AcDbPolyline
 90
2
 70
0
 10
244.172740
 20
-65.327520
 30
0.0
 10
244.040660
 20
-65.398640
 30
0.0
  0
LWPOLYLINE
  5
1e4
100
AcDbEntity
  8
0
 62
7
100
AcDbPolyline
 90
2
 70
0
 10
244.342920
 20
-65.299580
 30
0.0
 10
244.172740
 20
-65.327520
 30
0.0
  0
LWPOLYLINE
  5
1e5
100
AcDbEntity
  8
0
 62
7
100
AcDbPolyline
 90
2
 70
0
 10
259.722620
 20
-65.299580
 30
0.0
 10
244.342920
 20
-65.299580
 30
0.0
  0
LWPOLYLINE
  5
1e6
100
AcDbEntity
  8
0
 62
7
100
AcDbPolyline
 90
2
 70
0
 10
259.811520
 20
-65.307200
 30
0.0
 10
259.722620
 20
-65.299580
 30
0.0
  0
LWPOLYLINE
  5
1e7
100
AcDbEntity
  8
0
 62
7
100
AcDbPolyline
 90
2
 70
0
 10
259.961380
 20
-65.358000
 30
0.0
 10
259.811520
 20
-65.307200
 30
0.0
  0
LWPOLYLINE
  5
1e8
100
AcDbEntity
  8
0
 62
7
100
AcDbPolyline
 90
2
 70
0
 10
260.075680
 20
-65.444360
 30
0.0
 10
259.961380
 20
-65.358000
 30
0.0
  0
LWPOLYLINE
  5
1e9
100
AcDbEntity
  8
0
 62
7
100
AcDbPolyline
 90
2
 70
0
 10
260.121400
 20
-65.497700
 30
0.0
 10
260.075680
 20
-65.444360
 30
0.0
  0
LWPOLYLINE
  5
1ea
100
AcDbEntity
  8
0
 62
7
100
AcDbPolyline
 90
2
 70
0
 10
260.192520
 20
-65.627240
 30
0.0
 10
260.121400
 20
-65.497700
 30
0.0
  0
LWPOLYLINE
  5
1eb
100
AcDbEntity
  8
0
 62
7
100
AcDbPolyline
 90
2
 70
0
 10
260.223000
 20
-65.797420
 30
0.0
 10
260.192520
 20
-65.627240
 30
0.0
  0
LWPOLYLINE
  5
1ec
100
AcDbEntity
  8
0
 62
7
100
AcDbPolyline
 90
2
 70
0
 10
260.223000
 20
-78.799680
 30
0.0
 10
260.223000
 20
-65.797420
 30
0.0
  0
LWPOLYLINE
  5
1ed
100
AcDbEntity
  8
0
 62
7
100
AcDbPolyline
 90
2
 70
0
 10
260.215380
 20
-78.888580
 30
0.0
 10
260.223000
 20
-78.799680
 30
0.0
  0
LWPOLYLINE
  5
1ee
100
AcDbEntity
  8
0
 62
7
100
AcDbPolyline
 90
2
 70
0
 10
260.162040
 20
-79.038440
 30
0.0
 10
260.215380
 20
-78.888580
 30
0.0
  0
LWPOLYLINE
  5
1ef
100
AcDbEntity
  8
0
 62
7
100
AcDbPolyline
 90
2
 70
0
 10
260.075680
 20
-79.152740
 30
0.0
 10
260.162040
 20
-79.038440
 30
0.0
  0
LWPOLYLINE
  5
1f0
100
AcDbEntity
  8
0
 62
7
100
AcDbPolyline
 90
2
 70
0
 10
260.024880
 20
-79.198460
 30
0.0
 10
260.075680
 20
-79.152740
 30
0.0
  0
LWPOLYLINE
  5
1f1
100
AcDbEntity
  8
0
 62
7
100
AcDbPolyline
 90
2
 70
0
 10
259.892800
 20
-79.269580
 30
0.0
 10
260.024880
 20
-79.198460
 30
0.0
  0
LWPOLYLINE
  5
1f2
100
AcDbEntity
  8
0
 62
7
100
AcDbPolyline
 90
2
 70
0
 10
259.722620
 20
-79.297520
 30
0.0
 10
259.892800
 20
-79.269580
 30
0.0
  0
LWPOLYLINE
  5
1f3
100
AcDbEntity
  8
0
 62
7
100
AcDbPolyline
 90
2
 70
0
 10
244.342920
 20
-79.297520
 30
0.0
 10
259.722620
 20
-79.297520
 30
0.0
  0
LWPOLYLINE
  5
1f4
100
AcDbEntity
  8
0
 62
7
100
AcDbPolyline
 90
2
 70
0
 10
244.251480
 20
-79.289900
 30
0.0
 10
244.342920
 20
-79.297520
 30
0.0
  0
LWPOLYLINE
  5
1f5
100
AcDbEntity
  8
0
 62
7
100
AcDbPolyline
 90
2
 70
0
 10
244.104160
 20
-79.239100
 30
0.0
 10
244.251480
 20
-79.289900
 30
0.0
  0
LWPOLYLINE
  5
1f6
100
AcDbEntity
  8
0
 62
7
100
AcDbPolyline
 90
2
 70
0
 10
243.987320
 20
-79.152740
 30
0.0
 10
244.104160
 20
-79.239100
 30
0.0
  0
LWPOLYLINE
  5
1f7
100
AcDbEntity
  8
0
 62
7
100
AcDbPolyline
 90
2
 70
0
 10
243.944140
 20
-79.101940
 30
0.0
 10
243.987320
 20
-79.152740
 30
0.0
  0
LWPOLYLINE
  5
1f8
100
AcDbEntity
  8
0
 62
7
100
AcDbPolyline
 90
2
 70
0
 10
243.873020
 20
-78.972400
 30
0.0
 10
243.944140
 20
-79.101940
 30
0.0
  0
LWPOLYLINE
  5
1f9
100
AcDbEntity
  8
0
 62
7
100
AcDbPolyline
 90
2
 70
0
 10
243.842540
 20
-78.799680
 30
0.0
 10
243.873020
 20
-78.972400
 30
0.0
  0
LWPOLYLINE
  5
1fa
100
AcDbEntity
  8
0
 62
7
100
AcDbPolyline
 90
2
 70
0
 10
243.842540
 20
-65.797420
 30
0.0
 10
243.842540
 20
-78.799680
 30
0.0
  0
LWPOLYLINE
  5
1fb
100
AcDbEntity
  8
0
 62
7
100
AcDbPolyline
 90
2
 70
0
 10
36.776660
 20
-79.101940
 30
0.0
 10
36.819840
 20
-79.152740
 30
0.0
  0
LWPOLYLINE
  5
1fc
100
AcDbEntity
  8
0
 62
7
100
AcDbPolyline
 90
2
 70
0
 10
36.705540
 20
-78.972400
 30
0.0
 10
36.776660
 20
-79.101940
 30
0.0
  0
LWPOLYLINE
  5
1fd
100
AcDbEntity
  8
0
 62
7
100
AcDbPolyline
 90
2
 70
0
 10
36.672520
 20
-78.799680
 30
0.0
 10
36.705540
 20
-78.972400
 30
0.0
  0
LWPOLYLINE
  5
1fe
100
AcDbEntity
  8
0
 62
7
100
AcDbPolyline
 90
2
 70
0
 10
36.672520
 20
-65.797420
 30
0.0
 10
36.672520
 20
-78.799680
 30
0.0
  0
LWPOLYLINE
  5
1ff
100
AcDbEntity
  8
0
 62
7
100
AcDbPolyline
 90
2
 70
0
 10
36.680140
 20
-65.708520
 30
0.0
 10
36.672520
 20
-65.797420
 30
0.0
  0
LWPOLYLINE
  5
200
100
AcDbEntity
  8
0
 62
7
100
AcDbPolyline
 90
2
 70
0
 10
36.733480
 20
-65.561200
 30
0.0
 10
36.680140
 20
-65.708520
 30
0.0
  0
LWPOLYLINE
  5
201
100
AcDbEntity
  8
0
 62
7
100
AcDbPolyline
 90
2
 70
0
 10
36.819840
 20
-65.444360
 30
0.0
 10
36.733480
 20
-65.561200
 30
0.0
  0
LWPOLYLINE
  5
202
100
AcDbEntity
  8
0
 62
7
100
AcDbPolyline
 90
2
 70
0
 10
36.873180
 20
-65.398640
 30
0.0
 10
36.819840
 20
-65.444360
 30
0.0
  0
LWPOLYLINE
  5
203
100
AcDbEntity
  8
0
 62
7
100
AcDbPolyline
 90
2
 70
0
 10
37.002720
 20
-65.327520
 30
0.0
 10
36.873180
 20
-65.398640
 30
0.0
  0
LWPOLYLINE
  5
204
100
AcDbEntity
  8
0
 62
7
100
AcDbPolyline
 90
2
 70
0
 10
37.172900
 20
-65.299580
 30
0.0
 10
37.002720
 20
-65.327520
 30
0.0
  0
LWPOLYLINE
  5
205
100
AcDbEntity
  8
0
 62
7
100
AcDbPolyline
 90
2
 70
0
 10
52.555140
 20
-65.299580
 30
0.0
 10
37.172900
 20
-65.299580
 30
0.0
  0
LWPOLYLINE
  5
206
100
AcDbEntity
  8
0
 62
7
100
AcDbPolyline
 90
2
 70
0
 10
52.641500
 20
-65.307200
 30
0.0
 10
52.555140
 20
-65.299580
 30
0.0
  0
LWPOLYLINE
  5
207
100
AcDbEntity
  8
0
 62
7
100
AcDbPolyline
 90
2
 70
0
 10
52.791360
 20
-65.358000
 30
0.0
 10
52.641500
 20
-65.307200
 30
0.0
  0
LWPOLYLINE
  5
208
100
AcDbEntity
  8
0
 62
7
100
AcDbPolyline
 90
2
 70
0
 10
52.908200
 20
-65.444360
 30
0.0
 10
52.791360
 20
-65.358000
 30
0.0
  0
LWPOLYLINE
  5
209
100
AcDbEntity
  8
0
 62
7
100
AcDbPolyline
 90
2
 70
0
 10
52.953920
 20
-65.497700
 30
0.0
 10
52.908200
 20
-65.444360
 30
0.0
  0
LWPOLYLINE
  5
20a
100
AcDbEntity
  8
0
 62
7
100
AcDbPolyline
 90
2
 70
0
 10
53.025040
 20
-65.627240
 30
0.0
 10
52.953920
 20
-65.497700
 30
0.0
  0
LWPOLYLINE
  5
20b
100
AcDbEntity
  8
0
 62
7
100
AcDbPolyline
 90
2
 70
0
 10
53.055520
 20
-65.797420
 30
0.0
 10
53.025040
 20
-65.627240
 30
0.0
  0
LWPOLYLINE
  5
20c
100
AcDbEntity
  8
0
 62
7
100
AcDbPolyline
 90
2
 70
0
 10
53.055520
 20
-78.799680
 30
0.0
 10
53.055520
 20
-65.797420
 30
0.0
  0
LWPOLYLINE
  5
20d
100
AcDbEntity
  8
0
 62
7
100
AcDbPolyline
 90
2
 70
0
 10
53.045360
 20
-78.888580
 30
0.0
 10
53.055520
 20
-78.799680
 30
0.0
  0
LWPOLYLINE
  5
20e
100
AcDbEntity
  8
0
 62
7
100
AcDbPolyline
 90
2
 70
0
 10
52.994560
 20
-79.038440
 30
0.0
 10
53.045360
 20
-78.888580
 30
0.0
  0
LWPOLYLINE
  5
20f
100
AcDbEntity
  8
0
 62
7
100
AcDbPolyline
 90
2
 70
0
 10
52.908200
 20
-79.152740
 30
0.0
 10
52.994560
 20
-79.038440
 30
0.0
  0
LWPOLYLINE
  5
210
100
AcDbEntity
  8
0
 62
7
100
AcDbPolyline
 90
2
 70
0
 10
52.854860
 20
-79.198460
 30
0.0
 10
52.908200
 20
-79.152740
 30
0.0
  0
LWPOLYLINE
  5
211
100
AcDbEntity
  8
0
 62
7
100
AcDbPolyline
 90
2
 70
0
 10
52.725320
 20
-79.269580
 30
0.0
 10
52.854860
 20
-79.198460
 30
0.0
  0
LWPOLYLINE
  5
212
100
AcDbEntity
  8
0
 62
7
100
AcDbPolyline
 90
2
 70
0
 10
52.555140
 20
-79.297520
 30
0.0
 10
52.725320
 20
-79.269580
 30
0.0
  0
LWPOLYLINE
  5
213
100
AcDbEntity
  8
0
 62
7
100
AcDbPolyline
 90
2
 70
0
 10
37.172900
 20
-79.297520
 30
0.0
 10
52.555140
 20
-79.297520
 30
0.0
  0
LWPOLYLINE
  5
214
100
AcDbEntity
  8
0
 62
7
100
AcDbPolyline
 90
2
 70
0
 10
37.084000
 20
-79.289900
 30
0.0
 10
37.172900
 20
-79.297520
 30
0.0
  0
LWPOLYLINE
  5
215
100
AcDbEntity
  8
0
 62
7
100
AcDbPolyline
 90
2
 70
0
 10
36.934140
 20
-79.239100
 30
0.0
 10
37.084000
 20
-79.289900
 30
0.0
  0
SPLINE
  5
216
100
AcDbEntity
  8
0
 62
7
100
AcDbSpline
 70
8
 71
3
 72
8
 73
4
 74
0
 40
0
 40
0
 40
0
 40
0
 40
1
 40
1
 40
1
 40
1
 10
216.862406
 20
-60.250314
 30
0.0
 10
216.995014
 20
-60.250348
 30
0.0
 10
217.122204
 20
-60.197702
 30
0.0
 10
217.215996
 20
-60.103957
 30
0.0
  0
SPLINE
  5
217
100
AcDbEntity
  8
0
 62
7
100
AcDbSpline
 70
8
 71
3
 72
8
 73
4
 74
0
 40
0
 40
0
 40
0
 40
0
 40
1
 40
1
 40
1
 40
1
 10
217.215996
 20
-60.103957
 30
0.0
 10
217.309788
 20
-60.010213
 30
0.0
 10
217.362498
 20
-59.883050
 30
0.0
 10
217.362532
 20
-59.750442
 30
0.0
  0
SPLINE
  5
218
100
AcDbEntity
  8
0
 62
7
100
AcDbSpline
 70
8
 71
3
 72
8
 73
4
 74
0
 40
0
 40
0
 40
0
 40
0
 40
1
 40
1
 40
1
 40
1
 10
203.362560
 20
-59.750442
 30
0.0
 10
203.362630
 20
-60.026484
 30
0.0
 10
203.586389
 20
-60.250244
 30
0.0
 10
203.862432
 20
-60.250314
 30
0.0
  0
SPLINE
  5
219
100
AcDbEntity
  8
0
 62
7
100
AcDbSpline
 70
8
 71
3
 72
8
 73
4
 74
0
 40
0
 40
0
 40
0
 40
0
 40
1
 40
1
 40
1
 40
1
 10
203.862432
 20
-46.250342
 30
0.0
 10
203.729824
 20
-46.250376
 30
0.0
 10
203.602661
 20
-46.303086
 30
0.0
 10
203.508917
 20
-46.396878
 30
0.0
  0
SPLINE
  5
21a
100
AcDbEntity
  8
0
 62
7
100
AcDbSpline
 70
8
 71
3
 72
8
 73
4
 74
0
 40
0
 40
0
 40
0
 40
0
 40
1
 40
1
 40
1
 40
1
 10
203.508917
 20
-46.396878
 30
0.0
 10
203.415172
 20
-46.490670
 30
0.0
 10
203.362526
 20
-46.617860
 30
0.0
 10
203.362560
 20
-46.750468
 30
0.0
  0
SPLINE
  5
21b
100
AcDbEntity
  8
0
 62
7
100
AcDbSpline
 70
8
 71
3
 72
8
 73
4
 74
0
 40
0
 40
0
 40
0
 40
0
 40
1
 40
1
 40
1
 40
1
 10
217.362532
 20
-46.750468
 30
0.0
 10
217.362566
 20
-46.617816
 30
0.0
 10
217.309885
 20
-46.490587
 30
0.0
 10
217.216086
 20
-46.396788
 30
0.0
  0
SPLINE
  5
21c
100
AcDbEntity
  8
0
 62
7
100
AcDbSpline
 70
8
 71
3
 72
8
 73
4
 74
0
 40
0
 40
0
 40
0
 40
0
 40
1
 40
1
 40
1
 40
1
 10
217.216086
 20
-46.396788
 30
0.0
 10
217.122287
 20
-46.302989
 30
0.0
 10
216.995058
 20
-46.250308
 30
0.0
 10
216.862406
 20
-46.250342
 30
0.0
  0
LWPOLYLINE
  5
21d
100
AcDbEntity
  8
0
 62
7
100
AcDbPolyline
 90
2
 70
0
 10
36.819840
 20
-79.152740
 30
0.0
 10
36.934140
 20
-79.239100
 30
0.0
  0
LWPOLYLINE
  5
21e
100
AcDbEntity
  8
0
 62
7
100
AcDbPolyline
 90
2
 70
0
 10
217.360500
 20
-59.749680
 30
0.0
 10
217.360500
 20
-46.749960
 30
0.0
  0
LWPOLYLINE
  5
21f
100
AcDbEntity
  8
0
 62
7
100
AcDbPolyline
 90
2
 70
0
 10
203.860400
 20
-60.250060
 30
0.0
 10
216.860120
 20
-60.250060
 30
0.0
  0
LWPOLYLINE
  5
220
100
AcDbEntity
  8
0
 62
7
100
AcDbPolyline
 90
2
 70
0
 10
203.360020
 20
-46.749960
 30
0.0
 10
203.360020
 20
-59.749680
 30
0.0
  0
SPLINE
  5
221
100
AcDbEntity
  8
0
 62
7
100
AcDbSpline
 70
8
 71
3
 72
8
 73
4
 74
0
 40
0
 40
0
 40
0
 40
0
 40
1
 40
1
 40
1
 40
1
 10
226.387406
 20
-41.200314
 30
0.0
 10
226.520014
 20
-41.200348
 30
0.0
 10
226.647204
 20
-41.147702
 30
0.0
 10
226.740996
 20
-41.053957
 30
0.0
  0
SPLINE
  5
222
100
AcDbEntity
  8
0
 62
7
100
AcDbSpline
 70
8
 71
3
 72
8
 73
4
 74
0
 40
0
 40
0
 40
0
 40
0
 40
1
 40
1
 40
1
 40
1
 10
226.740996
 20
-41.053957
 30
0.0
 10
226.834788
 20
-40.960213
 30
0.0
 10
226.887498
 20
-40.833050
 30
0.0
 10
226.887532
 20
-40.700442
 30
0.0
  0
SPLINE
  5
223
100
AcDbEntity
  8
0
 62
7
100
AcDbSpline
 70
8
 71
3
 72
8
 73
4
 74
0
 40
0
 40
0
 40
0
 40
0
 40
1
 40
1
 40
1
 40
1
 10
212.887560
 20
-40.700442
 30
0.0
 10
212.887630
 20
-40.976484
 30
0.0
 10
213.111389
 20
-41.200244
 30
0.0
 10
213.387432
 20
-41.200314
 30
0.0
  0
SPLINE
  5
224
100
AcDbEntity
  8
0
 62
7
100
AcDbSpline
 70
8
 71
3
 72
8
 73
4
 74
0
 40
0
 40
0
 40
0
 40
0
 40
1
 40
1
 40
1
 40
1
 10
213.387432
 20
-27.200342
 30
0.0
 10
213.254824
 20
-27.200376
 30
0.0
 10
213.127661
 20
-27.253086
 30
0.0
 10
213.033917
 20
-27.346878
 30
0.0
  0
SPLINE
  5
225
100
AcDbEntity
  8
0
 62
7
100
AcDbSpline
 70
8
 71
3
 72
8
 73
4
 74
0
 40
0
 40
0
 40
0
 40
0
 40
1
 40
1
 40
1
 40
1
 10
213.033917
 20
-27.346878
 30
0.0
 10
212.940172
 20
-27.440670
 30
0.0
 10
212.887526
 20
-27.567860
 30
0.0
 10
212.887560
 20
-27.700468
 30
0.0
  0
SPLINE
  5
226
100
AcDbEntity
  8
0
 62
7
100
AcDbSpline
 70
8
 71
3
 72
8
 73
4
 74
0
 40
0
 40
0
 40
0
 40
0
 40
1
 40
1
 40
1
 40
1
 10
226.887532
 20
-27.700468
 30
0.0
 10
226.887566
 20
-27.567816
 30
0.0
 10
226.834885
 20
-27.440587
 30
0.0
 10
226.741086
 20
-27.346788
 30
0.0
  0
SPLINE
  5
227
100
AcDbEntity
  8
0
 62
7
100
AcDbSpline
 70
8
 71
3
 72
8
 73
4
 74
0
 40
0
 40
0
 40
0
 40
0
 40
1
 40
1
 40
1
 40
1
 10
226.741086
 20
-27.346788
 30
0.0
 10
226.647287
 20
-27.252989
 30
0.0
 10
226.520058
 20
-27.200308
 30
0.0
 10
226.387406
 20
-27.200342
 30
0.0
  0
LWPOLYLINE
  5
228
100
AcDbEntity
  8
0
 62
7
100
AcDbPolyline
 90
2
 70
0
 10
216.860120
 20
-46.249580
 30
0.0
 10
203.860400
 20
-46.249580
 30
0.0
  0
LWPOLYLINE
  5
229
100
AcDbEntity
  8
0
 62
7
100
AcDbPolyline
 90
2
 70
0
 10
226.885500
 20
-40.699680
 30
0.0
 10
226.885500
 20
-27.699960
 30
0.0
  0
LWPOLYLINE
  5
22a
100
AcDbEntity
  8
0
 62
7
100
AcDbPolyline
 90
2
 70
0
 10
213.385400
 20
-41.200060
 30
0.0
 10
226.385120
 20
-41.200060
 30
0.0
  0
LWPOLYLINE
  5
22b
100
AcDbEntity
  8
0
 62
7
100
AcDbPolyline
 90
2
 70
0
 10
212.885020
 20
-27.699960
 30
0.0
 10
212.885020
 20
-40.699680
 30
0.0
  0
SPLINE
  5
22c
100
AcDbEntity
  8
0
 62
7
100
AcDbSpline
 70
8
 71
3
 72
8
 73
4
 74
0
 40
0
 40
0
 40
0
 40
0
 40
1
 40
1
 40
1
 40
1
 10
197.812406
 20
-60.250314
 30
0.0
 10
197.945014
 20
-60.250348
 30
0.0
 10
198.072204
 20
-60.197702
 30
0.0
 10
198.165996
 20
-60.103957
 30
0.0
  0
SPLINE
  5
22d
100
AcDbEntity
  8
0
 62
7
100
AcDbSpline
 70
8
 71
3
 72
8
 73
4
 74
0
 40
0
 40
0
 40
0
 40
0
 40
1
 40
1
 40
1
 40
1
 10
198.165996
 20
-60.103957
 30
0.0
 10
198.259788
 20
-60.010213
 30
0.0
 10
198.312498
 20
-59.883050
 30
0.0
 10
198.312532
 20
-59.750442
 30
0.0
  0
SPLINE
  5
22e
100
AcDbEntity
  8
0
 62
7
100
AcDbSpline
 70
8
 71
3
 72
8
 73
4
 74
0
 40
0
 40
0
 40
0
 40
0
 40
1
 40
1
 40
1
 40
1
 10
184.312560
 20
-59.750442
 30
0.0
 10
184.312630
 20
-60.026484
 30
0.0
 10
184.536389
 20
-60.250244
 30
0.0
 10
184.812432
 20
-60.250314
 30
0.0
  0
SPLINE
  5
22f
100
AcDbEntity
  8
0
 62
7
100
AcDbSpline
 70
8
 71
3
 72
8
 73
4
 74
0
 40
0
 40
0
 40
0
 40
0
 40
1
 40
1
 40
1
 40
1
 10
184.812432
 20
-46.250342
 30
0.0
 10
184.679824
 20
-46.250376
 30
0.0
 10
184.552661
 20
-46.303086
 30
0.0
 10
184.458917
 20
-46.396878
 30
0.0
  0
SPLINE
  5
230
100
AcDbEntity
  8
0
 62
7
100
AcDbSpline
 70
8
 71
3
 72
8
 73
4
 74
0
 40
0
 40
0
 40
0
 40
0
 40
1
 40
1
 40
1
 40
1
 10
184.458917
 20
-46.396878
 30
0.0
 10
184.365172
 20
-46.490670
 30
0.0
 10
184.312526
 20
-46.617860
 30
0.0
 10
184.312560
 20
-46.750468
 30
0.0
  0
SPLINE
  5
231
100
AcDbEntity
  8
0
 62
7
100
AcDbSpline
 70
8
 71
3
 72
8
 73
4
 74
0
 40
0
 40
0
 40
0
 40
0
 40
1
 40
1
 40
1
 40
1
 10
198.312532
 20
-46.750468
 30
0.0
 10
198.312566
 20
-46.617816
 30
0.0
 10
198.259885
 20
-46.490587
 30
0.0
 10
198.166086
 20
-46.396788
 30
0.0
  0
SPLINE
  5
232
100
AcDbEntity
  8
0
 62
7
100
AcDbSpline
 70
8
 71
3
 72
8
 73
4
 74
0
 40
0
 40
0
 40
0
 40
0
 40
1
 40
1
 40
1
 40
1
 10
198.166086
 20
-46.396788
 30
0.0
 10
198.072287
 20
-46.302989
 30
0.0
 10
197.945058
 20
-46.250308
 30
0.0
 10
197.812406
 20
-46.250342
 30
0.0
  0
LWPOLYLINE
  5
233
100
AcDbEntity
  8
0
 62
7
100
AcDbPolyline
 90
2
 70
0
 10
226.385120
 20
-27.199580
 30
0.0
 10
213.385400
 20
-27.199580
 30
0.0
  0
LWPOLYLINE
  5
234
100
AcDbEntity
  8
0
 62
7
100
AcDbPolyline
 90
2
 70
0
 10
198.310500
 20
-59.749680
 30
0.0
 10
198.310500
 20
-46.749960
 30
0.0
  0
LWPOLYLINE
  5
235
100
AcDbEntity
  8
0
 62
7
100
AcDbPolyline
 90
2
 70
0
 10
184.810400
 20
-60.250060
 30
0.0
 10
197.810120
 20
-60.250060
 30
0.0
  0
LWPOLYLINE
  5
236
100
AcDbEntity
  8
0
 62
7
100
AcDbPolyline
 90
2
 70
0
 10
184.310020
 20
-46.749960
 30
0.0
 10
184.310020
 20
-59.749680
 30
0.0
  0
SPLINE
  5
237
100
AcDbEntity
  8
0
 62
7
100
AcDbSpline
 70
8
 71
3
 72
8
 73
4
 74
0
 40
0
 40
0
 40
0
 40
0
 40
1
 40
1
 40
1
 40
1
 10
178.762406
 20
-60.250314
 30
0.0
 10
178.895014
 20
-60.250348
 30
0.0
 10
179.022204
 20
-60.197702
 30
0.0
 10
179.115996
 20
-60.103957
 30
0.0
  0
SPLINE
  5
238
100
AcDbEntity
  8
0
 62
7
100
AcDbSpline
 70
8
 71
3
 72
8
 73
4
 74
0
 40
0
 40
0
 40
0
 40
0
 40
1
 40
1
 40
1
 40
1
 10
179.115996
 20
-60.103957
 30
0.0
 10
179.209788
 20
-60.010213
 30
0.0
 10
179.262498
 20
-59.883050
 30
0.0
 10
179.262532
 20
-59.750442
 30
0.0
  0
SPLINE
  5
239
100
AcDbEntity
  8
0
 62
7
100
AcDbSpline
 70
8
 71
3
 72
8
 73
4
 74
0
 40
0
 40
0
 40
0
 40
0
 40
1
 40
1
 40
1
 40
1
 10
165.262560
 20
-59.750442
 30
0.0
 10
165.262630
 20
-60.026484
 30
0.0
 10
165.486389
 20
-60.250244
 30
0.0
 10
165.762432
 20
-60.250314
 30
0.0
  0
SPLINE
  5
23a
100
AcDbEntity
  8
0
 62
7
100
AcDbSpline
 70
8
 71
3
 72
8
 73
4
 74
0
 40
0
 40
0
 40
0
 40
0
 40
1
 40
1
 40
1
 40
1
 10
165.762432
 20
-46.250342
 30
0.0
 10
165.629824
 20
-46.250376
 30
0.0
 10
165.502661
 20
-46.303086
 30
0.0
 10
165.408917
 20
-46.396878
 30
0.0
  0
SPLINE
  5
23b
100
AcDbEntity
  8
0
 62
7
100
AcDbSpline
 70
8
 71
3
 72
8
 73
4
 74
0
 40
0
 40
0
 40
0
 40
0
 40
1
 40
1
 40
1
 40
1
 10
165.408917
 20
-46.396878
 30
0.0
 10
165.315172
 20
-46.490670
 30
0.0
 10
165.262526
 20
-46.617860
 30
0.0
 10
165.262560
 20
-46.750468
 30
0.0
  0
SPLINE
  5
23c
100
AcDbEntity
  8
0
 62
7
100
AcDbSpline
 70
8
 71
3
 72
8
 73
4
 74
0
 40
0
 40
0
 40
0
 40
0
 40
1
 40
1
 40
1
 40
1
 10
179.262532
 20
-46.750468
 30
0.0
 10
179.262566
 20
-46.617816
 30
0.0
 10
179.209885
 20
-46.490587
 30
0.0
 10
179.116086
 20
-46.396788
 30
0.0
  0
SPLINE
  5
23d
100
AcDbEntity
  8
0
 62
7
100
AcDbSpline
 70
8
 71
3
 72
8
 73
4
 74
0
 40
0
 40
0
 40
0
 40
0
 40
1
 40
1
 40
1
 40
1
 10
179.116086
 20
-46.396788
 30
0.0
 10
179.022287
 20
-46.302989
 30
0.0
 10
178.895058
 20
-46.250308
 30
0.0
 10
178.762406
 20
-46.250342
 30
0.0
  0
LWPOLYLINE
  5
23e
100
AcDbEntity
  8
0
 62
7
100
AcDbPolyline
 90
2
 70
0
 10
197.810120
 20
-46.249580
 30
0.0
 10
184.810400
 20
-46.249580
 30
0.0
  0
LWPOLYLINE
  5
23f
100
AcDbEntity
  8
0
 62
7
100
AcDbPolyline
 90
2
 70
0
 10
179.260500
 20
-59.749680
 30
0.0
 10
179.260500
 20
-46.749960
 30
0.0
  0
LWPOLYLINE
  5
240
100
AcDbEntity
  8
0
 62
7
100
AcDbPolyline
 90
2
 70
0
 10
165.760400
 20
-60.250060
 30
0.0
 10
178.760120
 20
-60.250060
 30
0.0
  0
LWPOLYLINE
  5
241
100
AcDbEntity
  8
0
 62
7
100
AcDbPolyline
 90
2
 70
0
 10
165.260020
 20
-46.749960
 30
0.0
 10
165.260020
 20
-59.749680
 30
0.0
  0
SPLINE
  5
242
100
AcDbEntity
  8
0
 62
7
100
AcDbSpline
 70
8
 71
3
 72
8
 73
4
 74
0
 40
0
 40
0
 40
0
 40
0
 40
1
 40
1
 40
1
 40
1
 10
235.912406
 20
-60.250314
 30
0.0
 10
236.045014
 20
-60.250348
 30
0.0
 10
236.172204
 20
-60.197702
 30
0.0
 10
236.265996
 20
-60.103957
 30
0.0
  0
SPLINE
  5
243
100
AcDbEntity
  8
0
 62
7
100
AcDbSpline
 70
8
 71
3
 72
8
 73
4
 74
0
 40
0
 40
0
 40
0
 40
0
 40
1
 40
1
 40
1
 40
1
 10
236.265996
 20
-60.103957
 30
0.0
 10
236.359788
 20
-60.010213
 30
0.0
 10
236.412498
 20
-59.883050
 30
0.0
 10
236.412532
 20
-59.750442
 30
0.0
  0
SPLINE
  5
244
100
AcDbEntity
  8
0
 62
7
100
AcDbSpline
 70
8
 71
3
 72
8
 73
4
 74
0
 40
0
 40
0
 40
0
 40
0
 40
1
 40
1
 40
1
 40
1
 10
222.412560
 20
-59.750442
 30
0.0
 10
222.412630
 20
-60.026484
 30
0.0
 10
222.636389
 20
-60.250244
 30
0.0
 10
222.912432
 20
-60.250314
 30
0.0
  0
SPLINE
  5
245
100
AcDbEntity
  8
0
 62
7
100
AcDbSpline
 70
8
 71
3
 72
8
 73
4
 74
0
 40
0
 40
0
 40
0
 40
0
 40
1
 40
1
 40
1
 40
1
 10
222.912432
 20
-46.250342
 30
0.0
 10
222.779824
 20
-46.250376
 30
0.0
 10
222.652661
 20
-46.303086
 30
0.0
 10
222.558917
 20
-46.396878
 30
0.0
  0
SPLINE
  5
246
100
AcDbEntity
  8
0
 62
7
100
AcDbSpline
 70
8
 71
3
 72
8
 73
4
 74
0
 40
0
 40
0
 40
0
 40
0
 40
1
 40
1
 40
1
 40
1
 10
222.558917
 20
-46.396878
 30
0.0
 10
222.465172
 20
-46.490670
 30
0.0
 10
222.412526
 20
-46.617860
 30
0.0
 10
222.412560
 20
-46.750468
 30
0.0
  0
SPLINE
  5
247
100
AcDbEntity
  8
0
 62
7
100
AcDbSpline
 70
8
 71
3
 72
8
 73
4
 74
0
 40
0
 40
0
 40
0
 40
0
 40
1
 40
1
 40
1
 40
1
 10
236.412532
 20
-46.750468
 30
0.0
 10
236.412566
 20
-46.617816
 30
0.0
 10
236.359885
 20
-46.490587
 30
0.0
 10
236.266086
 20
-46.396788
 30
0.0
  0
SPLINE
  5
248
100
AcDbEntity
  8
0
 62
7
100
AcDbSpline
 70
8
 71
3
 72
8
 73
4
 74
0
 40
0
 40
0
 40
0
 40
0
 40
1
 40
1
 40
1
 40
1
 10
236.266086
 20
-46.396788
 30
0.0
 10
236.172287
 20
-46.302989
 30
0.0
 10
236.045058
 20
-46.250308
 30
0.0
 10
235.912406
 20
-46.250342
 30
0.0
  0
LWPOLYLINE
  5
249
100
AcDbEntity
  8
0
 62
7
100
AcDbPolyline
 90
2
 70
0
 10
178.760120
 20
-46.249580
 30
0.0
 10
165.760400
 20
-46.249580
 30
0.0
  0
LWPOLYLINE
  5
24a
100
AcDbEntity
  8
0
 62
7
100
AcDbPolyline
 90
2
 70
0
 10
236.410500
 20
-59.749680
 30
0.0
 10
236.410500
 20
-46.749960
 30
0.0
  0
LWPOLYLINE
  5
24b
100
AcDbEntity
  8
0
 62
7
100
AcDbPolyline
 90
2
 70
0
 10
222.910400
 20
-60.250060
 30
0.0
 10
235.910120
 20
-60.250060
 30
0.0
  0
LWPOLYLINE
  5
24c
100
AcDbEntity
  8
0
 62
7
100
AcDbPolyline
 90
2
 70
0
 10
222.410020
 20
-46.749960
 30
0.0
 10
222.410020
 20
-59.749680
 30
0.0
  0
LWPOLYLINE
  5
24d
100
AcDbEntity
  8
0
 62
7
100
AcDbPolyline
 90
2
 70
0
 10
235.910120
 20
-46.249580
 30
0.0
 10
222.910400
 20
-46.249580
 30
0.0
  0
LWPOLYLINE
  5
24e
100
AcDbEntity
  8
0
 62
7
100
AcDbPolyline
 90
2
 70
0
 10
252.580140
 20
-27.199580
 30
0.0
 10
239.580420
 20
-27.199580
 30
0.0
  0
LWPOLYLINE
  5
24f
100
AcDbEntity
  8
0
 62
7
100
AcDbPolyline
 90
2
 70
0
 10
239.080040
 20
-27.699960
 30
0.0
 10
239.080040
 20
-40.699680
 30
0.0
  0
LWPOLYLINE
  5
250
100
AcDbEntity
  8
0
 62
7
100
AcDbPolyline
 90
2
 70
0
 10
239.580420
 20
-41.200060
 30
0.0
 10
252.580140
 20
-41.200060
 30
0.0
  0
SPLINE
  5
251
100
AcDbEntity
  8
0
 62
7
100
AcDbSpline
 70
8
 71
3
 72
8
 73
4
 74
0
 40
0
 40
0
 40
0
 40
0
 40
1
 40
1
 40
1
 40
1
 10
253.081282
 20
-27.700468
 30
0.0
 10
253.081316
 20
-27.567816
 30
0.0
 10
253.028635
 20
-27.440587
 30
0.0
 10
252.934836
 20
-27.346788
 30
0.0
  0
SPLINE
  5
252
100
AcDbEntity
  8
0
 62
7
100
AcDbSpline
 70
8
 71
3
 72
8
 73
4
 74
0
 40
0
 40
0
 40
0
 40
0
 40
1
 40
1
 40
1
 40
1
 10
252.934836
 20
-27.346788
 30
0.0
 10
252.841037
 20
-27.252989
 30
0.0
 10
252.713808
 20
-27.200308
 30
0.0
 10
252.581156
 20
-27.200342
 30
0.0
  0
SPLINE
  5
253
100
AcDbEntity
  8
0
 62
7
100
AcDbSpline
 70
8
 71
3
 72
8
 73
4
 74
0
 40
0
 40
0
 40
0
 40
0
 40
1
 40
1
 40
1
 40
1
 10
239.581182
 20
-27.200342
 30
0.0
 10
239.448574
 20
-27.200376
 30
0.0
 10
239.321411
 20
-27.253086
 30
0.0
 10
239.227667
 20
-27.346878
 30
0.0
  0
SPLINE
  5
254
100
AcDbEntity
  8
0
 62
7
100
AcDbSpline
 70
8
 71
3
 72
8
 73
4
 74
0
 40
0
 40
0
 40
0
 40
0
 40
1
 40
1
 40
1
 40
1
 10
239.227667
 20
-27.346878
 30
0.0
 10
239.133922
 20
-27.440670
 30
0.0
 10
239.081276
 20
-27.567860
 30
0.0
 10
239.081310
 20
-27.700468
 30
0.0
  0
SPLINE
  5
255
100
AcDbEntity
  8
0
 62
7
100
AcDbSpline
 70
8
 71
3
 72
8
 73
4
 74
0
 40
0
 40
0
 40
0
 40
0
 40
1
 40
1
 40
1
 40
1
 10
239.081310
 20
-40.700442
 30
0.0
 10
239.081380
 20
-40.976484
 30
0.0
 10
239.305139
 20
-41.200244
 30
0.0
 10
239.581182
 20
-41.200314
 30
0.0
  0
SPLINE
  5
256
100
AcDbEntity
  8
0
 62
7
100
AcDbSpline
 70
8
 71
3
 72
8
 73
4
 74
0
 40
0
 40
0
 40
0
 40
0
 40
1
 40
1
 40
1
 40
1
 10
252.581156
 20
-41.200314
 30
0.0
 10
252.713764
 20
-41.200348
 30
0.0
 10
252.840954
 20
-41.147702
 30
0.0
 10
252.934746
 20
-41.053957
 30
0.0
  0
SPLINE
  5
257
100
AcDbEntity
  8
0
 62
7
100
AcDbSpline
 70
8
 71
3
 72
8
 73
4
 74
0
 40
0
 40
0
 40
0
 40
0
 40
1
 40
1
 40
1
 40
1
 10
252.934746
 20
-41.053957
 30
0.0
 10
253.028538
 20
-40.960213
 30
0.0
 10
253.081248
 20
-40.833050
 30
0.0
 10
253.081282
 20
-40.700442
 30
0.0
  0
LWPOLYLINE
  5
258
100
AcDbEntity
  8
0
 62
7
100
AcDbPolyline
 90
2
 70
0
 10
253.080520
 20
-40.699680
 30
0.0
 10
253.080520
 20
-27.699960
 30
0.0
  0
LWPOLYLINE
  5
259
100
AcDbEntity
  8
0
 62
7
100
AcDbPolyline
 90
2
 70
0
 10
159.710120
 20
-46.249580
 30
0.0
 10
146.710400
 20
-46.249580
 30
0.0
  0
LWPOLYLINE
  5
25a
100
AcDbEntity
  8
0
 62
7
100
AcDbPolyline
 90
2
 70
0
 10
146.210020
 20
-46.749960
 30
0.0
 10
146.210020
 20
-59.749680
 30
0.0
  0
LWPOLYLINE
  5
25b
100
AcDbEntity
  8
0
 62
7
100
AcDbPolyline
 90
2
 70
0
 10
146.710400
 20
-60.250060
 30
0.0
 10
159.710120
 20
-60.250060
 30
0.0
  0
SPLINE
  5
25c
100
AcDbEntity
  8
0
 62
7
100
AcDbSpline
 70
8
 71
3
 72
8
 73
4
 74
0
 40
0
 40
0
 40
0
 40
0
 40
1
 40
1
 40
1
 40
1
 10
160.212532
 20
-46.750468
 30
0.0
 10
160.212566
 20
-46.617816
 30
0.0
 10
160.159885
 20
-46.490587
 30
0.0
 10
160.066086
 20
-46.396788
 30
0.0
  0
SPLINE
  5
25d
100
AcDbEntity
  8
0
 62
7
100
AcDbSpline
 70
8
 71
3
 72
8
 73
4
 74
0
 40
0
 40
0
 40
0
 40
0
 40
1
 40
1
 40
1
 40
1
 10
160.066086
 20
-46.396788
 30
0.0
 10
159.972287
 20
-46.302989
 30
0.0
 10
159.845058
 20
-46.250308
 30
0.0
 10
159.712406
 20
-46.250342
 30
0.0
  0
SPLINE
  5
25e
100
AcDbEntity
  8
0
 62
7
100
AcDbSpline
 70
8
 71
3
 72
8
 73
4
 74
0
 40
0
 40
0
 40
0
 40
0
 40
1
 40
1
 40
1
 40
1
 10
146.712432
 20
-46.250342
 30
0.0
 10
146.579824
 20
-46.250376
 30
0.0
 10
146.452661
 20
-46.303086
 30
0.0
 10
146.358917
 20
-46.396878
 30
0.0
  0
SPLINE
  5
25f
100
AcDbEntity
  8
0
 62
7
100
AcDbSpline
 70
8
 71
3
 72
8
 73
4
 74
0
 40
0
 40
0
 40
0
 40
0
 40
1
 40
1
 40
1
 40
1
 10
146.358917
 20
-46.396878
 30
0.0
 10
146.265172
 20
-46.490670
 30
0.0
 10
146.212526
 20
-46.617860
 30
0.0
 10
146.212560
 20
-46.750468
 30
0.0
  0
SPLINE
  5
260
100
AcDbEntity
  8
0
 62
7
100
AcDbSpline
 70
8
 71
3
 72
8
 73
4
 74
0
 40
0
 40
0
 40
0
 40
0
 40
1
 40
1
 40
1
 40
1
 10
146.212560
 20
-59.750442
 30
0.0
 10
146.212630
 20
-60.026484
 30
0.0
 10
146.436389
 20
-60.250244
 30
0.0
 10
146.712432
 20
-60.250314
 30
0.0
  0
SPLINE
  5
261
100
AcDbEntity
  8
0
 62
7
100
AcDbSpline
 70
8
 71
3
 72
8
 73
4
 74
0
 40
0
 40
0
 40
0
 40
0
 40
1
 40
1
 40
1
 40
1
 10
159.712406
 20
-60.250314
 30
0.0
 10
159.845014
 20
-60.250348
 30
0.0
 10
159.972204
 20
-60.197702
 30
0.0
 10
160.065996
 20
-60.103957
 30
0.0
  0
SPLINE
  5
262
100
AcDbEntity
  8
0
 62
7
100
AcDbSpline
 70
8
 71
3
 72
8
 73
4
 74
0
 40
0
 40
0
 40
0
 40
0
 40
1
 40
1
 40
1
 40
1
 10
160.065996
 20
-60.103957
 30
0.0
 10
160.159788
 20
-60.010213
 30
0.0
 10
160.212498
 20
-59.883050
 30
0.0
 10
160.212532
 20
-59.750442
 30
0.0
  0
LWPOLYLINE
  5
263
100
AcDbEntity
  8
0
 62
7
100
AcDbPolyline
 90
2
 70
0
 10
160.210500
 20
-59.749680
 30
0.0
 10
160.210500
 20
-46.749960
 30
0.0
  0
LWPOLYLINE
  5
264
100
AcDbEntity
  8
0
 62
7
100
AcDbPolyline
 90
2
 70
0
 10
257.342640
 20
-46.249580
 30
0.0
 10
244.342920
 20
-46.249580
 30
0.0
  0
LWPOLYLINE
  5
265
100
AcDbEntity
  8
0
 62
7
100
AcDbPolyline
 90
2
 70
0
 10
243.842540
 20
-46.749960
 30
0.0
 10
243.842540
 20
-59.749680
 30
0.0
  0
LWPOLYLINE
  5
266
100
AcDbEntity
  8
0
 62
7
100
AcDbPolyline
 90
2
 70
0
 10
244.342920
 20
-60.250060
 30
0.0
 10
257.342640
 20
-60.250060
 30
0.0
  0
SPLINE
  5
267
100
AcDbEntity
  8
0
 62
7
100
AcDbSpline
 70
8
 71
3
 72
8
 73
4
 74
0
 40
0
 40
0
 40
0
 40
0
 40
1
 40
1
 40
1
 40
1
 10
257.843020
 20
-46.750468
 30
0.0
 10
257.843054
 20
-46.617772
 30
0.0
 10
257.790338
 20
-46.490505
 30
0.0
 10
257.696484
 20
-46.396698
 30
0.0
  0
SPLINE
  5
268
100
AcDbEntity
  8
0
 62
7
100
AcDbSpline
 70
8
 71
3
 72
8
 73
4
 74
0
 40
0
 40
0
 40
0
 40
0
 40
1
 40
1
 40
1
 40
1
 10
257.696484
 20
-46.396698
 30
0.0
 10
257.602630
 20
-46.302892
 30
0.0
 10
257.475336
 20
-46.250241
 30
0.0
 10
257.342640
 20
-46.250342
 30
0.0
  0
SPLINE
  5
269
100
AcDbEntity
  8
0
 62
7
100
AcDbSpline
 70
8
 71
3
 72
8
 73
4
 74
0
 40
0
 40
0
 40
0
 40
0
 40
1
 40
1
 40
1
 40
1
 10
244.343682
 20
-46.250342
 30
0.0
 10
244.211074
 20
-46.250376
 30
0.0
 10
244.083911
 20
-46.303086
 30
0.0
 10
243.990167
 20
-46.396878
 30
0.0
  0
SPLINE
  5
26a
100
AcDbEntity
  8
0
 62
7
100
AcDbSpline
 70
8
 71
3
 72
8
 73
4
 74
0
 40
0
 40
0
 40
0
 40
0
 40
1
 40
1
 40
1
 40
1
 10
243.990167
 20
-46.396878
 30
0.0
 10
243.896422
 20
-46.490670
 30
0.0
 10
243.843776
 20
-46.617860
 30
0.0
 10
243.843810
 20
-46.750468
 30
0.0
  0
SPLINE
  5
26b
100
AcDbEntity
  8
0
 62
7
100
AcDbSpline
 70
8
 71
3
 72
8
 73
4
 74
0
 40
0
 40
0
 40
0
 40
0
 40
1
 40
1
 40
1
 40
1
 10
243.843810
 20
-59.750442
 30
0.0
 10
243.843880
 20
-60.026484
 30
0.0
 10
244.067639
 20
-60.250244
 30
0.0
 10
244.343682
 20
-60.250314
 30
0.0
  0
SPLINE
  5
26c
100
AcDbEntity
  8
0
 62
7
100
AcDbSpline
 70
8
 71
3
 72
8
 73
4
 74
0
 40
0
 40
0
 40
0
 40
0
 40
1
 40
1
 40
1
 40
1
 10
257.342640
 20
-60.250314
 30
0.0
 10
257.475292
 20
-60.250415
 30
0.0
 10
257.602547
 20
-60.197799
 30
0.0
 10
257.696394
 20
-60.104047
 30
0.0
  0
SPLINE
  5
26d
100
AcDbEntity
  8
0
 62
7
100
AcDbSpline
 70
8
 71
3
 72
8
 73
4
 74
0
 40
0
 40
0
 40
0
 40
0
 40
1
 40
1
 40
1
 40
1
 10
257.696394
 20
-60.104047
 30
0.0
 10
257.790241
 20
-60.010296
 30
0.0
 10
257.842986
 20
-59.883094
 30
0.0
 10
257.843020
 20
-59.750442
 30
0.0
  0
LWPOLYLINE
  5
26e
100
AcDbEntity
  8
0
 62
7
100
AcDbPolyline
 90
2
 70
0
 10
257.843020
 20
-59.749680
 30
0.0
 10
257.843020
 20
-46.749960
 30
0.0
  0
LWPOLYLINE
  5
26f
100
AcDbEntity
  8
0
 62
7
100
AcDbPolyline
 90
2
 70
0
 10
131.135120
 20
-27.199580
 30
0.0
 10
118.135400
 20
-27.199580
 30
0.0
  0
LWPOLYLINE
  5
270
100
AcDbEntity
  8
0
 62
7
100
AcDbPolyline
 90
2
 70
0
 10
117.635020
 20
-27.699960
 30
0.0
 10
117.635020
 20
-40.699680
 30
0.0
  0
LWPOLYLINE
  5
271
100
AcDbEntity
  8
0
 62
7
100
AcDbPolyline
 90
2
 70
0
 10
118.135400
 20
-41.200060
 30
0.0
 10
131.135120
 20
-41.200060
 30
0.0
  0
SPLINE
  5
272
100
AcDbEntity
  8
0
 62
7
100
AcDbSpline
 70
8
 71
3
 72
8
 73
4
 74
0
 40
0
 40
0
 40
0
 40
0
 40
1
 40
1
 40
1
 40
1
 10
131.637532
 20
-27.700468
 30
0.0
 10
131.637566
 20
-27.567816
 30
0.0
 10
131.584885
 20
-27.440587
 30
0.0
 10
131.491086
 20
-27.346788
 30
0.0
  0
SPLINE
  5
273
100
AcDbEntity
  8
0
 62
7
100
AcDbSpline
 70
8
 71
3
 72
8
 73
4
 74
0
 40
0
 40
0
 40
0
 40
0
 40
1
 40
1
 40
1
 40
1
 10
131.491086
 20
-27.346788
 30
0.0
 10
131.397287
 20
-27.252989
 30
0.0
 10
131.270058
 20
-27.200308
 30
0.0
 10
131.137406
 20
-27.200342
 30
0.0
  0
SPLINE
  5
274
100
AcDbEntity
  8
0
 62
7
100
AcDbSpline
 70
8
 71
3
 72
8
 73
4
 74
0
 40
0
 40
0
 40
0
 40
0
 40
1
 40
1
 40
1
 40
1
 10
118.137432
 20
-27.200342
 30
0.0
 10
118.004824
 20
-27.200376
 30
0.0
 10
117.877661
 20
-27.253086
 30
0.0
 10
117.783917
 20
-27.346878
 30
0.0
  0
SPLINE
  5
275
100
AcDbEntity
  8
0
 62
7
100
AcDbSpline
 70
8
 71
3
 72
8
 73
4
 74
0
 40
0
 40
0
 40
0
 40
0
 40
1
 40
1
 40
1
 40
1
 10
117.783917
 20
-27.346878
 30
0.0
 10
117.690172
 20
-27.440670
 30
0.0
 10
117.637526
 20
-27.567860
 30
0.0
 10
117.637560
 20
-27.700468
 30
0.0
  0
SPLINE
  5
276
100
AcDbEntity
  8
0
 62
7
100
AcDbSpline
 70
8
 71
3
 72
8
 73
4
 74
0
 40
0
 40
0
 40
0
 40
0
 40
1
 40
1
 40
1
 40
1
 10
117.637560
 20
-40.700442
 30
0.0
 10
117.637630
 20
-40.976484
 30
0.0
 10
117.861389
 20
-41.200244
 30
0.0
 10
118.137432
 20
-41.200314
 30
0.0
  0
SPLINE
  5
277
100
AcDbEntity
  8
0
 62
7
100
AcDbSpline
 70
8
 71
3
 72
8
 73
4
 74
0
 40
0
 40
0
 40
0
 40
0
 40
1
 40
1
 40
1
 40
1
 10
131.137406
 20
-41.200314
 30
0.0
 10
131.270014
 20
-41.200348
 30
0.0
 10
131.397204
 20
-41.147702
 30
0.0
 10
131.490996
 20
-41.053957
 30
0.0
  0
SPLINE
  5
278
100
AcDbEntity
  8
0
 62
7
100
AcDbSpline
 70
8
 71
3
 72
8
 73
4
 74
0
 40
0
 40
0
 40
0
 40
0
 40
1
 40
1
 40
1
 40
1
 10
131.490996
 20
-41.053957
 30
0.0
 10
131.584788
 20
-40.960213
 30
0.0
 10
131.637498
 20
-40.833050
 30
0.0
 10
131.637532
 20
-40.700442
 30
0.0
  0
LWPOLYLINE
  5
279
100
AcDbEntity
  8
0
 62
7
100
AcDbPolyline
 90
2
 70
0
 10
131.635500
 20
-40.699680
 30
0.0
 10
131.635500
 20
-27.699960
 30
0.0
  0
LWPOLYLINE
  5
27a
100
AcDbEntity
  8
0
 62
7
100
AcDbPolyline
 90
2
 70
0
 10
140.660120
 20
-46.249580
 30
0.0
 10
127.660400
 20
-46.249580
 30
0.0
  0
LWPOLYLINE
  5
27b
100
AcDbEntity
  8
0
 62
7
100
AcDbPolyline
 90
2
 70
0
 10
127.160020
 20
-46.749960
 30
0.0
 10
127.160020
 20
-59.749680
 30
0.0
  0
LWPOLYLINE
  5
27c
100
AcDbEntity
  8
0
 62
7
100
AcDbPolyline
 90
2
 70
0
 10
127.660400
 20
-60.250060
 30
0.0
 10
140.660120
 20
-60.250060
 30
0.0
  0
SPLINE
  5
27d
100
AcDbEntity
  8
0
 62
7
100
AcDbSpline
 70
8
 71
3
 72
8
 73
4
 74
0
 40
0
 40
0
 40
0
 40
0
 40
1
 40
1
 40
1
 40
1
 10
141.162532
 20
-46.750468
 30
0.0
 10
141.162566
 20
-46.617816
 30
0.0
 10
141.109885
 20
-46.490587
 30
0.0
 10
141.016086
 20
-46.396788
 30
0.0
  0
SPLINE
  5
27e
100
AcDbEntity
  8
0
 62
7
100
AcDbSpline
 70
8
 71
3
 72
8
 73
4
 74
0
 40
0
 40
0
 40
0
 40
0
 40
1
 40
1
 40
1
 40
1
 10
141.016086
 20
-46.396788
 30
0.0
 10
140.922287
 20
-46.302989
 30
0.0
 10
140.795058
 20
-46.250308
 30
0.0
 10
140.662406
 20
-46.250342
 30
0.0
  0
SPLINE
  5
27f
100
AcDbEntity
  8
0
 62
7
100
AcDbSpline
 70
8
 71
3
 72
8
 73
4
 74
0
 40
0
 40
0
 40
0
 40
0
 40
1
 40
1
 40
1
 40
1
 10
127.662432
 20
-46.250342
 30
0.0
 10
127.529824
 20
-46.250376
 30
0.0
 10
127.402661
 20
-46.303086
 30
0.0
 10
127.308917
 20
-46.396878
 30
0.0
  0
SPLINE
  5
280
100
AcDbEntity
  8
0
 62
7
100
AcDbSpline
 70
8
 71
3
 72
8
 73
4
 74
0
 40
0
 40
0
 40
0
 40
0
 40
1
 40
1
 40
1
 40
1
 10
127.308917
 20
-46.396878
 30
0.0
 10
127.215172
 20
-46.490670
 30
0.0
 10
127.162526
 20
-46.617860
 30
0.0
 10
127.162560
 20
-46.750468
 30
0.0
  0
SPLINE
  5
281
100
AcDbEntity
  8
0
 62
7
100
AcDbSpline
 70
8
 71
3
 72
8
 73
4
 74
0
 40
0
 40
0
 40
0
 40
0
 40
1
 40
1
 40
1
 40
1
 10
127.162560
 20
-59.750442
 30
0.0
 10
127.162630
 20
-60.026484
 30
0.0
 10
127.386389
 20
-60.250244
 30
0.0
 10
127.662432
 20
-60.250314
 30
0.0
  0
SPLINE
  5
282
100
AcDbEntity
  8
0
 62
7
100
AcDbSpline
 70
8
 71
3
 72
8
 73
4
 74
0
 40
0
 40
0
 40
0
 40
0
 40
1
 40
1
 40
1
 40
1
 10
140.662406
 20
-60.250314
 30
0.0
 10
140.795014
 20
-60.250348
 30
0.0
 10
140.922204
 20
-60.197702
 30
0.0
 10
141.015996
 20
-60.103957
 30
0.0
  0
SPLINE
  5
283
100
AcDbEntity
  8
0
 62
7
100
AcDbSpline
 70
8
 71
3
 72
8
 73
4
 74
0
 40
0
 40
0
 40
0
 40
0
 40
1
 40
1
 40
1
 40
1
 10
141.015996
 20
-60.103957
 30
0.0
 10
141.109788
 20
-60.010213
 30
0.0
 10
141.162498
 20
-59.883050
 30
0.0
 10
141.162532
 20
-59.750442
 30
0.0
  0
LWPOLYLINE
  5
284
100
AcDbEntity
  8
0
 62
7
100
AcDbPolyline
 90
2
 70
0
 10
141.160500
 20
-59.749680
 30
0.0
 10
141.160500
 20
-46.749960
 30
0.0
  0
LWPOLYLINE
  5
285
100
AcDbEntity
  8
0
 62
7
100
AcDbPolyline
 90
2
 70
0
 10
150.185120
 20
-27.199580
 30
0.0
 10
137.185400
 20
-27.199580
 30
0.0
  0
LWPOLYLINE
  5
286
100
AcDbEntity
  8
0
 62
7
100
AcDbPolyline
 90
2
 70
0
 10
136.685020
 20
-27.699960
 30
0.0
 10
136.685020
 20
-40.699680
 30
0.0
  0
LWPOLYLINE
  5
287
100
AcDbEntity
  8
0
 62
7
100
AcDbPolyline
 90
2
 70
0
 10
137.185400
 20
-41.200060
 30
0.0
 10
150.185120
 20
-41.200060
 30
0.0
  0
SPLINE
  5
288
100
AcDbEntity
  8
0
 62
7
100
AcDbSpline
 70
8
 71
3
 72
8
 73
4
 74
0
 40
0
 40
0
 40
0
 40
0
 40
1
 40
1
 40
1
 40
1
 10
150.687532
 20
-27.700468
 30
0.0
 10
150.687566
 20
-27.567816
 30
0.0
 10
150.634885
 20
-27.440587
 30
0.0
 10
150.541086
 20
-27.346788
 30
0.0
  0
SPLINE
  5
289
100
AcDbEntity
  8
0
 62
7
100
AcDbSpline
 70
8
 71
3
 72
8
 73
4
 74
0
 40
0
 40
0
 40
0
 40
0
 40
1
 40
1
 40
1
 40
1
 10
150.541086
 20
-27.346788
 30
0.0
 10
150.447287
 20
-27.252989
 30
0.0
 10
150.320058
 20
-27.200308
 30
0.0
 10
150.187406
 20
-27.200342
 30
0.0
  0
SPLINE
  5
28a
100
AcDbEntity
  8
0
 62
7
100
AcDbSpline
 70
8
 71
3
 72
8
 73
4
 74
0
 40
0
 40
0
 40
0
 40
0
 40
1
 40
1
 40
1
 40
1
 10
137.187432
 20
-27.200342
 30
0.0
 10
137.054824
 20
-27.200376
 30
0.0
 10
136.927661
 20
-27.253086
 30
0.0
 10
136.833917
 20
-27.346878
 30
0.0
  0
SPLINE
  5
28b
100
AcDbEntity
  8
0
 62
7
100
AcDbSpline
 70
8
 71
3
 72
8
 73
4
 74
0
 40
0
 40
0
 40
0
 40
0
 40
1
 40
1
 40
1
 40
1
 10
136.833917
 20
-27.346878
 30
0.0
 10
136.740172
 20
-27.440670
 30
0.0
 10
136.687526
 20
-27.567860
 30
0.0
 10
136.687560
 20
-27.700468
 30
0.0
  0
SPLINE
  5
28c
100
AcDbEntity
  8
0
 62
7
100
AcDbSpline
 70
8
 71
3
 72
8
 73
4
 74
0
 40
0
 40
0
 40
0
 40
0
 40
1
 40
1
 40
1
 40
1
 10
136.687560
 20
-40.700442
 30
0.0
 10
136.687630
 20
-40.976484
 30
0.0
 10
136.911389
 20
-41.200244
 30
0.0
 10
137.187432
 20
-41.200314
 30
0.0
  0
SPLINE
  5
28d
100
AcDbEntity
  8
0
 62
7
100
AcDbSpline
 70
8
 71
3
 72
8
 73
4
 74
0
 40
0
 40
0
 40
0
 40
0
 40
1
 40
1
 40
1
 40
1
 10
150.187406
 20
-41.200314
 30
0.0
 10
150.320014
 20
-41.200348
 30
0.0
 10
150.447204
 20
-41.147702
 30
0.0
 10
150.540996
 20
-41.053957
 30
0.0
  0
SPLINE
  5
28e
100
AcDbEntity
  8
0
 62
7
100
AcDbSpline
 70
8
 71
3
 72
8
 73
4
 74
0
 40
0
 40
0
 40
0
 40
0
 40
1
 40
1
 40
1
 40
1
 10
150.540996
 20
-41.053957
 30
0.0
 10
150.634788
 20
-40.960213
 30
0.0
 10
150.687498
 20
-40.833050
 30
0.0
 10
150.687532
 20
-40.700442
 30
0.0
  0
LWPOLYLINE
  5
28f
100
AcDbEntity
  8
0
 62
7
100
AcDbPolyline
 90
2
 70
0
 10
150.685500
 20
-40.699680
 30
0.0
 10
150.685500
 20
-27.699960
 30
0.0
  0
LWPOLYLINE
  5
290
100
AcDbEntity
  8
0
 62
7
100
AcDbPolyline
 90
2
 70
0
 10
83.510120
 20
-46.249580
 30
0.0
 10
70.510400
 20
-46.249580
 30
0.0
  0
LWPOLYLINE
  5
291
100
AcDbEntity
  8
0
 62
7
100
AcDbPolyline
 90
2
 70
0
 10
70.010020
 20
-46.749960
 30
0.0
 10
70.010020
 20
-59.749680
 30
0.0
  0
LWPOLYLINE
  5
292
100
AcDbEntity
  8
0
 62
7
100
AcDbPolyline
 90
2
 70
0
 10
70.510400
 20
-60.250060
 30
0.0
 10
83.510120
 20
-60.250060
 30
0.0
  0
SPLINE
  5
293
100
AcDbEntity
  8
0
 62
7
100
AcDbSpline
 70
8
 71
3
 72
8
 73
4
 74
0
 40
0
 40
0
 40
0
 40
0
 40
1
 40
1
 40
1
 40
1
 10
84.012532
 20
-46.750468
 30
0.0
 10
84.012566
 20
-46.617816
 30
0.0
 10
83.959885
 20
-46.490587
 30
0.0
 10
83.866086
 20
-46.396788
 30
0.0
  0
SPLINE
  5
294
100
AcDbEntity
  8
0
 62
7
100
AcDbSpline
 70
8
 71
3
 72
8
 73
4
 74
0
 40
0
 40
0
 40
0
 40
0
 40
1
 40
1
 40
1
 40
1
 10
83.866086
 20
-46.396788
 30
0.0
 10
83.772287
 20
-46.302989
 30
0.0
 10
83.645058
 20
-46.250308
 30
0.0
 10
83.512406
 20
-46.250342
 30
0.0
  0
SPLINE
  5
295
100
AcDbEntity
  8
0
 62
7
100
AcDbSpline
 70
8
 71
3
 72
8
 73
4
 74
0
 40
0
 40
0
 40
0
 40
0
 40
1
 40
1
 40
1
 40
1
 10
70.512432
 20
-46.250342
 30
0.0
 10
70.379824
 20
-46.250376
 30
0.0
 10
70.252661
 20
-46.303086
 30
0.0
 10
70.158917
 20
-46.396878
 30
0.0
  0
SPLINE
  5
296
100
AcDbEntity
  8
0
 62
7
100
AcDbSpline
 70
8
 71
3
 72
8
 73
4
 74
0
 40
0
 40
0
 40
0
 40
0
 40
1
 40
1
 40
1
 40
1
 10
70.158917
 20
-46.396878
 30
0.0
 10
70.065172
 20
-46.490670
 30
0.0
 10
70.012526
 20
-46.617860
 30
0.0
 10
70.012560
 20
-46.750468
 30
0.0
  0
SPLINE
  5
297
100
AcDbEntity
  8
0
 62
7
100
AcDbSpline
 70
8
 71
3
 72
8
 73
4
 74
0
 40
0
 40
0
 40
0
 40
0
 40
1
 40
1
 40
1
 40
1
 10
70.012560
 20
-59.750442
 30
0.0
 10
70.012630
 20
-60.026484
 30
0.0
 10
70.236389
 20
-60.250244
 30
0.0
 10
70.512432
 20
-60.250314
 30
0.0
  0
SPLINE
  5
298
100
AcDbEntity
  8
0
 62
7
100
AcDbSpline
 70
8
 71
3
 72
8
 73
4
 74
0
 40
0
 40
0
 40
0
 40
0
 40
1
 40
1
 40
1
 40
1
 10
83.512406
 20
-60.250314
 30
0.0
 10
83.645014
 20
-60.250348
 30
0.0
 10
83.772204
 20
-60.197702
 30
0.0
 10
83.865996
 20
-60.103957
 30
0.0
  0
SPLINE
  5
299
100
AcDbEntity
  8
0
 62
7
100
AcDbSpline
 70
8
 71
3
 72
8
 73
4
 74
0
 40
0
 40
0
 40
0
 40
0
 40
1
 40
1
 40
1
 40
1
 10
83.865996
 20
-60.103957
 30
0.0
 10
83.959788
 20
-60.010213
 30
0.0
 10
84.012498
 20
-59.883050
 30
0.0
 10
84.012532
 20
-59.750442
 30
0.0
  0
LWPOLYLINE
  5
29a
100
AcDbEntity
  8
0
 62
7
100
AcDbPolyline
 90
2
 70
0
 10
84.010500
 20
-59.749680
 30
0.0
 10
84.010500
 20
-46.749960
 30
0.0
  0
LWPOLYLINE
  5
29b
100
AcDbEntity
  8
0
 62
7
100
AcDbPolyline
 90
2
 70
0
 10
112.085120
 20
-27.199580
 30
0.0
 10
99.085400
 20
-27.199580
 30
0.0
  0
LWPOLYLINE
  5
29c
100
AcDbEntity
  8
0
 62
7
100
AcDbPolyline
 90
2
 70
0
 10
98.585020
 20
-27.699960
 30
0.0
 10
98.585020
 20
-40.699680
 30
0.0
  0
LWPOLYLINE
  5
29d
100
AcDbEntity
  8
0
 62
7
100
AcDbPolyline
 90
2
 70
0
 10
99.085400
 20
-41.200060
 30
0.0
 10
112.085120
 20
-41.200060
 30
0.0
  0
SPLINE
  5
29e
100
AcDbEntity
  8
0
 62
7
100
AcDbSpline
 70
8
 71
3
 72
8
 73
4
 74
0
 40
0
 40
0
 40
0
 40
0
 40
1
 40
1
 40
1
 40
1
 10
112.587532
 20
-27.700468
 30
0.0
 10
112.587566
 20
-27.567816
 30
0.0
 10
112.534885
 20
-27.440587
 30
0.0
 10
112.441086
 20
-27.346788
 30
0.0
  0
SPLINE
  5
29f
100
AcDbEntity
  8
0
 62
7
100
AcDbSpline
 70
8
 71
3
 72
8
 73
4
 74
0
 40
0
 40
0
 40
0
 40
0
 40
1
 40
1
 40
1
 40
1
 10
112.441086
 20
-27.346788
 30
0.0
 10
112.347287
 20
-27.252989
 30
0.0
 10
112.220058
 20
-27.200308
 30
0.0
 10
112.087406
 20
-27.200342
 30
0.0
  0
SPLINE
  5
2a0
100
AcDbEntity
  8
0
 62
7
100
AcDbSpline
 70
8
 71
3
 72
8
 73
4
 74
0
 40
0
 40
0
 40
0
 40
0
 40
1
 40
1
 40
1
 40
1
 10
99.087432
 20
-27.200342
 30
0.0
 10
98.954824
 20
-27.200376
 30
0.0
 10
98.827661
 20
-27.253086
 30
0.0
 10
98.733917
 20
-27.346878
 30
0.0
  0
SPLINE
  5
2a1
100
AcDbEntity
  8
0
 62
7
100
AcDbSpline
 70
8
 71
3
 72
8
 73
4
 74
0
 40
0
 40
0
 40
0
 40
0
 40
1
 40
1
 40
1
 40
1
 10
98.733917
 20
-27.346878
 30
0.0
 10
98.640172
 20
-27.440670
 30
0.0
 10
98.587526
 20
-27.567860
 30
0.0
 10
98.587560
 20
-27.700468
 30
0.0
  0
SPLINE
  5
2a2
100
AcDbEntity
  8
0
 62
7
100
AcDbSpline
 70
8
 71
3
 72
8
 73
4
 74
0
 40
0
 40
0
 40
0
 40
0
 40
1
 40
1
 40
1
 40
1
 10
98.587560
 20
-40.700442
 30
0.0
 10
98.587630
 20
-40.976484
 30
0.0
 10
98.811389
 20
-41.200244
 30
0.0
 10
99.087432
 20
-41.200314
 30
0.0
  0
SPLINE
  5
2a3
100
AcDbEntity
  8
0
 62
7
100
AcDbSpline
 70
8
 71
3
 72
8
 73
4
 74
0
 40
0
 40
0
 40
0
 40
0
 40
1
 40
1
 40
1
 40
1
 10
112.087406
 20
-41.200314
 30
0.0
 10
112.220014
 20
-41.200348
 30
0.0
 10
112.347204
 20
-41.147702
 30
0.0
 10
112.440996
 20
-41.053957
 30
0.0
  0
SPLINE
  5
2a4
100
AcDbEntity
  8
0
 62
7
100
AcDbSpline
 70
8
 71
3
 72
8
 73
4
 74
0
 40
0
 40
0
 40
0
 40
0
 40
1
 40
1
 40
1
 40
1
 10
112.440996
 20
-41.053957
 30
0.0
 10
112.534788
 20
-40.960213
 30
0.0
 10
112.587498
 20
-40.833050
 30
0.0
 10
112.587532
 20
-40.700442
 30
0.0
  0
LWPOLYLINE
  5
2a5
100
AcDbEntity
  8
0
 62
7
100
AcDbPolyline
 90
2
 70
0
 10
112.585500
 20
-40.699680
 30
0.0
 10
112.585500
 20
-27.699960
 30
0.0
  0
LWPOLYLINE
  5
2a6
100
AcDbEntity
  8
0
 62
7
100
AcDbPolyline
 90
2
 70
0
 10
188.285120
 20
-27.199580
 30
0.0
 10
175.285400
 20
-27.199580
 30
0.0
  0
LWPOLYLINE
  5
2a7
100
AcDbEntity
  8
0
 62
7
100
AcDbPolyline
 90
2
 70
0
 10
174.785020
 20
-27.699960
 30
0.0
 10
174.785020
 20
-40.699680
 30
0.0
  0
LWPOLYLINE
  5
2a8
100
AcDbEntity
  8
0
 62
7
100
AcDbPolyline
 90
2
 70
0
 10
175.285400
 20
-41.200060
 30
0.0
 10
188.285120
 20
-41.200060
 30
0.0
  0
SPLINE
  5
2a9
100
AcDbEntity
  8
0
 62
7
100
AcDbSpline
 70
8
 71
3
 72
8
 73
4
 74
0
 40
0
 40
0
 40
0
 40
0
 40
1
 40
1
 40
1
 40
1
 10
188.787532
 20
-27.700468
 30
0.0
 10
188.787566
 20
-27.567816
 30
0.0
 10
188.734885
 20
-27.440587
 30
0.0
 10
188.641086
 20
-27.346788
 30
0.0
  0
SPLINE
  5
2aa
100
AcDbEntity
  8
0
 62
7
100
AcDbSpline
 70
8
 71
3
 72
8
 73
4
 74
0
 40
0
 40
0
 40
0
 40
0
 40
1
 40
1
 40
1
 40
1
 10
188.641086
 20
-27.346788
 30
0.0
 10
188.547287
 20
-27.252989
 30
0.0
 10
188.420058
 20
-27.200308
 30
0.0
 10
188.287406
 20
-27.200342
 30
0.0
  0
SPLINE
  5
2ab
100
AcDbEntity
  8
0
 62
7
100
AcDbSpline
 70
8
 71
3
 72
8
 73
4
 74
0
 40
0
 40
0
 40
0
 40
0
 40
1
 40
1
 40
1
 40
1
 10
175.287432
 20
-27.200342
 30
0.0
 10
175.154824
 20
-27.200376
 30
0.0
 10
175.027661
 20
-27.253086
 30
0.0
 10
174.933917
 20
-27.346878
 30
0.0
  0
SPLINE
  5
2ac
100
AcDbEntity
  8
0
 62
7
100
AcDbSpline
 70
8
 71
3
 72
8
 73
4
 74
0
 40
0
 40
0
 40
0
 40
0
 40
1
 40
1
 40
1
 40
1
 10
174.933917
 20
-27.346878
 30
0.0
 10
174.840172
 20
-27.440670
 30
0.0
 10
174.787526
 20
-27.567860
 30
0.0
 10
174.787560
 20
-27.700468
 30
0.0
  0
SPLINE
  5
2ad
100
AcDbEntity
  8
0
 62
7
100
AcDbSpline
 70
8
 71
3
 72
8
 73
4
 74
0
 40
0
 40
0
 40
0
 40
0
 40
1
 40
1
 40
1
 40
1
 10
174.787560
 20
-40.700442
 30
0.0
 10
174.787630
 20
-40.976484
 30
0.0
 10
175.011389
 20
-41.200244
 30
0.0
 10
175.287432
 20
-41.200314
 30
0.0
  0
SPLINE
  5
2ae
100
AcDbEntity
  8
0
 62
7
100
AcDbSpline
 70
8
 71
3
 72
8
 73
4
 74
0
 40
0
 40
0
 40
0
 40
0
 40
1
 40
1
 40
1
 40
1
 10
188.287406
 20
-41.200314
 30
0.0
 10
188.420014
 20
-41.200348
 30
0.0
 10
188.547204
 20
-41.147702
 30
0.0
 10
188.640996
 20
-41.053957
 30
0.0
  0
SPLINE
  5
2af
100
AcDbEntity
  8
0
 62
7
100
AcDbSpline
 70
8
 71
3
 72
8
 73
4
 74
0
 40
0
 40
0
 40
0
 40
0
 40
1
 40
1
 40
1
 40
1
 10
188.640996
 20
-41.053957
 30
0.0
 10
188.734788
 20
-40.960213
 30
0.0
 10
188.787498
 20
-40.833050
 30
0.0
 10
188.787532
 20
-40.700442
 30
0.0
  0
LWPOLYLINE
  5
2b0
100
AcDbEntity
  8
0
 62
7
100
AcDbPolyline
 90
2
 70
0
 10
188.785500
 20
-40.699680
 30
0.0
 10
188.785500
 20
-27.699960
 30
0.0
  0
LWPOLYLINE
  5
2b1
100
AcDbEntity
  8
0
 62
7
100
AcDbPolyline
 90
2
 70
0
 10
102.560120
 20
-46.249580
 30
0.0
 10
89.560400
 20
-46.249580
 30
0.0
  0
LWPOLYLINE
  5
2b2
100
AcDbEntity
  8
0
 62
7
100
AcDbPolyline
 90
2
 70
0
 10
89.060020
 20
-46.749960
 30
0.0
 10
89.060020
 20
-59.749680
 30
0.0
  0
LWPOLYLINE
  5
2b3
100
AcDbEntity
  8
0
 62
7
100
AcDbPolyline
 90
2
 70
0
 10
89.560400
 20
-60.250060
 30
0.0
 10
102.560120
 20
-60.250060
 30
0.0
  0
SPLINE
  5
2b4
100
AcDbEntity
  8
0
 62
7
100
AcDbSpline
 70
8
 71
3
 72
8
 73
4
 74
0
 40
0
 40
0
 40
0
 40
0
 40
1
 40
1
 40
1
 40
1
 10
103.062532
 20
-46.750468
 30
0.0
 10
103.062566
 20
-46.617816
 30
0.0
 10
103.009885
 20
-46.490587
 30
0.0
 10
102.916086
 20
-46.396788
 30
0.0
  0
SPLINE
  5
2b5
100
AcDbEntity
  8
0
 62
7
100
AcDbSpline
 70
8
 71
3
 72
8
 73
4
 74
0
 40
0
 40
0
 40
0
 40
0
 40
1
 40
1
 40
1
 40
1
 10
102.916086
 20
-46.396788
 30
0.0
 10
102.822287
 20
-46.302989
 30
0.0
 10
102.695058
 20
-46.250308
 30
0.0
 10
102.562406
 20
-46.250342
 30
0.0
  0
SPLINE
  5
2b6
100
AcDbEntity
  8
0
 62
7
100
AcDbSpline
 70
8
 71
3
 72
8
 73
4
 74
0
 40
0
 40
0
 40
0
 40
0
 40
1
 40
1
 40
1
 40
1
 10
89.562432
 20
-46.250342
 30
0.0
 10
89.429824
 20
-46.250376
 30
0.0
 10
89.302661
 20
-46.303086
 30
0.0
 10
89.208917
 20
-46.396878
 30
0.0
  0
SPLINE
  5
2b7
100
AcDbEntity
  8
0
 62
7
100
AcDbSpline
 70
8
 71
3
 72
8
 73
4
 74
0
 40
0
 40
0
 40
0
 40
0
 40
1
 40
1
 40
1
 40
1
 10
89.208917
 20
-46.396878
 30
0.0
 10
89.115172
 20
-46.490670
 30
0.0
 10
89.062526
 20
-46.617860
 30
0.0
 10
89.062560
 20
-46.750468
 30
0.0
  0
SPLINE
  5
2b8
100
AcDbEntity
  8
0
 62
7
100
AcDbSpline
 70
8
 71
3
 72
8
 73
4
 74
0
 40
0
 40
0
 40
0
 40
0
 40
1
 40
1
 40
1
 40
1
 10
89.062560
 20
-59.750442
 30
0.0
 10
89.062630
 20
-60.026484
 30
0.0
 10
89.286389
 20
-60.250244
 30
0.0
 10
89.562432
 20
-60.250314
 30
0.0
  0
SPLINE
  5
2b9
100
AcDbEntity
  8
0
 62
7
100
AcDbSpline
 70
8
 71
3
 72
8
 73
4
 74
0
 40
0
 40
0
 40
0
 40
0
 40
1
 40
1
 40
1
 40
1
 10
102.562406
 20
-60.250314
 30
0.0
 10
102.695014
 20
-60.250348
 30
0.0
 10
102.822204
 20
-60.197702
 30
0.0
 10
102.915996
 20
-60.103957
 30
0.0
  0
SPLINE
  5
2ba
100
AcDbEntity
  8
0
 62
7
100
AcDbSpline
 70
8
 71
3
 72
8
 73
4
 74
0
 40
0
 40
0
 40
0
 40
0
 40
1
 40
1
 40
1
 40
1
 10
102.915996
 20
-60.103957
 30
0.0
 10
103.009788
 20
-60.010213
 30
0.0
 10
103.062498
 20
-59.883050
 30
0.0
 10
103.062532
 20
-59.750442
 30
0.0
  0
LWPOLYLINE
  5
2bb
100
AcDbEntity
  8
0
 62
7
100
AcDbPolyline
 90
2
 70
0
 10
103.060500
 20
-59.749680
 30
0.0
 10
103.060500
 20
-46.749960
 30
0.0
  0
LWPOLYLINE
  5
2bc
100
AcDbEntity
  8
0
 62
7
100
AcDbPolyline
 90
2
 70
0
 10
207.335120
 20
-27.199580
 30
0.0
 10
194.335400
 20
-27.199580
 30
0.0
  0
LWPOLYLINE
  5
2bd
100
AcDbEntity
  8
0
 62
7
100
AcDbPolyline
 90
2
 70
0
 10
193.835020
 20
-27.699960
 30
0.0
 10
193.835020
 20
-40.699680
 30
0.0
  0
LWPOLYLINE
  5
2be
100
AcDbEntity
  8
0
 62
7
100
AcDbPolyline
 90
2
 70
0
 10
194.335400
 20
-41.200060
 30
0.0
 10
207.335120
 20
-41.200060
 30
0.0
  0
SPLINE
  5
2bf
100
AcDbEntity
  8
0
 62
7
100
AcDbSpline
 70
8
 71
3
 72
8
 73
4
 74
0
 40
0
 40
0
 40
0
 40
0
 40
1
 40
1
 40
1
 40
1
 10
207.837532
 20
-27.700468
 30
0.0
 10
207.837566
 20
-27.567816
 30
0.0
 10
207.784885
 20
-27.440587
 30
0.0
 10
207.691086
 20
-27.346788
 30
0.0
  0
SPLINE
  5
2c0
100
AcDbEntity
  8
0
 62
7
100
AcDbSpline
 70
8
 71
3
 72
8
 73
4
 74
0
 40
0
 40
0
 40
0
 40
0
 40
1
 40
1
 40
1
 40
1
 10
207.691086
 20
-27.346788
 30
0.0
 10
207.597287
 20
-27.252989
 30
0.0
 10
207.470058
 20
-27.200308
 30
0.0
 10
207.337406
 20
-27.200342
 30
0.0
  0
SPLINE
  5
2c1
100
AcDbEntity
  8
0
 62
7
100
AcDbSpline
 70
8
 71
3
 72
8
 73
4
 74
0
 40
0
 40
0
 40
0
 40
0
 40
1
 40
1
 40
1
 40
1
 10
194.337432
 20
-27.200342
 30
0.0
 10
194.204824
 20
-27.200376
 30
0.0
 10
194.077661
 20
-27.253086
 30
0.0
 10
193.983917
 20
-27.346878
 30
0.0
  0
SPLINE
  5
2c2
100
AcDbEntity
  8
0
 62
7
100
AcDbSpline
 70
8
 71
3
 72
8
 73
4
 74
0
 40
0
 40
0
 40
0
 40
0
 40
1
 40
1
 40
1
 40
1
 10
193.983917
 20
-27.346878
 30
0.0
 10
193.890172
 20
-27.440670
 30
0.0
 10
193.837526
 20
-27.567860
 30
0.0
 10
193.837560
 20
-27.700468
 30
0.0
  0
SPLINE
  5
2c3
100
AcDbEntity
  8
0
 62
7
100
AcDbSpline
 70
8
 71
3
 72
8
 73
4
 74
0
 40
0
 40
0
 40
0
 40
0
 40
1
 40
1
 40
1
 40
1
 10
193.837560
 20
-40.700442
 30
0.0
 10
193.837630
 20
-40.976484
 30
0.0
 10
194.061389
 20
-41.200244
 30
0.0
 10
194.337432
 20
-41.200314
 30
0.0
  0
SPLINE
  5
2c4
100
AcDbEntity
  8
0
 62
7
100
AcDbSpline
 70
8
 71
3
 72
8
 73
4
 74
0
 40
0
 40
0
 40
0
 40
0
 40
1
 40
1
 40
1
 40
1
 10
207.337406
 20
-41.200314
 30
0.0
 10
207.470014
 20
-41.200348
 30
0.0
 10
207.597204
 20
-41.147702
 30
0.0
 10
207.690996
 20
-41.053957
 30
0.0
  0
SPLINE
  5
2c5
100
AcDbEntity
  8
0
 62
7
100
AcDbSpline
 70
8
 71
3
 72
8
 73
4
 74
0
 40
0
 40
0
 40
0
 40
0
 40
1
 40
1
 40
1
 40
1
 10
207.690996
 20
-41.053957
 30
0.0
 10
207.784788
 20
-40.960213
 30
0.0
 10
207.837498
 20
-40.833050
 30
0.0
 10
207.837532
 20
-40.700442
 30
0.0
  0
LWPOLYLINE
  5
2c6
100
AcDbEntity
  8
0
 62
7
100
AcDbPolyline
 90
2
 70
0
 10
207.835500
 20
-40.699680
 30
0.0
 10
207.835500
 20
-27.699960
 30
0.0
  0
LWPOLYLINE
  5
2c7
100
AcDbEntity
  8
0
 62
7
100
AcDbPolyline
 90
2
 70
0
 10
169.235120
 20
-27.199580
 30
0.0
 10
156.235400
 20
-27.199580
 30
0.0
  0
LWPOLYLINE
  5
2c8
100
AcDbEntity
  8
0
 62
7
100
AcDbPolyline
 90
2
 70
0
 10
155.735020
 20
-27.699960
 30
0.0
 10
155.735020
 20
-40.699680
 30
0.0
  0
LWPOLYLINE
  5
2c9
100
AcDbEntity
  8
0
 62
7
100
AcDbPolyline
 90
2
 70
0
 10
156.235400
 20
-41.200060
 30
0.0
 10
169.235120
 20
-41.200060
 30
0.0
  0
SPLINE
  5
2ca
100
AcDbEntity
  8
0
 62
7
100
AcDbSpline
 70
8
 71
3
 72
8
 73
4
 74
0
 40
0
 40
0
 40
0
 40
0
 40
1
 40
1
 40
1
 40
1
 10
169.737532
 20
-27.700468
 30
0.0
 10
169.737566
 20
-27.567816
 30
0.0
 10
169.684885
 20
-27.440587
 30
0.0
 10
169.591086
 20
-27.346788
 30
0.0
  0
SPLINE
  5
2cb
100
AcDbEntity
  8
0
 62
7
100
AcDbSpline
 70
8
 71
3
 72
8
 73
4
 74
0
 40
0
 40
0
 40
0
 40
0
 40
1
 40
1
 40
1
 40
1
 10
169.591086
 20
-27.346788
 30
0.0
 10
169.497287
 20
-27.252989
 30
0.0
 10
169.370058
 20
-27.200308
 30
0.0
 10
169.237406
 20
-27.200342
 30
0.0
  0
SPLINE
  5
2cc
100
AcDbEntity
  8
0
 62
7
100
AcDbSpline
 70
8
 71
3
 72
8
 73
4
 74
0
 40
0
 40
0
 40
0
 40
0
 40
1
 40
1
 40
1
 40
1
 10
156.237432
 20
-27.200342
 30
0.0
 10
156.104824
 20
-27.200376
 30
0.0
 10
155.977661
 20
-27.253086
 30
0.0
 10
155.883917
 20
-27.346878
 30
0.0
  0
SPLINE
  5
2cd
100
AcDbEntity
  8
0
 62
7
100
AcDbSpline
 70
8
 71
3
 72
8
 73
4
 74
0
 40
0
 40
0
 40
0
 40
0
 40
1
 40
1
 40
1
 40
1
 10
155.883917
 20
-27.346878
 30
0.0
 10
155.790172
 20
-27.440670
 30
0.0
 10
155.737526
 20
-27.567860
 30
0.0
 10
155.737560
 20
-27.700468
 30
0.0
  0
SPLINE
  5
2ce
100
AcDbEntity
  8
0
 62
7
100
AcDbSpline
 70
8
 71
3
 72
8
 73
4
 74
0
 40
0
 40
0
 40
0
 40
0
 40
1
 40
1
 40
1
 40
1
 10
155.737560
 20
-40.700442
 30
0.0
 10
155.737630
 20
-40.976484
 30
0.0
 10
155.961389
 20
-41.200244
 30
0.0
 10
156.237432
 20
-41.200314
 30
0.0
  0
SPLINE
  5
2cf
100
AcDbEntity
  8
0
 62
7
100
AcDbSpline
 70
8
 71
3
 72
8
 73
4
 74
0
 40
0
 40
0
 40
0
 40
0
 40
1
 40
1
 40
1
 40
1
 10
169.237406
 20
-41.200314
 30
0.0
 10
169.370014
 20
-41.200348
 30
0.0
 10
169.497204
 20
-41.147702
 30
0.0
 10
169.590996
 20
-41.053957
 30
0.0
  0
SPLINE
  5
2d0
100
AcDbEntity
  8
0
 62
7
100
AcDbSpline
 70
8
 71
3
 72
8
 73
4
 74
0
 40
0
 40
0
 40
0
 40
0
 40
1
 40
1
 40
1
 40
1
 10
169.590996
 20
-41.053957
 30
0.0
 10
169.684788
 20
-40.960213
 30
0.0
 10
169.737498
 20
-40.833050
 30
0.0
 10
169.737532
 20
-40.700442
 30
0.0
  0
LWPOLYLINE
  5
2d1
100
AcDbEntity
  8
0
 62
7
100
AcDbPolyline
 90
2
 70
0
 10
169.735500
 20
-40.699680
 30
0.0
 10
169.735500
 20
-27.699960
 30
0.0
  0
LWPOLYLINE
  5
2d2
100
AcDbEntity
  8
0
 62
7
100
AcDbPolyline
 90
2
 70
0
 10
73.985120
 20
-27.199580
 30
0.0
 10
60.985400
 20
-27.199580
 30
0.0
  0
LWPOLYLINE
  5
2d3
100
AcDbEntity
  8
0
 62
7
100
AcDbPolyline
 90
2
 70
0
 10
60.485020
 20
-27.699960
 30
0.0
 10
60.485020
 20
-40.699680
 30
0.0
  0
LWPOLYLINE
  5
2d4
100
AcDbEntity
  8
0
 62
7
100
AcDbPolyline
 90
2
 70
0
 10
60.985400
 20
-41.200060
 30
0.0
 10
73.985120
 20
-41.200060
 30
0.0
  0
SPLINE
  5
2d5
100
AcDbEntity
  8
0
 62
7
100
AcDbSpline
 70
8
 71
3
 72
8
 73
4
 74
0
 40
0
 40
0
 40
0
 40
0
 40
1
 40
1
 40
1
 40
1
 10
74.487532
 20
-27.700468
 30
0.0
 10
74.487566
 20
-27.567816
 30
0.0
 10
74.434885
 20
-27.440587
 30
0.0
 10
74.341086
 20
-27.346788
 30
0.0
  0
SPLINE
  5
2d6
100
AcDbEntity
  8
0
 62
7
100
AcDbSpline
 70
8
 71
3
 72
8
 73
4
 74
0
 40
0
 40
0
 40
0
 40
0
 40
1
 40
1
 40
1
 40
1
 10
74.341086
 20
-27.346788
 30
0.0
 10
74.247287
 20
-27.252989
 30
0.0
 10
74.120058
 20
-27.200308
 30
0.0
 10
73.987406
 20
-27.200342
 30
0.0
  0
SPLINE
  5
2d7
100
AcDbEntity
  8
0
 62
7
100
AcDbSpline
 70
8
 71
3
 72
8
 73
4
 74
0
 40
0
 40
0
 40
0
 40
0
 40
1
 40
1
 40
1
 40
1
 10
60.987432
 20
-27.200342
 30
0.0
 10
60.854824
 20
-27.200376
 30
0.0
 10
60.727661
 20
-27.253086
 30
0.0
 10
60.633917
 20
-27.346878
 30
0.0
  0
SPLINE
  5
2d8
100
AcDbEntity
  8
0
 62
7
100
AcDbSpline
 70
8
 71
3
 72
8
 73
4
 74
0
 40
0
 40
0
 40
0
 40
0
 40
1
 40
1
 40
1
 40
1
 10
60.633917
 20
-27.346878
 30
0.0
 10
60.540172
 20
-27.440670
 30
0.0
 10
60.487526
 20
-27.567860
 30
0.0
 10
60.487560
 20
-27.700468
 30
0.0
  0
SPLINE
  5
2d9
100
AcDbEntity
  8
0
 62
7
100
AcDbSpline
 70
8
 71
3
 72
8
 73
4
 74
0
 40
0
 40
0
 40
0
 40
0
 40
1
 40
1
 40
1
 40
1
 10
60.487560
 20
-40.700442
 30
0.0
 10
60.487630
 20
-40.976484
 30
0.0
 10
60.711389
 20
-41.200244
 30
0.0
 10
60.987432
 20
-41.200314
 30
0.0
  0
SPLINE
  5
2da
100
AcDbEntity
  8
0
 62
7
100
AcDbSpline
 70
8
 71
3
 72
8
 73
4
 74
0
 40
0
 40
0
 40
0
 40
0
 40
1
 40
1
 40
1
 40
1
 10
73.987406
 20
-41.200314
 30
0.0
 10
74.120014
 20
-41.200348
 30
0.0
 10
74.247204
 20
-41.147702
 30
0.0
 10
74.340996
 20
-41.053957
 30
0.0
  0
SPLINE
  5
2db
100
AcDbEntity
  8
0
 62
7
100
AcDbSpline
 70
8
 71
3
 72
8
 73
4
 74
0
 40
0
 40
0
 40
0
 40
0
 40
1
 40
1
 40
1
 40
1
 10
74.340996
 20
-41.053957
 30
0.0
 10
74.434788
 20
-40.960213
 30
0.0
 10
74.487498
 20
-40.833050
 30
0.0
 10
74.487532
 20
-40.700442
 30
0.0
  0
LWPOLYLINE
  5
2dc
100
AcDbEntity
  8
0
 62
7
100
AcDbPolyline
 90
2
 70
0
 10
74.485500
 20
-40.699680
 30
0.0
 10
74.485500
 20
-27.699960
 30
0.0
  0
LWPOLYLINE
  5
2dd
100
AcDbEntity
  8
0
 62
7
100
AcDbPolyline
 90
2
 70
0
 10
121.610120
 20
-46.249580
 30
0.0
 10
108.610400
 20
-46.249580
 30
0.0
  0
LWPOLYLINE
  5
2de
100
AcDbEntity
  8
0
 62
7
100
AcDbPolyline
 90
2
 70
0
 10
108.110020
 20
-46.749960
 30
0.0
 10
108.110020
 20
-59.749680
 30
0.0
  0
LWPOLYLINE
  5
2df
100
AcDbEntity
  8
0
 62
7
100
AcDbPolyline
 90
2
 70
0
 10
108.610400
 20
-60.250060
 30
0.0
 10
121.610120
 20
-60.250060
 30
0.0
  0
SPLINE
  5
2e0
100
AcDbEntity
  8
0
 62
7
100
AcDbSpline
 70
8
 71
3
 72
8
 73
4
 74
0
 40
0
 40
0
 40
0
 40
0
 40
1
 40
1
 40
1
 40
1
 10
122.112532
 20
-46.750468
 30
0.0
 10
122.112566
 20
-46.617816
 30
0.0
 10
122.059885
 20
-46.490587
 30
0.0
 10
121.966086
 20
-46.396788
 30
0.0
  0
SPLINE
  5
2e1
100
AcDbEntity
  8
0
 62
7
100
AcDbSpline
 70
8
 71
3
 72
8
 73
4
 74
0
 40
0
 40
0
 40
0
 40
0
 40
1
 40
1
 40
1
 40
1
 10
121.966086
 20
-46.396788
 30
0.0
 10
121.872287
 20
-46.302989
 30
0.0
 10
121.745058
 20
-46.250308
 30
0.0
 10
121.612406
 20
-46.250342
 30
0.0
  0
SPLINE
  5
2e2
100
AcDbEntity
  8
0
 62
7
100
AcDbSpline
 70
8
 71
3
 72
8
 73
4
 74
0
 40
0
 40
0
 40
0
 40
0
 40
1
 40
1
 40
1
 40
1
 10
108.612432
 20
-46.250342
 30
0.0
 10
108.479824
 20
-46.250376
 30
0.0
 10
108.352661
 20
-46.303086
 30
0.0
 10
108.258917
 20
-46.396878
 30
0.0
  0
SPLINE
  5
2e3
100
AcDbEntity
  8
0
 62
7
100
AcDbSpline
 70
8
 71
3
 72
8
 73
4
 74
0
 40
0
 40
0
 40
0
 40
0
 40
1
 40
1
 40
1
 40
1
 10
108.258917
 20
-46.396878
 30
0.0
 10
108.165172
 20
-46.490670
 30
0.0
 10
108.112526
 20
-46.617860
 30
0.0
 10
108.112560
 20
-46.750468
 30
0.0
  0
SPLINE
  5
2e4
100
AcDbEntity
  8
0
 62
7
100
AcDbSpline
 70
8
 71
3
 72
8
 73
4
 74
0
 40
0
 40
0
 40
0
 40
0
 40
1
 40
1
 40
1
 40
1
 10
108.112560
 20
-59.750442
 30
0.0
 10
108.112630
 20
-60.026484
 30
0.0
 10
108.336389
 20
-60.250244
 30
0.0
 10
108.612432
 20
-60.250314
 30
0.0
  0
SPLINE
  5
2e5
100
AcDbEntity
  8
0
 62
7
100
AcDbSpline
 70
8
 71
3
 72
8
 73
4
 74
0
 40
0
 40
0
 40
0
 40
0
 40
1
 40
1
 40
1
 40
1
 10
121.612406
 20
-60.250314
 30
0.0
 10
121.745014
 20
-60.250348
 30
0.0
 10
121.872204
 20
-60.197702
 30
0.0
 10
121.965996
 20
-60.103957
 30
0.0
  0
SPLINE
  5
2e6
100
AcDbEntity
  8
0
 62
7
100
AcDbSpline
 70
8
 71
3
 72
8
 73
4
 74
0
 40
0
 40
0
 40
0
 40
0
 40
1
 40
1
 40
1
 40
1
 10
121.965996
 20
-60.103957
 30
0.0
 10
122.059788
 20
-60.010213
 30
0.0
 10
122.112498
 20
-59.883050
 30
0.0
 10
122.112532
 20
-59.750442
 30
0.0
  0
LWPOLYLINE
  5
2e7
100
AcDbEntity
  8
0
 62
7
100
AcDbPolyline
 90
2
 70
0
 10
122.110500
 20
-59.749680
 30
0.0
 10
122.110500
 20
-46.749960
 30
0.0
  0
LWPOLYLINE
  5
2e8
100
AcDbEntity
  8
0
 62
7
100
AcDbPolyline
 90
2
 70
0
 10
93.035120
 20
-27.199580
 30
0.0
 10
80.035400
 20
-27.199580
 30
0.0
  0
LWPOLYLINE
  5
2e9
100
AcDbEntity
  8
0
 62
7
100
AcDbPolyline
 90
2
 70
0
 10
79.535020
 20
-27.699960
 30
0.0
 10
79.535020
 20
-40.699680
 30
0.0
  0
LWPOLYLINE
  5
2ea
100
AcDbEntity
  8
0
 62
7
100
AcDbPolyline
 90
2
 70
0
 10
80.035400
 20
-41.200060
 30
0.0
 10
93.035120
 20
-41.200060
 30
0.0
  0
SPLINE
  5
2eb
100
AcDbEntity
  8
0
 62
7
100
AcDbSpline
 70
8
 71
3
 72
8
 73
4
 74
0
 40
0
 40
0
 40
0
 40
0
 40
1
 40
1
 40
1
 40
1
 10
93.537532
 20
-27.700468
 30
0.0
 10
93.537566
 20
-27.567816
 30
0.0
 10
93.484885
 20
-27.440587
 30
0.0
 10
93.391086
 20
-27.346788
 30
0.0
  0
SPLINE
  5
2ec
100
AcDbEntity
  8
0
 62
7
100
AcDbSpline
 70
8
 71
3
 72
8
 73
4
 74
0
 40
0
 40
0
 40
0
 40
0
 40
1
 40
1
 40
1
 40
1
 10
93.391086
 20
-27.346788
 30
0.0
 10
93.297287
 20
-27.252989
 30
0.0
 10
93.170058
 20
-27.200308
 30
0.0
 10
93.037406
 20
-27.200342
 30
0.0
  0
SPLINE
  5
2ed
100
AcDbEntity
  8
0
 62
7
100
AcDbSpline
 70
8
 71
3
 72
8
 73
4
 74
0
 40
0
 40
0
 40
0
 40
0
 40
1
 40
1
 40
1
 40
1
 10
80.037432
 20
-27.200342
 30
0.0
 10
79.904824
 20
-27.200376
 30
0.0
 10
79.777661
 20
-27.253086
 30
0.0
 10
79.683917
 20
-27.346878
 30
0.0
  0
SPLINE
  5
2ee
100
AcDbEntity
  8
0
 62
7
100
AcDbSpline
 70
8
 71
3
 72
8
 73
4
 74
0
 40
0
 40
0
 40
0
 40
0
 40
1
 40
1
 40
1
 40
1
 10
79.683917
 20
-27.346878
 30
0.0
 10
79.590172
 20
-27.440670
 30
0.0
 10
79.537526
 20
-27.567860
 30
0.0
 10
79.537560
 20
-27.700468
 30
0.0
  0
SPLINE
  5
2ef
100
AcDbEntity
  8
0
 62
7
100
AcDbSpline
 70
8
 71
3
 72
8
 73
4
 74
0
 40
0
 40
0
 40
0
 40
0
 40
1
 40
1
 40
1
 40
1
 10
79.537560
 20
-40.700442
 30
0.0
 10
79.537630
 20
-40.976484
 30
0.0
 10
79.761389
 20
-41.200244
 30
0.0
 10
80.037432
 20
-41.200314
 30
0.0
  0
SPLINE
  5
2f0
100
AcDbEntity
  8
0
 62
7
100
AcDbSpline
 70
8
 71
3
 72
8
 73
4
 74
0
 40
0
 40
0
 40
0
 40
0
 40
1
 40
1
 40
1
 40
1
 10
93.037406
 20
-41.200314
 30
0.0
 10
93.170014
 20
-41.200348
 30
0.0
 10
93.297204
 20
-41.147702
 30
0.0
 10
93.390996
 20
-41.053957
 30
0.0
  0
SPLINE
  5
2f1
100
AcDbEntity
  8
0
 62
7
100
AcDbSpline
 70
8
 71
3
 72
8
 73
4
 74
0
 40
0
 40
0
 40
0
 40
0
 40
1
 40
1
 40
1
 40
1
 10
93.390996
 20
-41.053957
 30
0.0
 10
93.484788
 20
-40.960213
 30
0.0
 10
93.537498
 20
-40.833050
 30
0.0
 10
93.537532
 20
-40.700442
 30
0.0
  0
SPLINE
  5
2f2
100
AcDbEntity
  8
0
 62
7
100
AcDbSpline
 70
8
 71
3
 72
8
 73
4
 74
0
 40
0
 40
0
 40
0
 40
0
 40
1
 40
1
 40
1
 40
1
 10
240.674906
 20
-22.150390
 30
0.0
 10
240.807536
 20
-22.150424
 30
0.0
 10
240.934745
 20
-22.097760
 30
0.0
 10
241.028541
 20
-22.003989
 30
0.0
  0
SPLINE
  5
2f3
100
AcDbEntity
  8
0
 62
7
100
AcDbSpline
 70
8
 71
3
 72
8
 73
4
 74
0
 40
0
 40
0
 40
0
 40
0
 40
1
 40
1
 40
1
 40
1
 10
241.028541
 20
-22.003989
 30
0.0
 10
241.122336
 20
-21.910217
 30
0.0
 10
241.175032
 20
-21.783021
 30
0.0
 10
241.175032
 20
-21.650391
 30
0.0
  0
SPLINE
  5
2f4
100
AcDbEntity
  8
0
 62
7
100
AcDbSpline
 70
8
 71
3
 72
8
 73
4
 74
0
 40
0
 40
0
 40
0
 40
0
 40
1
 40
1
 40
1
 40
1
 10
227.175060
 20
-21.650391
 30
0.0
 10
227.175060
 20
-21.926483
 30
0.0
 10
227.398840
 20
-22.150320
 30
0.0
 10
227.674932
 20
-22.150390
 30
0.0
  0
SPLINE
  5
2f5
100
AcDbEntity
  8
0
 62
7
100
AcDbSpline
 70
8
 71
3
 72
8
 73
4
 74
0
 40
0
 40
0
 40
0
 40
0
 40
1
 40
1
 40
1
 40
1
 10
227.674932
 20
-8.150393
 30
0.0
 10
227.398840
 20
-8.150463
 30
0.0
 10
227.175060
 20
-8.374299
 30
0.0
 10
227.175060
 20
-8.650392
 30
0.0
  0
SPLINE
  5
2f6
100
AcDbEntity
  8
0
 62
7
100
AcDbSpline
 70
8
 71
3
 72
8
 73
4
 74
0
 40
0
 40
0
 40
0
 40
0
 40
1
 40
1
 40
1
 40
1
 10
241.175032
 20
-8.650392
 30
0.0
 10
241.175032
 20
-8.517762
 30
0.0
 10
241.122336
 20
-8.390566
 30
0.0
 10
241.028541
 20
-8.296794
 30
0.0
  0
SPLINE
  5
2f7
100
AcDbEntity
  8
0
 62
7
100
AcDbSpline
 70
8
 71
3
 72
8
 73
4
 74
0
 40
0
 40
0
 40
0
 40
0
 40
1
 40
1
 40
1
 40
1
 10
241.028541
 20
-8.296794
 30
0.0
 10
240.934745
 20
-8.203022
 30
0.0
 10
240.807536
 20
-8.150359
 30
0.0
 10
240.674906
 20
-8.150393
 30
0.0
  0
LWPOLYLINE
  5
2f8
100
AcDbEntity
  8
0
 62
7
100
AcDbPolyline
 90
2
 70
0
 10
93.535500
 20
-40.699680
 30
0.0
 10
93.535500
 20
-27.699960
 30
0.0
  0
LWPOLYLINE
  5
2f9
100
AcDbEntity
  8
0
 62
7
100
AcDbPolyline
 90
2
 70
0
 10
241.173000
 20
-21.649680
 30
0.0
 10
241.173000
 20
-8.649960
 30
0.0
  0
LWPOLYLINE
  5
2fa
100
AcDbEntity
  8
0
 62
7
100
AcDbPolyline
 90
2
 70
0
 10
227.672900
 20
-22.150060
 30
0.0
 10
240.672620
 20
-22.150060
 30
0.0
  0
LWPOLYLINE
  5
2fb
100
AcDbEntity
  8
0
 62
7
100
AcDbPolyline
 90
2
 70
0
 10
227.172520
 20
-8.649960
 30
0.0
 10
227.172520
 20
-21.649680
 30
0.0
  0
SPLINE
  5
2fc
100
AcDbEntity
  8
0
 62
7
100
AcDbSpline
 70
8
 71
3
 72
8
 73
4
 74
0
 40
0
 40
0
 40
0
 40
0
 40
1
 40
1
 40
1
 40
1
 10
259.725160
 20
-22.150390
 30
0.0
 10
259.857834
 20
-22.150491
 30
0.0
 10
259.985109
 20
-22.097857
 30
0.0
 10
260.078959
 20
-22.004078
 30
0.0
  0
SPLINE
  5
2fd
100
AcDbEntity
  8
0
 62
7
100
AcDbSpline
 70
8
 71
3
 72
8
 73
4
 74
0
 40
0
 40
0
 40
0
 40
0
 40
1
 40
1
 40
1
 40
1
 10
260.078959
 20
-22.004078
 30
0.0
 10
260.172809
 20
-21.910300
 30
0.0
 10
260.225540
 20
-21.783065
 30
0.0
 10
260.225540
 20
-21.650391
 30
0.0
  0
SPLINE
  5
2fe
100
AcDbEntity
  8
0
 62
7
100
AcDbSpline
 70
8
 71
3
 72
8
 73
4
 74
0
 40
0
 40
0
 40
0
 40
0
 40
1
 40
1
 40
1
 40
1
 10
246.225060
 20
-21.650391
 30
0.0
 10
246.225060
 20
-21.926483
 30
0.0
 10
246.448840
 20
-22.150320
 30
0.0
 10
246.724932
 20
-22.150390
 30
0.0
  0
SPLINE
  5
2ff
100
AcDbEntity
  8
0
 62
7
100
AcDbSpline
 70
8
 71
3
 72
8
 73
4
 74
0
 40
0
 40
0
 40
0
 40
0
 40
1
 40
1
 40
1
 40
1
 10
246.724932
 20
-8.150393
 30
0.0
 10
246.448840
 20
-8.150463
 30
0.0
 10
246.225060
 20
-8.374299
 30
0.0
 10
246.225060
 20
-8.650392
 30
0.0
  0
SPLINE
  5
300
100
AcDbEntity
  8
0
 62
7
100
AcDbSpline
 70
8
 71
3
 72
8
 73
4
 74
0
 40
0
 40
0
 40
0
 40
0
 40
1
 40
1
 40
1
 40
1
 10
260.225540
 20
-8.650392
 30
0.0
 10
260.225540
 20
-8.517718
 30
0.0
 10
260.172809
 20
-8.390483
 30
0.0
 10
260.078959
 20
-8.296704
 30
0.0
  0
SPLINE
  5
301
100
AcDbEntity
  8
0
 62
7
100
AcDbSpline
 70
8
 71
3
 72
8
 73
4
 74
0
 40
0
 40
0
 40
0
 40
0
 40
1
 40
1
 40
1
 40
1
 10
260.078959
 20
-8.296704
 30
0.0
 10
259.985109
 20
-8.202925
 30
0.0
 10
259.857834
 20
-8.150292
 30
0.0
 10
259.725160
 20
-8.150393
 30
0.0
  0
LWPOLYLINE
  5
302
100
AcDbEntity
  8
0
 62
7
100
AcDbPolyline
 90
2
 70
0
 10
240.672620
 20
-8.149580
 30
0.0
 10
227.672900
 20
-8.149580
 30
0.0
  0
LWPOLYLINE
  5
303
100
AcDbEntity
  8
0
 62
7
100
AcDbPolyline
 90
2
 70
0
 10
260.223000
 20
-21.649680
 30
0.0
 10
260.223000
 20
-8.649960
 30
0.0
  0
LWPOLYLINE
  5
304
100
AcDbEntity
  8
0
 62
7
100
AcDbPolyline
 90
2
 70
0
 10
246.722900
 20
-22.150060
 30
0.0
 10
259.722620
 20
-22.150060
 30
0.0
  0
LWPOLYLINE
  5
305
100
AcDbEntity
  8
0
 62
7
100
AcDbPolyline
 90
2
 70
0
 10
246.222520
 20
-8.649960
 30
0.0
 10
246.222520
 20
-21.649680
 30
0.0
  0
SPLINE
  5
306
100
AcDbEntity
  8
0
 62
7
100
AcDbSpline
 70
8
 71
3
 72
8
 73
4
 74
0
 40
0
 40
0
 40
0
 40
0
 40
1
 40
1
 40
1
 40
1
 10
221.624906
 20
-22.150390
 30
0.0
 10
221.757536
 20
-22.150424
 30
0.0
 10
221.884745
 20
-22.097760
 30
0.0
 10
221.978541
 20
-22.003989
 30
0.0
  0
SPLINE
  5
307
100
AcDbEntity
  8
0
 62
7
100
AcDbSpline
 70
8
 71
3
 72
8
 73
4
 74
0
 40
0
 40
0
 40
0
 40
0
 40
1
 40
1
 40
1
 40
1
 10
221.978541
 20
-22.003989
 30
0.0
 10
222.072336
 20
-21.910217
 30
0.0
 10
222.125032
 20
-21.783021
 30
0.0
 10
222.125032
 20
-21.650391
 30
0.0
  0
SPLINE
  5
308
100
AcDbEntity
  8
0
 62
7
100
AcDbSpline
 70
8
 71
3
 72
8
 73
4
 74
0
 40
0
 40
0
 40
0
 40
0
 40
1
 40
1
 40
1
 40
1
 10
208.125060
 20
-21.650391
 30
0.0
 10
208.125060
 20
-21.926483
 30
0.0
 10
208.348840
 20
-22.150320
 30
0.0
 10
208.624932
 20
-22.150390
 30
0.0
  0
SPLINE
  5
309
100
AcDbEntity
  8
0
 62
7
100
AcDbSpline
 70
8
 71
3
 72
8
 73
4
 74
0
 40
0
 40
0
 40
0
 40
0
 40
1
 40
1
 40
1
 40
1
 10
208.624932
 20
-8.150393
 30
0.0
 10
208.348840
 20
-8.150463
 30
0.0
 10
208.125060
 20
-8.374299
 30
0.0
 10
208.125060
 20
-8.650392
 30
0.0
  0
SPLINE
  5
30a
100
AcDbEntity
  8
0
 62
7
100
AcDbSpline
 70
8
 71
3
 72
8
 73
4
 74
0
 40
0
 40
0
 40
0
 40
0
 40
1
 40
1
 40
1
 40
1
 10
222.125032
 20
-8.650392
 30
0.0
 10
222.125032
 20
-8.517762
 30
0.0
 10
222.072336
 20
-8.390566
 30
0.0
 10
221.978541
 20
-8.296794
 30
0.0
  0
SPLINE
  5
30b
100
AcDbEntity
  8
0
 62
7
100
AcDbSpline
 70
8
 71
3
 72
8
 73
4
 74
0
 40
0
 40
0
 40
0
 40
0
 40
1
 40
1
 40
1
 40
1
 10
221.978541
 20
-8.296794
 30
0.0
 10
221.884745
 20
-8.203022
 30
0.0
 10
221.757536
 20
-8.150359
 30
0.0
 10
221.624906
 20
-8.150393
 30
0.0
  0
LWPOLYLINE
  5
30c
100
AcDbEntity
  8
0
 62
7
100
AcDbPolyline
 90
2
 70
0
 10
259.722620
 20
-8.149580
 30
0.0
 10
246.722900
 20
-8.149580
 30
0.0
  0
LWPOLYLINE
  5
30d
100
AcDbEntity
  8
0
 62
7
100
AcDbPolyline
 90
2
 70
0
 10
222.123000
 20
-21.649680
 30
0.0
 10
222.123000
 20
-8.649960
 30
0.0
  0
LWPOLYLINE
  5
30e
100
AcDbEntity
  8
0
 62
7
100
AcDbPolyline
 90
2
 70
0
 10
208.622900
 20
-22.150060
 30
0.0
 10
221.622620
 20
-22.150060
 30
0.0
  0
LWPOLYLINE
  5
30f
100
AcDbEntity
  8
0
 62
7
100
AcDbPolyline
 90
2
 70
0
 10
208.122520
 20
-8.649960
 30
0.0
 10
208.122520
 20
-21.649680
 30
0.0
  0
SPLINE
  5
310
100
AcDbEntity
  8
0
 62
7
100
AcDbSpline
 70
8
 71
3
 72
8
 73
4
 74
0
 40
0
 40
0
 40
0
 40
0
 40
1
 40
1
 40
1
 40
1
 10
145.424906
 20
-22.150390
 30
0.0
 10
145.557536
 20
-22.150424
 30
0.0
 10
145.684745
 20
-22.097760
 30
0.0
 10
145.778541
 20
-22.003989
 30
0.0
  0
SPLINE
  5
311
100
AcDbEntity
  8
0
 62
7
100
AcDbSpline
 70
8
 71
3
 72
8
 73
4
 74
0
 40
0
 40
0
 40
0
 40
0
 40
1
 40
1
 40
1
 40
1
 10
145.778541
 20
-22.003989
 30
0.0
 10
145.872336
 20
-21.910217
 30
0.0
 10
145.925032
 20
-21.783021
 30
0.0
 10
145.925032
 20
-21.650391
 30
0.0
  0
SPLINE
  5
312
100
AcDbEntity
  8
0
 62
7
100
AcDbSpline
 70
8
 71
3
 72
8
 73
4
 74
0
 40
0
 40
0
 40
0
 40
0
 40
1
 40
1
 40
1
 40
1
 10
131.925060
 20
-21.650391
 30
0.0
 10
131.925060
 20
-21.926483
 30
0.0
 10
132.148840
 20
-22.150320
 30
0.0
 10
132.424932
 20
-22.150390
 30
0.0
  0
SPLINE
  5
313
100
AcDbEntity
  8
0
 62
7
100
AcDbSpline
 70
8
 71
3
 72
8
 73
4
 74
0
 40
0
 40
0
 40
0
 40
0
 40
1
 40
1
 40
1
 40
1
 10
132.424932
 20
-8.150393
 30
0.0
 10
132.148840
 20
-8.150463
 30
0.0
 10
131.925060
 20
-8.374299
 30
0.0
 10
131.925060
 20
-8.650392
 30
0.0
  0
SPLINE
  5
314
100
AcDbEntity
  8
0
 62
7
100
AcDbSpline
 70
8
 71
3
 72
8
 73
4
 74
0
 40
0
 40
0
 40
0
 40
0
 40
1
 40
1
 40
1
 40
1
 10
145.925032
 20
-8.650392
 30
0.0
 10
145.925032
 20
-8.517762
 30
0.0
 10
145.872336
 20
-8.390566
 30
0.0
 10
145.778541
 20
-8.296794
 30
0.0
  0
SPLINE
  5
315
100
AcDbEntity
  8
0
 62
7
100
AcDbSpline
 70
8
 71
3
 72
8
 73
4
 74
0
 40
0
 40
0
 40
0
 40
0
 40
1
 40
1
 40
1
 40
1
 10
145.778541
 20
-8.296794
 30
0.0
 10
145.684745
 20
-8.203022
 30
0.0
 10
145.557536
 20
-8.150359
 30
0.0
 10
145.424906
 20
-8.150393
 30
0.0
  0
LWPOLYLINE
  5
316
100
AcDbEntity
  8
0
 62
7
100
AcDbPolyline
 90
2
 70
0
 10
221.622620
 20
-8.149580
 30
0.0
 10
208.622900
 20
-8.149580
 30
0.0
  0
LWPOLYLINE
  5
317
100
AcDbEntity
  8
0
 62
7
100
AcDbPolyline
 90
2
 70
0
 10
145.923000
 20
-21.649680
 30
0.0
 10
145.923000
 20
-8.649960
 30
0.0
  0
LWPOLYLINE
  5
318
100
AcDbEntity
  8
0
 62
7
100
AcDbPolyline
 90
2
 70
0
 10
132.422900
 20
-22.150060
 30
0.0
 10
145.422620
 20
-22.150060
 30
0.0
  0
LWPOLYLINE
  5
319
100
AcDbEntity
  8
0
 62
7
100
AcDbPolyline
 90
2
 70
0
 10
131.922520
 20
-8.649960
 30
0.0
 10
131.922520
 20
-21.649680
 30
0.0
  0
SPLINE
  5
31a
100
AcDbEntity
  8
0
 62
7
100
AcDbSpline
 70
8
 71
3
 72
8
 73
4
 74
0
 40
0
 40
0
 40
0
 40
0
 40
1
 40
1
 40
1
 40
1
 10
183.524906
 20
-22.150390
 30
0.0
 10
183.657536
 20
-22.150424
 30
0.0
 10
183.784745
 20
-22.097760
 30
0.0
 10
183.878541
 20
-22.003989
 30
0.0
  0
SPLINE
  5
31b
100
AcDbEntity
  8
0
 62
7
100
AcDbSpline
 70
8
 71
3
 72
8
 73
4
 74
0
 40
0
 40
0
 40
0
 40
0
 40
1
 40
1
 40
1
 40
1
 10
183.878541
 20
-22.003989
 30
0.0
 10
183.972336
 20
-21.910217
 30
0.0
 10
184.025032
 20
-21.783021
 30
0.0
 10
184.025032
 20
-21.650391
 30
0.0
  0
SPLINE
  5
31c
100
AcDbEntity
  8
0
 62
7
100
AcDbSpline
 70
8
 71
3
 72
8
 73
4
 74
0
 40
0
 40
0
 40
0
 40
0
 40
1
 40
1
 40
1
 40
1
 10
170.025060
 20
-21.650391
 30
0.0
 10
170.025060
 20
-21.926483
 30
0.0
 10
170.248840
 20
-22.150320
 30
0.0
 10
170.524932
 20
-22.150390
 30
0.0
  0
SPLINE
  5
31d
100
AcDbEntity
  8
0
 62
7
100
AcDbSpline
 70
8
 71
3
 72
8
 73
4
 74
0
 40
0
 40
0
 40
0
 40
0
 40
1
 40
1
 40
1
 40
1
 10
170.524932
 20
-8.150393
 30
0.0
 10
170.248840
 20
-8.150463
 30
0.0
 10
170.025060
 20
-8.374299
 30
0.0
 10
170.025060
 20
-8.650392
 30
0.0
  0
SPLINE
  5
31e
100
AcDbEntity
  8
0
 62
7
100
AcDbSpline
 70
8
 71
3
 72
8
 73
4
 74
0
 40
0
 40
0
 40
0
 40
0
 40
1
 40
1
 40
1
 40
1
 10
184.025032
 20
-8.650392
 30
0.0
 10
184.025032
 20
-8.517762
 30
0.0
 10
183.972336
 20
-8.390566
 30
0.0
 10
183.878541
 20
-8.296794
 30
0.0
  0
SPLINE
  5
31f
100
AcDbEntity
  8
0
 62
7
100
AcDbSpline
 70
8
 71
3
 72
8
 73
4
 74
0
 40
0
 40
0
 40
0
 40
0
 40
1
 40
1
 40
1
 40
1
 10
183.878541
 20
-8.296794
 30
0.0
 10
183.784745
 20
-8.203022
 30
0.0
 10
183.657536
 20
-8.150359
 30
0.0
 10
183.524906
 20
-8.150393
 30
0.0
  0
LWPOLYLINE
  5
320
100
AcDbEntity
  8
0
 62
7
100
AcDbPolyline
 90
2
 70
0
 10
145.422620
 20
-8.149580
 30
0.0
 10
132.422900
 20
-8.149580
 30
0.0
  0
LWPOLYLINE
  5
321
100
AcDbEntity
  8
0
 62
7
100
AcDbPolyline
 90
2
 70
0
 10
184.023000
 20
-21.649680
 30
0.0
 10
184.023000
 20
-8.649960
 30
0.0
  0
LWPOLYLINE
  5
322
100
AcDbEntity
  8
0
 62
7
100
AcDbPolyline
 90
2
 70
0
 10
170.522900
 20
-22.150060
 30
0.0
 10
183.522620
 20
-22.150060
 30
0.0
  0
LWPOLYLINE
  5
323
100
AcDbEntity
  8
0
 62
7
100
AcDbPolyline
 90
2
 70
0
 10
170.022520
 20
-8.649960
 30
0.0
 10
170.022520
 20
-21.649680
 30
0.0
  0
SPLINE
  5
324
100
AcDbEntity
  8
0
 62
7
100
AcDbSpline
 70
8
 71
3
 72
8
 73
4
 74
0
 40
0
 40
0
 40
0
 40
0
 40
1
 40
1
 40
1
 40
1
 10
164.474906
 20
-22.150390
 30
0.0
 10
164.607536
 20
-22.150424
 30
0.0
 10
164.734745
 20
-22.097760
 30
0.0
 10
164.828541
 20
-22.003989
 30
0.0
  0
SPLINE
  5
325
100
AcDbEntity
  8
0
 62
7
100
AcDbSpline
 70
8
 71
3
 72
8
 73
4
 74
0
 40
0
 40
0
 40
0
 40
0
 40
1
 40
1
 40
1
 40
1
 10
164.828541
 20
-22.003989
 30
0.0
 10
164.922336
 20
-21.910217
 30
0.0
 10
164.975032
 20
-21.783021
 30
0.0
 10
164.975032
 20
-21.650391
 30
0.0
  0
SPLINE
  5
326
100
AcDbEntity
  8
0
 62
7
100
AcDbSpline
 70
8
 71
3
 72
8
 73
4
 74
0
 40
0
 40
0
 40
0
 40
0
 40
1
 40
1
 40
1
 40
1
 10
150.975060
 20
-21.650391
 30
0.0
 10
150.975060
 20
-21.926483
 30
0.0
 10
151.198840
 20
-22.150320
 30
0.0
 10
151.474932
 20
-22.150390
 30
0.0
  0
SPLINE
  5
327
100
AcDbEntity
  8
0
 62
7
100
AcDbSpline
 70
8
 71
3
 72
8
 73
4
 74
0
 40
0
 40
0
 40
0
 40
0
 40
1
 40
1
 40
1
 40
1
 10
151.474932
 20
-8.150393
 30
0.0
 10
151.198840
 20
-8.150463
 30
0.0
 10
150.975060
 20
-8.374299
 30
0.0
 10
150.975060
 20
-8.650392
 30
0.0
  0
SPLINE
  5
328
100
AcDbEntity
  8
0
 62
7
100
AcDbSpline
 70
8
 71
3
 72
8
 73
4
 74
0
 40
0
 40
0
 40
0
 40
0
 40
1
 40
1
 40
1
 40
1
 10
164.975032
 20
-8.650392
 30
0.0
 10
164.975032
 20
-8.517762
 30
0.0
 10
164.922336
 20
-8.390566
 30
0.0
 10
164.828541
 20
-8.296794
 30
0.0
  0
SPLINE
  5
329
100
AcDbEntity
  8
0
 62
7
100
AcDbSpline
 70
8
 71
3
 72
8
 73
4
 74
0
 40
0
 40
0
 40
0
 40
0
 40
1
 40
1
 40
1
 40
1
 10
164.828541
 20
-8.296794
 30
0.0
 10
164.734745
 20
-8.203022
 30
0.0
 10
164.607536
 20
-8.150359
 30
0.0
 10
164.474906
 20
-8.150393
 30
0.0
  0
LWPOLYLINE
  5
32a
100
AcDbEntity
  8
0
 62
7
100
AcDbPolyline
 90
2
 70
0
 10
183.522620
 20
-8.149580
 30
0.0
 10
170.522900
 20
-8.149580
 30
0.0
  0
LWPOLYLINE
  5
32b
100
AcDbEntity
  8
0
 62
7
100
AcDbPolyline
 90
2
 70
0
 10
164.973000
 20
-21.649680
 30
0.0
 10
164.973000
 20
-8.649960
 30
0.0
  0
LWPOLYLINE
  5
32c
100
AcDbEntity
  8
0
 62
7
100
AcDbPolyline
 90
2
 70
0
 10
151.472900
 20
-22.150060
 30
0.0
 10
164.472620
 20
-22.150060
 30
0.0
  0
LWPOLYLINE
  5
32d
100
AcDbEntity
  8
0
 62
7
100
AcDbPolyline
 90
2
 70
0
 10
150.972520
 20
-8.649960
 30
0.0
 10
150.972520
 20
-21.649680
 30
0.0
  0
SPLINE
  5
32e
100
AcDbEntity
  8
0
 62
7
100
AcDbSpline
 70
8
 71
3
 72
8
 73
4
 74
0
 40
0
 40
0
 40
0
 40
0
 40
1
 40
1
 40
1
 40
1
 10
202.574906
 20
-22.150390
 30
0.0
 10
202.707536
 20
-22.150424
 30
0.0
 10
202.834745
 20
-22.097760
 30
0.0
 10
202.928541
 20
-22.003989
 30
0.0
  0
SPLINE
  5
32f
100
AcDbEntity
  8
0
 62
7
100
AcDbSpline
 70
8
 71
3
 72
8
 73
4
 74
0
 40
0
 40
0
 40
0
 40
0
 40
1
 40
1
 40
1
 40
1
 10
202.928541
 20
-22.003989
 30
0.0
 10
203.022336
 20
-21.910217
 30
0.0
 10
203.075032
 20
-21.783021
 30
0.0
 10
203.075032
 20
-21.650391
 30
0.0
  0
SPLINE
  5
330
100
AcDbEntity
  8
0
 62
7
100
AcDbSpline
 70
8
 71
3
 72
8
 73
4
 74
0
 40
0
 40
0
 40
0
 40
0
 40
1
 40
1
 40
1
 40
1
 10
189.075060
 20
-21.650391
 30
0.0
 10
189.075060
 20
-21.926483
 30
0.0
 10
189.298840
 20
-22.150320
 30
0.0
 10
189.574932
 20
-22.150390
 30
0.0
  0
SPLINE
  5
331
100
AcDbEntity
  8
0
 62
7
100
AcDbSpline
 70
8
 71
3
 72
8
 73
4
 74
0
 40
0
 40
0
 40
0
 40
0
 40
1
 40
1
 40
1
 40
1
 10
189.574932
 20
-8.150393
 30
0.0
 10
189.298840
 20
-8.150463
 30
0.0
 10
189.075060
 20
-8.374299
 30
0.0
 10
189.075060
 20
-8.650392
 30
0.0
  0
SPLINE
  5
332
100
AcDbEntity
  8
0
 62
7
100
AcDbSpline
 70
8
 71
3
 72
8
 73
4
 74
0
 40
0
 40
0
 40
0
 40
0
 40
1
 40
1
 40
1
 40
1
 10
203.075032
 20
-8.650392
 30
0.0
 10
203.075032
 20
-8.517762
 30
0.0
 10
203.022336
 20
-8.390566
 30
0.0
 10
202.928541
 20
-8.296794
 30
0.0
  0
SPLINE
  5
333
100
AcDbEntity
  8
0
 62
7
100
AcDbSpline
 70
8
 71
3
 72
8
 73
4
 74
0
 40
0
 40
0
 40
0
 40
0
 40
1
 40
1
 40
1
 40
1
 10
202.928541
 20
-8.296794
 30
0.0
 10
202.834745
 20
-8.203022
 30
0.0
 10
202.707536
 20
-8.150359
 30
0.0
 10
202.574906
 20
-8.150393
 30
0.0
  0
LWPOLYLINE
  5
334
100
AcDbEntity
  8
0
 62
7
100
AcDbPolyline
 90
2
 70
0
 10
164.472620
 20
-8.149580
 30
0.0
 10
151.472900
 20
-8.149580
 30
0.0
  0
LWPOLYLINE
  5
335
100
AcDbEntity
  8
0
 62
7
100
AcDbPolyline
 90
2
 70
0
 10
203.073000
 20
-21.649680
 30
0.0
 10
203.073000
 20
-8.649960
 30
0.0
  0
LWPOLYLINE
  5
336
100
AcDbEntity
  8
0
 62
7
100
AcDbPolyline
 90
2
 70
0
 10
189.572900
 20
-22.150060
 30
0.0
 10
202.572620
 20
-22.150060
 30
0.0
  0
LWPOLYLINE
  5
337
100
AcDbEntity
  8
0
 62
7
100
AcDbPolyline
 90
2
 70
0
 10
189.072520
 20
-8.649960
 30
0.0
 10
189.072520
 20
-21.649680
 30
0.0
  0
SPLINE
  5
338
100
AcDbEntity
  8
0
 62
7
100
AcDbSpline
 70
8
 71
3
 72
8
 73
4
 74
0
 40
0
 40
0
 40
0
 40
0
 40
1
 40
1
 40
1
 40
1
 10
126.374906
 20
-22.150390
 30
0.0
 10
126.507536
 20
-22.150424
 30
0.0
 10
126.634745
 20
-22.097760
 30
0.0
 10
126.728541
 20
-22.003989
 30
0.0
  0
SPLINE
  5
339
100
AcDbEntity
  8
0
 62
7
100
AcDbSpline
 70
8
 71
3
 72
8
 73
4
 74
0
 40
0
 40
0
 40
0
 40
0
 40
1
 40
1
 40
1
 40
1
 10
126.728541
 20
-22.003989
 30
0.0
 10
126.822336
 20
-21.910217
 30
0.0
 10
126.875032
 20
-21.783021
 30
0.0
 10
126.875032
 20
-21.650391
 30
0.0
  0
SPLINE
  5
33a
100
AcDbEntity
  8
0
 62
7
100
AcDbSpline
 70
8
 71
3
 72
8
 73
4
 74
0
 40
0
 40
0
 40
0
 40
0
 40
1
 40
1
 40
1
 40
1
 10
112.875060
 20
-21.650391
 30
0.0
 10
112.875060
 20
-21.926483
 30
0.0
 10
113.098840
 20
-22.150320
 30
0.0
 10
113.374932
 20
-22.150390
 30
0.0
  0
SPLINE
  5
33b
100
AcDbEntity
  8
0
 62
7
100
AcDbSpline
 70
8
 71
3
 72
8
 73
4
 74
0
 40
0
 40
0
 40
0
 40
0
 40
1
 40
1
 40
1
 40
1
 10
113.374932
 20
-8.150393
 30
0.0
 10
113.098840
 20
-8.150463
 30
0.0
 10
112.875060
 20
-8.374299
 30
0.0
 10
112.875060
 20
-8.650392
 30
0.0
  0
SPLINE
  5
33c
100
AcDbEntity
  8
0
 62
7
100
AcDbSpline
 70
8
 71
3
 72
8
 73
4
 74
0
 40
0
 40
0
 40
0
 40
0
 40
1
 40
1
 40
1
 40
1
 10
126.875032
 20
-8.650392
 30
0.0
 10
126.875032
 20
-8.517762
 30
0.0
 10
126.822336
 20
-8.390566
 30
0.0
 10
126.728541
 20
-8.296794
 30
0.0
  0
SPLINE
  5
33d
100
AcDbEntity
  8
0
 62
7
100
AcDbSpline
 70
8
 71
3
 72
8
 73
4
 74
0
 40
0
 40
0
 40
0
 40
0
 40
1
 40
1
 40
1
 40
1
 10
126.728541
 20
-8.296794
 30
0.0
 10
126.634745
 20
-8.203022
 30
0.0
 10
126.507536
 20
-8.150359
 30
0.0
 10
126.374906
 20
-8.150393
 30
0.0
  0
LWPOLYLINE
  5
33e
100
AcDbEntity
  8
0
 62
7
100
AcDbPolyline
 90
2
 70
0
 10
202.572620
 20
-8.149580
 30
0.0
 10
189.572900
 20
-8.149580
 30
0.0
  0
LWPOLYLINE
  5
33f
100
AcDbEntity
  8
0
 62
7
100
AcDbPolyline
 90
2
 70
0
 10
126.873000
 20
-21.649680
 30
0.0
 10
126.873000
 20
-8.649960
 30
0.0
  0
LWPOLYLINE
  5
340
100
AcDbEntity
  8
0
 62
7
100
AcDbPolyline
 90
2
 70
0
 10
113.372900
 20
-22.150060
 30
0.0
 10
126.372620
 20
-22.150060
 30
0.0
  0
LWPOLYLINE
  5
341
100
AcDbEntity
  8
0
 62
7
100
AcDbPolyline
 90
2
 70
0
 10
112.872520
 20
-8.649960
 30
0.0
 10
112.872520
 20
-21.649680
 30
0.0
  0
SPLINE
  5
342
100
AcDbEntity
  8
0
 62
7
100
AcDbSpline
 70
8
 71
3
 72
8
 73
4
 74
0
 40
0
 40
0
 40
0
 40
0
 40
1
 40
1
 40
1
 40
1
 10
107.324906
 20
-22.150390
 30
0.0
 10
107.457536
 20
-22.150424
 30
0.0
 10
107.584745
 20
-22.097760
 30
0.0
 10
107.678541
 20
-22.003989
 30
0.0
  0
SPLINE
  5
343
100
AcDbEntity
  8
0
 62
7
100
AcDbSpline
 70
8
 71
3
 72
8
 73
4
 74
0
 40
0
 40
0
 40
0
 40
0
 40
1
 40
1
 40
1
 40
1
 10
107.678541
 20
-22.003989
 30
0.0
 10
107.772336
 20
-21.910217
 30
0.0
 10
107.825032
 20
-21.783021
 30
0.0
 10
107.825032
 20
-21.650391
 30
0.0
  0
SPLINE
  5
344
100
AcDbEntity
  8
0
 62
7
100
AcDbSpline
 70
8
 71
3
 72
8
 73
4
 74
0
 40
0
 40
0
 40
0
 40
0
 40
1
 40
1
 40
1
 40
1
 10
93.825060
 20
-21.650391
 30
0.0
 10
93.825060
 20
-21.926483
 30
0.0
 10
94.048840
 20
-22.150320
 30
0.0
 10
94.324932
 20
-22.150390
 30
0.0
  0
SPLINE
  5
345
100
AcDbEntity
  8
0
 62
7
100
AcDbSpline
 70
8
 71
3
 72
8
 73
4
 74
0
 40
0
 40
0
 40
0
 40
0
 40
1
 40
1
 40
1
 40
1
 10
94.324932
 20
-8.150393
 30
0.0
 10
94.048840
 20
-8.150463
 30
0.0
 10
93.825060
 20
-8.374299
 30
0.0
 10
93.825060
 20
-8.650392
 30
0.0
  0
SPLINE
  5
346
100
AcDbEntity
  8
0
 62
7
100
AcDbSpline
 70
8
 71
3
 72
8
 73
4
 74
0
 40
0
 40
0
 40
0
 40
0
 40
1
 40
1
 40
1
 40
1
 10
107.825032
 20
-8.650392
 30
0.0
 10
107.825032
 20
-8.517762
 30
0.0
 10
107.772336
 20
-8.390566
 30
0.0
 10
107.678541
 20
-8.296794
 30
0.0
  0
SPLINE
  5
347
100
AcDbEntity
  8
0
 62
7
100
AcDbSpline
 70
8
 71
3
 72
8
 73
4
 74
0
 40
0
 40
0
 40
0
 40
0
 40
1
 40
1
 40
1
 40
1
 10
107.678541
 20
-8.296794
 30
0.0
 10
107.584745
 20
-8.203022
 30
0.0
 10
107.457536
 20
-8.150359
 30
0.0
 10
107.324906
 20
-8.150393
 30
0.0
  0
LWPOLYLINE
  5
348
100
AcDbEntity
  8
0
 62
7
100
AcDbPolyline
 90
2
 70
0
 10
126.372620
 20
-8.149580
 30
0.0
 10
113.372900
 20
-8.149580
 30
0.0
  0
LWPOLYLINE
  5
349
100
AcDbEntity
  8
0
 62
7
100
AcDbPolyline
 90
2
 70
0
 10
107.823000
 20
-21.649680
 30
0.0
 10
107.823000
 20
-8.649960
 30
0.0
  0
LWPOLYLINE
  5
34a
100
AcDbEntity
  8
0
 62
7
100
AcDbPolyline
 90
2
 70
0
 10
94.322900
 20
-22.150060
 30
0.0
 10
107.322620
 20
-22.150060
 30
0.0
  0
LWPOLYLINE
  5
34b
100
AcDbEntity
  8
0
 62
7
100
AcDbPolyline
 90
2
 70
0
 10
93.822520
 20
-8.649960
 30
0.0
 10
93.822520
 20
-21.649680
 30
0.0
  0
SPLINE
  5
34c
100
AcDbEntity
  8
0
 62
7
100
AcDbSpline
 70
8
 71
3
 72
8
 73
4
 74
0
 40
0
 40
0
 40
0
 40
0
 40
1
 40
1
 40
1
 40
1
 10
69.224906
 20
-22.150390
 30
0.0
 10
69.357536
 20
-22.150424
 30
0.0
 10
69.484745
 20
-22.097760
 30
0.0
 10
69.578541
 20
-22.003989
 30
0.0
  0
SPLINE
  5
34d
100
AcDbEntity
  8
0
 62
7
100
AcDbSpline
 70
8
 71
3
 72
8
 73
4
 74
0
 40
0
 40
0
 40
0
 40
0
 40
1
 40
1
 40
1
 40
1
 10
69.578541
 20
-22.003989
 30
0.0
 10
69.672336
 20
-21.910217
 30
0.0
 10
69.725032
 20
-21.783021
 30
0.0
 10
69.725032
 20
-21.650391
 30
0.0
  0
SPLINE
  5
34e
100
AcDbEntity
  8
0
 62
7
100
AcDbSpline
 70
8
 71
3
 72
8
 73
4
 74
0
 40
0
 40
0
 40
0
 40
0
 40
1
 40
1
 40
1
 40
1
 10
55.725060
 20
-21.650391
 30
0.0
 10
55.725060
 20
-21.926483
 30
0.0
 10
55.948840
 20
-22.150320
 30
0.0
 10
56.224932
 20
-22.150390
 30
0.0
  0
SPLINE
  5
34f
100
AcDbEntity
  8
0
 62
7
100
AcDbSpline
 70
8
 71
3
 72
8
 73
4
 74
0
 40
0
 40
0
 40
0
 40
0
 40
1
 40
1
 40
1
 40
1
 10
56.224932
 20
-8.150393
 30
0.0
 10
55.948840
 20
-8.150463
 30
0.0
 10
55.725060
 20
-8.374299
 30
0.0
 10
55.725060
 20
-8.650392
 30
0.0
  0
SPLINE
  5
350
100
AcDbEntity
  8
0
 62
7
100
AcDbSpline
 70
8
 71
3
 72
8
 73
4
 74
0
 40
0
 40
0
 40
0
 40
0
 40
1
 40
1
 40
1
 40
1
 10
69.725032
 20
-8.650392
 30
0.0
 10
69.725032
 20
-8.517762
 30
0.0
 10
69.672336
 20
-8.390566
 30
0.0
 10
69.578541
 20
-8.296794
 30
0.0
  0
SPLINE
  5
351
100
AcDbEntity
  8
0
 62
7
100
AcDbSpline
 70
8
 71
3
 72
8
 73
4
 74
0
 40
0
 40
0
 40
0
 40
0
 40
1
 40
1
 40
1
 40
1
 10
69.578541
 20
-8.296794
 30
0.0
 10
69.484745
 20
-8.203022
 30
0.0
 10
69.357536
 20
-8.150359
 30
0.0
 10
69.224906
 20
-8.150393
 30
0.0
  0
LWPOLYLINE
  5
352
100
AcDbEntity
  8
0
 62
7
100
AcDbPolyline
 90
2
 70
0
 10
107.322620
 20
-8.149580
 30
0.0
 10
94.322900
 20
-8.149580
 30
0.0
  0
LWPOLYLINE
  5
353
100
AcDbEntity
  8
0
 62
7
100
AcDbPolyline
 90
2
 70
0
 10
69.723000
 20
-21.649680
 30
0.0
 10
69.723000
 20
-8.649960
 30
0.0
  0
LWPOLYLINE
  5
354
100
AcDbEntity
  8
0
 62
7
100
AcDbPolyline
 90
2
 70
0
 10
56.222900
 20
-22.150060
 30
0.0
 10
69.222620
 20
-22.150060
 30
0.0
  0
LWPOLYLINE
  5
355
100
AcDbEntity
  8
0
 62
7
100
AcDbPolyline
 90
2
 70
0
 10
55.722520
 20
-8.649960
 30
0.0
 10
55.722520
 20
-21.649680
 30
0.0
  0
SPLINE
  5
356
100
AcDbEntity
  8
0
 62
7
100
AcDbSpline
 70
8
 71
3
 72
8
 73
4
 74
0
 40
0
 40
0
 40
0
 40
0
 40
1
 40
1
 40
1
 40
1
 10
88.274906
 20
-22.150390
 30
0.0
 10
88.407536
 20
-22.150424
 30
0.0
 10
88.534745
 20
-22.097760
 30
0.0
 10
88.628541
 20
-22.003989
 30
0.0
  0
SPLINE
  5
357
100
AcDbEntity
  8
0
 62
7
100
AcDbSpline
 70
8
 71
3
 72
8
 73
4
 74
0
 40
0
 40
0
 40
0
 40
0
 40
1
 40
1
 40
1
 40
1
 10
88.628541
 20
-22.003989
 30
0.0
 10
88.722336
 20
-21.910217
 30
0.0
 10
88.775032
 20
-21.783021
 30
0.0
 10
88.775032
 20
-21.650391
 30
0.0
  0
SPLINE
  5
358
100
AcDbEntity
  8
0
 62
7
100
AcDbSpline
 70
8
 71
3
 72
8
 73
4
 74
0
 40
0
 40
0
 40
0
 40
0
 40
1
 40
1
 40
1
 40
1
 10
74.775060
 20
-21.650391
 30
0.0
 10
74.775060
 20
-21.926483
 30
0.0
 10
74.998840
 20
-22.150320
 30
0.0
 10
75.274932
 20
-22.150390
 30
0.0
  0
SPLINE
  5
359
100
AcDbEntity
  8
0
 62
7
100
AcDbSpline
 70
8
 71
3
 72
8
 73
4
 74
0
 40
0
 40
0
 40
0
 40
0
 40
1
 40
1
 40
1
 40
1
 10
75.274932
 20
-8.150393
 30
0.0
 10
74.998840
 20
-8.150463
 30
0.0
 10
74.775060
 20
-8.374299
 30
0.0
 10
74.775060
 20
-8.650392
 30
0.0
  0
SPLINE
  5
35a
100
AcDbEntity
  8
0
 62
7
100
AcDbSpline
 70
8
 71
3
 72
8
 73
4
 74
0
 40
0
 40
0
 40
0
 40
0
 40
1
 40
1
 40
1
 40
1
 10
88.775032
 20
-8.650392
 30
0.0
 10
88.775032
 20
-8.517762
 30
0.0
 10
88.722336
 20
-8.390566
 30
0.0
 10
88.628541
 20
-8.296794
 30
0.0
  0
SPLINE
  5
35b
100
AcDbEntity
  8
0
 62
7
100
AcDbSpline
 70
8
 71
3
 72
8
 73
4
 74
0
 40
0
 40
0
 40
0
 40
0
 40
1
 40
1
 40
1
 40
1
 10
88.628541
 20
-8.296794
 30
0.0
 10
88.534745
 20
-8.203022
 30
0.0
 10
88.407536
 20
-8.150359
 30
0.0
 10
88.274906
 20
-8.150393
 30
0.0
  0
LWPOLYLINE
  5
35c
100
AcDbEntity
  8
0
 62
7
100
AcDbPolyline
 90
2
 70
0
 10
69.222620
 20
-8.149580
 30
0.0
 10
56.222900
 20
-8.149580
 30
0.0
  0
LWPOLYLINE
  5
35d
100
AcDbEntity
  8
0
 62
7
100
AcDbPolyline
 90
2
 70
0
 10
88.773000
 20
-21.649680
 30
0.0
 10
88.773000
 20
-8.649960
 30
0.0
  0
LWPOLYLINE
  5
35e
100
AcDbEntity
  8
0
 62
7
100
AcDbPolyline
 90
2
 70
0
 10
75.272900
 20
-22.150060
 30
0.0
 10
88.272620
 20
-22.150060
 30
0.0
  0
LWPOLYLINE
  5
35f
100
AcDbEntity
  8
0
 62
7
100
AcDbPolyline
 90
2
 70
0
 10
74.772520
 20
-8.649960
 30
0.0
 10
74.772520
 20
-21.649680
 30
0.0
  0
SPLINE
  5
360
100
AcDbEntity
  8
0
 62
7
100
AcDbSpline
 70
8
 71
3
 72
8
 73
4
 74
0
 40
0
 40
0
 40
0
 40
0
 40
1
 40
1
 40
1
 40
1
 10
57.318656
 20
-60.250314
 30
0.0
 10
57.451264
 20
-60.250348
 30
0.0
 10
57.578454
 20
-60.197702
 30
0.0
 10
57.672246
 20
-60.103957
 30
0.0
  0
SPLINE
  5
361
100
AcDbEntity
  8
0
 62
7
100
AcDbSpline
 70
8
 71
3
 72
8
 73
4
 74
0
 40
0
 40
0
 40
0
 40
0
 40
1
 40
1
 40
1
 40
1
 10
57.672246
 20
-60.103957
 30
0.0
 10
57.766038
 20
-60.010213
 30
0.0
 10
57.818748
 20
-59.883050
 30
0.0
 10
57.818782
 20
-59.750442
 30
0.0
  0
SPLINE
  5
362
100
AcDbEntity
  8
0
 62
7
100
AcDbSpline
 70
8
 71
3
 72
8
 73
4
 74
0
 40
0
 40
0
 40
0
 40
0
 40
1
 40
1
 40
1
 40
1
 10
43.818810
 20
-59.750442
 30
0.0
 10
43.818880
 20
-60.026484
 30
0.0
 10
44.042639
 20
-60.250244
 30
0.0
 10
44.318682
 20
-60.250314
 30
0.0
  0
SPLINE
  5
363
100
AcDbEntity
  8
0
 62
7
100
AcDbSpline
 70
8
 71
3
 72
8
 73
4
 74
0
 40
0
 40
0
 40
0
 40
0
 40
1
 40
1
 40
1
 40
1
 10
44.318682
 20
-46.250342
 30
0.0
 10
44.186074
 20
-46.250376
 30
0.0
 10
44.058911
 20
-46.303086
 30
0.0
 10
43.965167
 20
-46.396878
 30
0.0
  0
SPLINE
  5
364
100
AcDbEntity
  8
0
 62
7
100
AcDbSpline
 70
8
 71
3
 72
8
 73
4
 74
0
 40
0
 40
0
 40
0
 40
0
 40
1
 40
1
 40
1
 40
1
 10
43.965167
 20
-46.396878
 30
0.0
 10
43.871422
 20
-46.490670
 30
0.0
 10
43.818776
 20
-46.617860
 30
0.0
 10
43.818810
 20
-46.750468
 30
0.0
  0
SPLINE
  5
365
100
AcDbEntity
  8
0
 62
7
100
AcDbSpline
 70
8
 71
3
 72
8
 73
4
 74
0
 40
0
 40
0
 40
0
 40
0
 40
1
 40
1
 40
1
 40
1
 10
57.818782
 20
-46.750468
 30
0.0
 10
57.818816
 20
-46.617816
 30
0.0
 10
57.766135
 20
-46.490587
 30
0.0
 10
57.672336
 20
-46.396788
 30
0.0
  0
SPLINE
  5
366
100
AcDbEntity
  8
0
 62
7
100
AcDbSpline
 70
8
 71
3
 72
8
 73
4
 74
0
 40
0
 40
0
 40
0
 40
0
 40
1
 40
1
 40
1
 40
1
 10
57.672336
 20
-46.396788
 30
0.0
 10
57.578537
 20
-46.302989
 30
0.0
 10
57.451308
 20
-46.250308
 30
0.0
 10
57.318656
 20
-46.250342
 30
0.0
  0
LWPOLYLINE
  5
367
100
AcDbEntity
  8
0
 62
7
100
AcDbPolyline
 90
2
 70
0
 10
88.272620
 20
-8.149580
 30
0.0
 10
75.272900
 20
-8.149580
 30
0.0
  0
LWPOLYLINE
  5
368
100
AcDbEntity
  8
0
 62
7
100
AcDbPolyline
 90
2
 70
0
 10
57.818020
 20
-59.749680
 30
0.0
 10
57.818020
 20
-46.749960
 30
0.0
  0
LWPOLYLINE
  5
369
100
AcDbEntity
  8
0
 62
7
100
AcDbPolyline
 90
2
 70
0
 10
44.317920
 20
-60.250060
 30
0.0
 10
57.317640
 20
-60.250060
 30
0.0
  0
LWPOLYLINE
  5
36a
100
AcDbEntity
  8
0
 62
7
100
AcDbPolyline
 90
2
 70
0
 10
43.817540
 20
-46.749960
 30
0.0
 10
43.817540
 20
-59.749680
 30
0.0
  0
SPLINE
  5
36b
100
AcDbEntity
  8
0
 62
7
100
AcDbSpline
 70
8
 71
3
 72
8
 73
4
 74
0
 40
0
 40
0
 40
0
 40
0
 40
1
 40
1
 40
1
 40
1
 10
52.556156
 20
-41.200314
 30
0.0
 10
52.688764
 20
-41.200348
 30
0.0
 10
52.815954
 20
-41.147702
 30
0.0
 10
52.909746
 20
-41.053957
 30
0.0
  0
SPLINE
  5
36c
100
AcDbEntity
  8
0
 62
7
100
AcDbSpline
 70
8
 71
3
 72
8
 73
4
 74
0
 40
0
 40
0
 40
0
 40
0
 40
1
 40
1
 40
1
 40
1
 10
52.909746
 20
-41.053957
 30
0.0
 10
53.003538
 20
-40.960213
 30
0.0
 10
53.056248
 20
-40.833050
 30
0.0
 10
53.056282
 20
-40.700442
 30
0.0
  0
SPLINE
  5
36d
100
AcDbEntity
  8
0
 62
7
100
AcDbSpline
 70
8
 71
3
 72
8
 73
4
 74
0
 40
0
 40
0
 40
0
 40
0
 40
1
 40
1
 40
1
 40
1
 10
39.056310
 20
-40.700442
 30
0.0
 10
39.056380
 20
-40.976484
 30
0.0
 10
39.280139
 20
-41.200244
 30
0.0
 10
39.556182
 20
-41.200314
 30
0.0
  0
SPLINE
  5
36e
100
AcDbEntity
  8
0
 62
7
100
AcDbSpline
 70
8
 71
3
 72
8
 73
4
 74
0
 40
0
 40
0
 40
0
 40
0
 40
1
 40
1
 40
1
 40
1
 10
39.556182
 20
-27.200342
 30
0.0
 10
39.423574
 20
-27.200376
 30
0.0
 10
39.296411
 20
-27.253086
 30
0.0
 10
39.202667
 20
-27.346878
 30
0.0
  0
SPLINE
  5
36f
100
AcDbEntity
  8
0
 62
7
100
AcDbSpline
 70
8
 71
3
 72
8
 73
4
 74
0
 40
0
 40
0
 40
0
 40
0
 40
1
 40
1
 40
1
 40
1
 10
39.202667
 20
-27.346878
 30
0.0
 10
39.108922
 20
-27.440670
 30
0.0
 10
39.056276
 20
-27.567860
 30
0.0
 10
39.056310
 20
-27.700468
 30
0.0
  0
SPLINE
  5
370
100
AcDbEntity
  8
0
 62
7
100
AcDbSpline
 70
8
 71
3
 72
8
 73
4
 74
0
 40
0
 40
0
 40
0
 40
0
 40
1
 40
1
 40
1
 40
1
 10
53.056282
 20
-27.700468
 30
0.0
 10
53.056316
 20
-27.567816
 30
0.0
 10
53.003635
 20
-27.440587
 30
0.0
 10
52.909836
 20
-27.346788
 30
0.0
  0
SPLINE
  5
371
100
AcDbEntity
  8
0
 62
7
100
AcDbSpline
 70
8
 71
3
 72
8
 73
4
 74
0
 40
0
 40
0
 40
0
 40
0
 40
1
 40
1
 40
1
 40
1
 10
52.909836
 20
-27.346788
 30
0.0
 10
52.816037
 20
-27.252989
 30
0.0
 10
52.688808
 20
-27.200308
 30
0.0
 10
52.556156
 20
-27.200342
 30
0.0
  0
LWPOLYLINE
  5
372
100
AcDbEntity
  8
0
 62
7
100
AcDbPolyline
 90
2
 70
0
 10
57.317640
 20
-46.249580
 30
0.0
 10
44.317920
 20
-46.249580
 30
0.0
  0
LWPOLYLINE
  5
373
100
AcDbEntity
  8
0
 62
7
100
AcDbPolyline
 90
2
 70
0
 10
53.055520
 20
-40.699680
 30
0.0
 10
53.055520
 20
-27.699960
 30
0.0
  0
LWPOLYLINE
  5
374
100
AcDbEntity
  8
0
 62
7
100
AcDbPolyline
 90
2
 70
0
 10
39.555420
 20
-41.200060
 30
0.0
 10
52.555140
 20
-41.200060
 30
0.0
  0
LWPOLYLINE
  5
375
100
AcDbEntity
  8
0
 62
7
100
AcDbPolyline
 90
2
 70
0
 10
39.055040
 20
-27.699960
 30
0.0
 10
39.055040
 20
-40.699680
 30
0.0
  0
LWPOLYLINE
  5
376
100
AcDbEntity
  8
0
 62
7
100
AcDbPolyline
 90
2
 70
0
 10
52.555140
 20
-27.199580
 30
0.0
 10
39.555420
 20
-27.199580
 30
0.0
  0
LWPOLYLINE
  5
377
100
AcDbEntity
  8
0
 62
7
100
AcDbPolyline
 90
2
 70
0
 10
21.597620
 20
-65.299580
 30
0.0
 10
8.597900
 20
-65.299580
 30
0.0
  0
LWPOLYLINE
  5
378
100
AcDbEntity
  8
0
 62
7
100
AcDbPolyline
 90
2
 70
0
 10
8.097520
 20
-65.799960
 30
0.0
 10
8.097520
 20
-78.799680
 30
0.0
  0
LWPOLYLINE
  5
379
100
AcDbEntity
  8
0
 62
7
100
AcDbPolyline
 90
2
 70
0
 10
8.597900
 20
-79.300060
 30
0.0
 10
21.597620
 20
-79.300060
 30
0.0
  0
SPLINE
  5
37a
100
AcDbEntity
  8
0
 62
7
100
AcDbSpline
 70
8
 71
3
 72
8
 73
4
 74
0
 40
0
 40
0
 40
0
 40
0
 40
1
 40
1
 40
1
 40
1
 10
22.100007
 20
-65.800468
 30
0.0
 10
22.100040
 20
-65.667838
 30
0.0
 10
22.047377
 20
-65.540629
 30
0.0
 10
21.953605
 20
-65.446833
 30
0.0
  0
SPLINE
  5
37b
100
AcDbEntity
  8
0
 62
7
100
AcDbSpline
 70
8
 71
3
 72
8
 73
4
 74
0
 40
0
 40
0
 40
0
 40
0
 40
1
 40
1
 40
1
 40
1
 10
21.953605
 20
-65.446833
 30
0.0
 10
21.859834
 20
-65.353038
 30
0.0
 10
21.732638
 20
-65.300342
 30
0.0
 10
21.600008
 20
-65.300342
 30
0.0
  0
SPLINE
  5
37c
100
AcDbEntity
  8
0
 62
7
100
AcDbSpline
 70
8
 71
3
 72
8
 73
4
 74
0
 40
0
 40
0
 40
0
 40
0
 40
1
 40
1
 40
1
 40
1
 10
8.600008
 20
-65.300342
 30
0.0
 10
8.467378
 20
-65.300342
 30
0.0
 10
8.340182
 20
-65.353038
 30
0.0
 10
8.246411
 20
-65.446833
 30
0.0
  0
SPLINE
  5
37d
100
AcDbEntity
  8
0
 62
7
100
AcDbSpline
 70
8
 71
3
 72
8
 73
4
 74
0
 40
0
 40
0
 40
0
 40
0
 40
1
 40
1
 40
1
 40
1
 10
8.246411
 20
-65.446833
 30
0.0
 10
8.152639
 20
-65.540629
 30
0.0
 10
8.099976
 20
-65.667838
 30
0.0
 10
8.100009
 20
-65.800468
 30
0.0
  0
SPLINE
  5
37e
100
AcDbEntity
  8
0
 62
7
100
AcDbSpline
 70
8
 71
3
 72
8
 73
4
 74
0
 40
0
 40
0
 40
0
 40
0
 40
1
 40
1
 40
1
 40
1
 10
8.100009
 20
-78.800442
 30
0.0
 10
8.100079
 20
-79.076534
 30
0.0
 10
8.323916
 20
-79.300314
 30
0.0
 10
8.600008
 20
-79.300314
 30
0.0
  0
SPLINE
  5
37f
100
AcDbEntity
  8
0
 62
7
100
AcDbSpline
 70
8
 71
3
 72
8
 73
4
 74
0
 40
0
 40
0
 40
0
 40
0
 40
1
 40
1
 40
1
 40
1
 10
21.600008
 20
-79.300314
 30
0.0
 10
21.876100
 20
-79.300314
 30
0.0
 10
22.099936
 20
-79.076534
 30
0.0
 10
22.100007
 20
-78.800442
 30
0.0
  0
LWPOLYLINE
  5
380
100
AcDbEntity
  8
0
 62
7
100
AcDbPolyline
 90
2
 70
0
 10
22.098000
 20
-78.799680
 30
0.0
 10
22.098000
 20
-65.799960
 30
0.0
  0
LWPOLYLINE
  5
381
100
AcDbEntity
  8
0
 62
7
100
AcDbPolyline
 90
2
 70
0
 10
21.597620
 20
-46.249580
 30
0.0
 10
8.597900
 20
-46.249580
 30
0.0
  0
LWPOLYLINE
  5
382
100
AcDbEntity
  8
0
 62
7
100
AcDbPolyline
 90
2
 70
0
 10
8.097520
 20
-46.749960
 30
0.0
 10
8.097520
 20
-59.749680
 30
0.0
  0
LWPOLYLINE
  5
383
100
AcDbEntity
  8
0
 62
7
100
AcDbPolyline
 90
2
 70
0
 10
8.597900
 20
-60.250060
 30
0.0
 10
21.597620
 20
-60.250060
 30
0.0
  0
SPLINE
  5
384
100
AcDbEntity
  8
0
 62
7
100
AcDbSpline
 70
8
 71
3
 72
8
 73
4
 74
0
 40
0
 40
0
 40
0
 40
0
 40
1
 40
1
 40
1
 40
1
 10
22.100007
 20
-46.750468
 30
0.0
 10
22.100040
 20
-46.617838
 30
0.0
 10
22.047377
 20
-46.490629
 30
0.0
 10
21.953605
 20
-46.396833
 30
0.0
  0
SPLINE
  5
385
100
AcDbEntity
  8
0
 62
7
100
AcDbSpline
 70
8
 71
3
 72
8
 73
4
 74
0
 40
0
 40
0
 40
0
 40
0
 40
1
 40
1
 40
1
 40
1
 10
21.953605
 20
-46.396833
 30
0.0
 10
21.859834
 20
-46.303038
 30
0.0
 10
21.732638
 20
-46.250342
 30
0.0
 10
21.600008
 20
-46.250342
 30
0.0
  0
SPLINE
  5
386
100
AcDbEntity
  8
0
 62
7
100
AcDbSpline
 70
8
 71
3
 72
8
 73
4
 74
0
 40
0
 40
0
 40
0
 40
0
 40
1
 40
1
 40
1
 40
1
 10
8.600008
 20
-46.250342
 30
0.0
 10
8.467378
 20
-46.250342
 30
0.0
 10
8.340182
 20
-46.303038
 30
0.0
 10
8.246411
 20
-46.396833
 30
0.0
  0
SPLINE
  5
387
100
AcDbEntity
  8
0
 62
7
100
AcDbSpline
 70
8
 71
3
 72
8
 73
4
 74
0
 40
0
 40
0
 40
0
 40
0
 40
1
 40
1
 40
1
 40
1
 10
8.246411
 20
-46.396833
 30
0.0
 10
8.152639
 20
-46.490629
 30
0.0
 10
8.099976
 20
-46.617838
 30
0.0
 10
8.100009
 20
-46.750468
 30
0.0
  0
SPLINE
  5
388
100
AcDbEntity
  8
0
 62
7
100
AcDbSpline
 70
8
 71
3
 72
8
 73
4
 74
0
 40
0
 40
0
 40
0
 40
0
 40
1
 40
1
 40
1
 40
1
 10
8.100009
 20
-59.750442
 30
0.0
 10
8.100079
 20
-60.026534
 30
0.0
 10
8.323916
 20
-60.250314
 30
0.0
 10
8.600008
 20
-60.250314
 30
0.0
  0
SPLINE
  5
389
100
AcDbEntity
  8
0
 62
7
100
AcDbSpline
 70
8
 71
3
 72
8
 73
4
 74
0
 40
0
 40
0
 40
0
 40
0
 40
1
 40
1
 40
1
 40
1
 10
21.600008
 20
-60.250314
 30
0.0
 10
21.876100
 20
-60.250314
 30
0.0
 10
22.099936
 20
-60.026534
 30
0.0
 10
22.100007
 20
-59.750442
 30
0.0
  0
LWPOLYLINE
  5
38a
100
AcDbEntity
  8
0
 62
7
100
AcDbPolyline
 90
2
 70
0
 10
22.098000
 20
-59.749680
 30
0.0
 10
22.098000
 20
-46.749960
 30
0.0
  0
LWPOLYLINE
  5
38b
100
AcDbEntity
  8
0
 62
7
100
AcDbPolyline
 90
2
 70
0
 10
21.597620
 20
-27.199580
 30
0.0
 10
8.597900
 20
-27.199580
 30
0.0
  0
LWPOLYLINE
  5
38c
100
AcDbEntity
  8
0
 62
7
100
AcDbPolyline
 90
2
 70
0
 10
8.097520
 20
-27.699960
 30
0.0
 10
8.097520
 20
-40.699680
 30
0.0
  0
LWPOLYLINE
  5
38d
100
AcDbEntity
  8
0
 62
7
100
AcDbPolyline
 90
2
 70
0
 10
8.597900
 20
-41.200060
 30
0.0
 10
21.597620
 20
-41.200060
 30
0.0
  0
SPLINE
  5
38e
100
AcDbEntity
  8
0
 62
7
100
AcDbSpline
 70
8
 71
3
 72
8
 73
4
 74
0
 40
0
 40
0
 40
0
 40
0
 40
1
 40
1
 40
1
 40
1
 10
22.100007
 20
-27.700468
 30
0.0
 10
22.100040
 20
-27.567838
 30
0.0
 10
22.047377
 20
-27.440629
 30
0.0
 10
21.953605
 20
-27.346833
 30
0.0
  0
SPLINE
  5
38f
100
AcDbEntity
  8
0
 62
7
100
AcDbSpline
 70
8
 71
3
 72
8
 73
4
 74
0
 40
0
 40
0
 40
0
 40
0
 40
1
 40
1
 40
1
 40
1
 10
21.953605
 20
-27.346833
 30
0.0
 10
21.859834
 20
-27.253038
 30
0.0
 10
21.732638
 20
-27.200342
 30
0.0
 10
21.600008
 20
-27.200342
 30
0.0
  0
SPLINE
  5
390
100
AcDbEntity
  8
0
 62
7
100
AcDbSpline
 70
8
 71
3
 72
8
 73
4
 74
0
 40
0
 40
0
 40
0
 40
0
 40
1
 40
1
 40
1
 40
1
 10
8.600008
 20
-27.200342
 30
0.0
 10
8.467378
 20
-27.200342
 30
0.0
 10
8.340182
 20
-27.253038
 30
0.0
 10
8.246411
 20
-27.346833
 30
0.0
  0
SPLINE
  5
391
100
AcDbEntity
  8
0
 62
7
100
AcDbSpline
 70
8
 71
3
 72
8
 73
4
 74
0
 40
0
 40
0
 40
0
 40
0
 40
1
 40
1
 40
1
 40
1
 10
8.246411
 20
-27.346833
 30
0.0
 10
8.152639
 20
-27.440629
 30
0.0
 10
8.099976
 20
-27.567838
 30
0.0
 10
8.100009
 20
-27.700468
 30
0.0
  0
SPLINE
  5
392
100
AcDbEntity
  8
0
 62
7
100
AcDbSpline
 70
8
 71
3
 72
8
 73
4
 74
0
 40
0
 40
0
 40
0
 40
0
 40
1
 40
1
 40
1
 40
1
 10
8.100009
 20
-40.700442
 30
0.0
 10
8.100079
 20
-40.976534
 30
0.0
 10
8.323916
 20
-41.200314
 30
0.0
 10
8.600008
 20
-41.200314
 30
0.0
  0
SPLINE
  5
393
100
AcDbEntity
  8
0
 62
7
100
AcDbSpline
 70
8
 71
3
 72
8
 73
4
 74
0
 40
0
 40
0
 40
0
 40
0
 40
1
 40
1
 40
1
 40
1
 10
21.600008
 20
-41.200314
 30
0.0
 10
21.876100
 20
-41.200314
 30
0.0
 10
22.099936
 20
-40.976534
 30
0.0
 10
22.100007
 20
-40.700442
 30
0.0
  0
LWPOLYLINE
  5
394
100
AcDbEntity
  8
0
 62
7
100
AcDbPolyline
 90
2
 70
0
 10
22.098000
 20
-40.699680
 30
0.0
 10
22.098000
 20
-27.699960
 30
0.0
  0
LWPOLYLINE
  5
395
100
AcDbEntity
  8
0
 62
7
100
AcDbPolyline
 90
2
 70
0
 10
21.597620
 20
-8.149580
 30
0.0
 10
8.597900
 20
-8.149580
 30
0.0
  0
LWPOLYLINE
  5
396
100
AcDbEntity
  8
0
 62
7
100
AcDbPolyline
 90
2
 70
0
 10
8.097520
 20
-8.649960
 30
0.0
 10
8.097520
 20
-21.649680
 30
0.0
  0
LWPOLYLINE
  5
397
100
AcDbEntity
  8
0
 62
7
100
AcDbPolyline
 90
2
 70
0
 10
8.597900
 20
-22.150060
 30
0.0
 10
21.597620
 20
-22.150060
 30
0.0
  0
SPLINE
  5
398
100
AcDbEntity
  8
0
 62
7
100
AcDbSpline
 70
8
 71
3
 72
8
 73
4
 74
0
 40
0
 40
0
 40
0
 40
0
 40
1
 40
1
 40
1
 40
1
 10
22.100007
 20
-8.650392
 30
0.0
 10
22.100007
 20
-8.517784
 30
0.0
 10
22.047328
 20
-8.390607
 30
0.0
 10
21.953560
 20
-8.296839
 30
0.0
  0
SPLINE
  5
399
100
AcDbEntity
  8
0
 62
7
100
AcDbSpline
 70
8
 71
3
 72
8
 73
4
 74
0
 40
0
 40
0
 40
0
 40
0
 40
1
 40
1
 40
1
 40
1
 10
21.953560
 20
-8.296839
 30
0.0
 10
21.859792
 20
-8.203071
 30
0.0
 10
21.732616
 20
-8.150393
 30
0.0
 10
21.600008
 20
-8.150393
 30
0.0
  0
SPLINE
  5
39a
100
AcDbEntity
  8
0
 62
7
100
AcDbSpline
 70
8
 71
3
 72
8
 73
4
 74
0
 40
0
 40
0
 40
0
 40
0
 40
1
 40
1
 40
1
 40
1
 10
8.600008
 20
-8.150393
 30
0.0
 10
8.467400
 20
-8.150393
 30
0.0
 10
8.340224
 20
-8.203071
 30
0.0
 10
8.246456
 20
-8.296839
 30
0.0
  0
SPLINE
  5
39b
100
AcDbEntity
  8
0
 62
7
100
AcDbSpline
 70
8
 71
3
 72
8
 73
4
 74
0
 40
0
 40
0
 40
0
 40
0
 40
1
 40
1
 40
1
 40
1
 10
8.246456
 20
-8.296839
 30
0.0
 10
8.152688
 20
-8.390607
 30
0.0
 10
8.100009
 20
-8.517784
 30
0.0
 10
8.100009
 20
-8.650392
 30
0.0
  0
SPLINE
  5
39c
100
AcDbEntity
  8
0
 62
7
100
AcDbSpline
 70
8
 71
3
 72
8
 73
4
 74
0
 40
0
 40
0
 40
0
 40
0
 40
1
 40
1
 40
1
 40
1
 10
8.100009
 20
-21.650391
 30
0.0
 10
8.100009
 20
-21.782999
 30
0.0
 10
8.152688
 20
-21.910176
 30
0.0
 10
8.246456
 20
-22.003944
 30
0.0
  0
SPLINE
  5
39d
100
AcDbEntity
  8
0
 62
7
100
AcDbSpline
 70
8
 71
3
 72
8
 73
4
 74
0
 40
0
 40
0
 40
0
 40
0
 40
1
 40
1
 40
1
 40
1
 10
8.246456
 20
-22.003944
 30
0.0
 10
8.340224
 20
-22.097712
 30
0.0
 10
8.467400
 20
-22.150390
 30
0.0
 10
8.600008
 20
-22.150390
 30
0.0
  0
SPLINE
  5
39e
100
AcDbEntity
  8
0
 62
7
100
AcDbSpline
 70
8
 71
3
 72
8
 73
4
 74
0
 40
0
 40
0
 40
0
 40
0
 40
1
 40
1
 40
1
 40
1
 10
21.600008
 20
-22.150390
 30
0.0
 10
21.732616
 20
-22.150390
 30
0.0
 10
21.859792
 20
-22.097712
 30
0.0
 10
21.953560
 20
-22.003944
 30
0.0
  0
SPLINE
  5
39f
100
AcDbEntity
  8
0
 62
7
100
AcDbSpline
 70
8
 71
3
 72
8
 73
4
 74
0
 40
0
 40
0
 40
0
 40
0
 40
1
 40
1
 40
1
 40
1
 10
21.953560
 20
-22.003944
 30
0.0
 10
22.047328
 20
-21.910176
 30
0.0
 10
22.100007
 20
-21.782999
 30
0.0
 10
22.100007
 20
-21.650391
 30
0.0
  0
SPLINE
  5
3a0
100
AcDbEntity
  8
0
 62
7
100
AcDbSpline
 70
8
 71
3
 72
8
 73
4
 74
0
 40
0
 40
0
 40
0
 40
0
 40
1
 40
1
 40
1
 40
1
 10
50.174906
 20
-22.150390
 30
0.0
 10
50.307536
 20
-22.150424
 30
0.0
 10
50.434745
 20
-22.097760
 30
0.0
 10
50.528541
 20
-22.003989
 30
0.0
  0
SPLINE
  5
3a1
100
AcDbEntity
  8
0
 62
7
100
AcDbSpline
 70
8
 71
3
 72
8
 73
4
 74
0
 40
0
 40
0
 40
0
 40
0
 40
1
 40
1
 40
1
 40
1
 10
50.528541
 20
-22.003989
 30
0.0
 10
50.622336
 20
-21.910217
 30
0.0
 10
50.675032
 20
-21.783021
 30
0.0
 10
50.675032
 20
-21.650391
 30
0.0
  0
SPLINE
  5
3a2
100
AcDbEntity
  8
0
 62
7
100
AcDbSpline
 70
8
 71
3
 72
8
 73
4
 74
0
 40
0
 40
0
 40
0
 40
0
 40
1
 40
1
 40
1
 40
1
 10
36.675060
 20
-21.650391
 30
0.0
 10
36.675060
 20
-21.926483
 30
0.0
 10
36.898840
 20
-22.150320
 30
0.0
 10
37.174932
 20
-22.150390
 30
0.0
  0
SPLINE
  5
3a3
100
AcDbEntity
  8
0
 62
7
100
AcDbSpline
 70
8
 71
3
 72
8
 73
4
 74
0
 40
0
 40
0
 40
0
 40
0
 40
1
 40
1
 40
1
 40
1
 10
37.174932
 20
-8.150393
 30
0.0
 10
36.898840
 20
-8.150463
 30
0.0
 10
36.675060
 20
-8.374299
 30
0.0
 10
36.675060
 20
-8.650392
 30
0.0
  0
SPLINE
  5
3a4
100
AcDbEntity
  8
0
 62
7
100
AcDbSpline
 70
8
 71
3
 72
8
 73
4
 74
0
 40
0
 40
0
 40
0
 40
0
 40
1
 40
1
 40
1
 40
1
 10
50.675032
 20
-8.650392
 30
0.0
 10
50.675032
 20
-8.517762
 30
0.0
 10
50.622336
 20
-8.390566
 30
0.0
 10
50.528541
 20
-8.296794
 30
0.0
  0
SPLINE
  5
3a5
100
AcDbEntity
  8
0
 62
7
100
AcDbSpline
 70
8
 71
3
 72
8
 73
4
 74
0
 40
0
 40
0
 40
0
 40
0
 40
1
 40
1
 40
1
 40
1
 10
50.528541
 20
-8.296794
 30
0.0
 10
50.434745
 20
-8.203022
 30
0.0
 10
50.307536
 20
-8.150359
 30
0.0
 10
50.174906
 20
-8.150393
 30
0.0
  0
LWPOLYLINE
  5
3a6
100
AcDbEntity
  8
0
 62
7
100
AcDbPolyline
 90
2
 70
0
 10
22.098000
 20
-21.649680
 30
0.0
 10
22.098000
 20
-8.649960
 30
0.0
  0
LWPOLYLINE
  5
3a7
100
AcDbEntity
  8
0
 62
7
100
AcDbPolyline
 90
2
 70
0
 10
50.673000
 20
-21.649680
 30
0.0
 10
50.673000
 20
-8.649960
 30
0.0
  0
LWPOLYLINE
  5
3a8
100
AcDbEntity
  8
0
 62
7
100
AcDbPolyline
 90
2
 70
0
 10
37.172900
 20
-22.150060
 30
0.0
 10
50.172620
 20
-22.150060
 30
0.0
  0
LWPOLYLINE
  5
3a9
100
AcDbEntity
  8
0
 62
7
100
AcDbPolyline
 90
2
 70
0
 10
36.672520
 20
-8.649960
 30
0.0
 10
36.672520
 20
-21.649680
 30
0.0
  0
LWPOLYLINE
  5
3aa
100
AcDbEntity
  8
0
 62
7
100
AcDbPolyline
 90
2
 70
0
 10
50.172620
 20
-8.149580
 30
0.0
 10
37.172900
 20
-8.149580
 30
0.0
  0
ENDSEC
  0
SECTION
  2
OBJECTS
  0
DICTIONARY
  5
C
330
0
100
AcDbDictionary
  3
ACAD_GROUP
350
D
  3
ACAD_MLINESTYLE
350
17
  0
DICTIONARY
  5
D
330
C
100
AcDbDictionary
  0
DICTIONARY
  5
1A
330
C
100
AcDbDictionary
  0
DICTIONARY
  5
17
330
C
100
AcDbDictionary
  3
STANDARD
350
18
  0
DICTIONARY
  5
19
330
C
100
AcDbDictionary
  0
ENDSEC
  0
EOF
