  0
SECTION
  2
HEADER
  9
$ACADVER
  1
AC1014
  9
$HANDSEED
  5
FFFF
  9
$MEASUREMENT
 70
     1
  0
ENDSEC
  0
SECTION
  2
TABLES
  0
TABLE
  2
VPORT
  5
8
330
0
100
AcDbSymbolTable
 70
     4
  0
VPORT
  5
2E
330
8
100
AcDbSymbolTableRecord
100
AcDbViewportTableRecord
  2
*ACTIVE
 70
     0
 10
0.0
 20
0.0
 11
1.0
 21
1.0
 12
210.0
 22
148.5
 13
0.0
 23
0.0
 14
10.0
 24
10.0
 15
10.0
 25
10.0
 16
0.0
 26
0.0
 36
1.0
 17
0.0
 27
0.0
 37
0.0
 40
341.0
 41
1.24
 42
50.0
 43
0.0
 44
0.0
 50
0.0
 51
0.0
 71
     0
 72
   100
 73
     1
 74
     3
 75
     0
 76
     0
 77
     0
 78
     0
  0
ENDTAB
  0
TABLE
  2
LTYPE
  5
5
330
0
100
AcDbSymbolTable
 70
     1
  0
LTYPE
  5
14
330
5
100
AcDbSymbolTableRecord
100
AcDbLinetypeTableRecord
  2
BYBLOCK
 70
     0
  3

 72
    65
 73
     0
 40
0.0
  0
LTYPE
  5
15
330
5
100
AcDbSymbolTableRecord
100
AcDbLinetypeTableRecord
  2
BYLAYER
 70
     0
  3

 72
    65
 73
     0
 40
0.0
  0
LTYPE
  5
16
330
5
100
AcDbSymbolTableRecord
100
AcDbLinetypeTableRecord
  2
CONTINUOUS
 70
     0
  3
Solid line
 72
    65
 73
     0
 40
0.0
  0
ENDTAB
  0
TABLE
  2
LAYER
  5
2
100
AcDbSymbolTable
 70
1
  0
LAYER
  5
50
100
AcDbSymbolTableRecord
100
AcDbLayerTableRecord
  2
0
 70
0
  6
CONTINUOUS
  0
ENDTAB
  0
TABLE
  2
STYLE
  5
3
330
0
100
AcDbSymbolTable
 70
     1
  0
STYLE
  5
11
330
3
100
AcDbSymbolTableRecord
100
AcDbTextStyleTableRecord
  2
STANDARD
 70
     0
 40
0.0
 41
1.0
 50
0.0
 71
     0
 42
2.5
  3
txt
  4

  0
ENDTAB
  0
TABLE
  2
VIEW
  5
6
330
0
100
AcDbSymbolTable
 70
     0
  0
ENDTAB
  0
TABLE
  2
UCS
  5
7
330
0
100
AcDbSymbolTable
 70
     0
  0
ENDTAB
  0
TABLE
  2
APPID
  5
9
330
0
100
AcDbSymbolTable
 70
     2
  0
APPID
  5
12
330
9
100
AcDbSymbolTableRecord
100
AcDbRegAppTableRecord
  2
ACAD
 70
     0
  0
ENDTAB
  0
TABLE
  2
DIMSTYLE
  5
A
330
0
100
AcDbSymbolTable
 70
     1
  0
DIMSTYLE
105
27
330
A
100
AcDbSymbolTableRecord
100
AcDbDimStyleTableRecord
  2
ISO-25
 70
     0
  3

  4

  5

  6

  7

 40
1.0
 41
2.5
 42
0.625
 43
3.75
 44
1.25
 45
0.0
 46
0.0
 47
0.0
 48
0.0
140
2.5
141
2.5
142
0.0
143
0.03937007874016
144
1.0
145
0.0
146
1.0
147
0.625
 71
     0
 72
     0
 73
     0
 74
     0
 75
     0
 76
     0
 77
     1
 78
     8
170
     0
171
     3
172
     1
173
     0
174
     0
175
     0
176
     0
177
     0
178
     0
270
     2
271
     2
272
     2
273
     2
274
     3
340
11
275
     0
280
     0
281
     0
282
     0
283
     0
284
     8
285
     0
286
     0
287
     3
288
     0
  0
ENDTAB
  0
TABLE
  2
BLOCK_RECORD
  5
1
330
0
100
AcDbSymbolTable
 70
     1
  0
BLOCK_RECORD
  5
1F
330
1
100
AcDbSymbolTableRecord
100
AcDbBlockTableRecord
  2
*MODEL_SPACE
  0
BLOCK_RECORD
  5
1B
330
1
100
AcDbSymbolTableRecord
100
AcDbBlockTableRecord
  2
*PAPER_SPACE
  0
ENDTAB
  0
ENDSEC
  0
SECTION
  2
BLOCKS
  0
BLOCK
  5
20
330
1F
100
AcDbEntity
  8
0
100
AcDbBlockBegin
  2
*MODEL_SPACE
 70
     0
 10
0.0
 20
0.0
 30
0.0
  3
*MODEL_SPACE
  1

  0
ENDBLK
  5
21
330
1F
100
AcDbEntity
  8
0
100
AcDbBlockEnd
  0
BLOCK
  5
1C
330
1B
100
AcDbEntity
 67
     1
  8
0
100
AcDbBlockBegin
  2
*PAPER_SPACE
  1

  0
ENDBLK
  5
1D
330
1B
100
AcDbEntity
 67
     1
  8
0
100
AcDbBlockEnd
  0
ENDSEC
  0
SECTION
  2
ENTITIES
  0
SPLINE
  5
100
100
AcDbEntity
  8
0
 62
7
100
AcDbSpline
 70
8
 71
3
 72
8
 73
4
 74
0
 40
0
 40
0
 40
0
 40
0
 40
1
 40
1
 40
1
 40
1
 10
0.100001
 20
-30.453066
 30
0.0
 10
0.100073
 20
-31.281443
 30
0.0
 10
0.771625
 20
-31.952937
 30
0.0
 10
1.600002
 20
-31.952936
 30
0.0
  0
LWPOLYLINE
  5
101
100
AcDbEntity
  8
0
 62
7
100
AcDbPolyline
 90
2
 70
0
 10
0.099060
 20
-30.451288
 30
0.0
 10
0.099060
 20
-3.727948
 30
0.0
  0
SPLINE
  5
102
100
AcDbEntity
  8
0
 62
7
100
AcDbSpline
 70
8
 71
3
 72
8
 73
4
 74
0
 40
0
 40
0
 40
0
 40
0
 40
1
 40
1
 40
1
 40
1
 10
264.675620
 20
-31.952936
 30
0.0
 10
265.503450
 20
-31.952163
 30
0.0
 10
266.174149
 20
-31.280896
 30
0.0
 10
266.174220
 20
-30.453066
 30
0.0
  0
LWPOLYLINE
  5
103
100
AcDbEntity
  8
0
 62
7
100
AcDbPolyline
 90
2
 70
0
 10
264.673080
 20
-31.952428
 30
0.0
 10
1.597660
 20
-31.952428
 30
0.0
  0
SPLINE
  5
104
100
AcDbEntity
  8
0
 62
7
100
AcDbSpline
 70
8
 71
3
 72
8
 73
4
 74
0
 40
0
 40
0
 40
0
 40
0
 40
1
 40
1
 40
1
 40
1
 10
266.174220
 20
-3.729980
 30
0.0
 10
266.174219
 20
-2.902100
 30
0.0
 10
265.503499
 20
-2.230755
 30
0.0
 10
264.675620
 20
-2.229983
 30
0.0
  0
LWPOLYLINE
  5
105
100
AcDbEntity
  8
0
 62
7
100
AcDbPolyline
 90
2
 70
0
 10
266.174220
 20
-3.727948
 30
0.0
 10
266.174220
 20
-30.451288
 30
0.0
  0
SPLINE
  5
106
100
AcDbEntity
  8
0
 62
7
100
AcDbSpline
 70
8
 71
3
 72
8
 73
4
 74
0
 40
0
 40
0
 40
0
 40
0
 40
1
 40
1
 40
1
 40
1
 10
1.600002
 20
-2.229983
 30
0.0
 10
0.771576
 20
-2.229982
 30
0.0
 10
0.100002
 20
-2.901553
 30
0.0
 10
0.100001
 20
-3.729980
 30
0.0
  0
SPLINE
  5
107
100
AcDbEntity
  8
0
 62
7
100
AcDbSpline
 70
8
 71
3
 72
8
 73
4
 74
0
 40
0
 40
0
 40
0
 40
0
 40
1
 40
1
 40
1
 40
1
 10
62.997080
 20
-13.040858
 30
0.0
 10
61.935371
 20
-13.040858
 30
0.0
 10
60.978205
 20
-13.680416
 30
0.0
 10
60.571907
 20
-14.661307
 30
0.0
  0
SPLINE
  5
108
100
AcDbEntity
  8
0
 62
7
100
AcDbSpline
 70
8
 71
3
 72
8
 73
4
 74
0
 40
0
 40
0
 40
0
 40
0
 40
1
 40
1
 40
1
 40
1
 10
60.571907
 20
-14.661307
 30
0.0
 10
60.165609
 20
-15.642198
 30
0.0
 10
60.390191
 20
-16.771252
 30
0.0
 10
61.140933
 20
-17.521993
 30
0.0
  0
SPLINE
  5
109
100
AcDbEntity
  8
0
 62
7
100
AcDbSpline
 70
8
 71
3
 72
8
 73
4
 74
0
 40
0
 40
0
 40
0
 40
0
 40
1
 40
1
 40
1
 40
1
 10
61.140933
 20
-17.521993
 30
0.0
 10
61.891674
 20
-18.272735
 30
0.0
 10
63.020729
 20
-18.497318
 30
0.0
 10
64.001620
 20
-18.091019
 30
0.0
  0
SPLINE
  5
10a
100
AcDbEntity
  8
0
 62
7
100
AcDbSpline
 70
8
 71
3
 72
8
 73
4
 74
0
 40
0
 40
0
 40
0
 40
0
 40
1
 40
1
 40
1
 40
1
 10
64.001620
 20
-18.091019
 30
0.0
 10
64.982511
 20
-17.684721
 30
0.0
 10
65.622068
 20
-16.727555
 30
0.0
 10
65.622068
 20
-15.665846
 30
0.0
  0
SPLINE
  5
10b
100
AcDbEntity
  8
0
 62
7
100
AcDbSpline
 70
8
 71
3
 72
8
 73
4
 74
0
 40
0
 40
0
 40
0
 40
0
 40
1
 40
1
 40
1
 40
1
 10
65.622068
 20
-15.665846
 30
0.0
 10
65.622068
 20
-14.969656
 30
0.0
 10
65.345508
 20
-14.301980
 30
0.0
 10
64.853227
 20
-13.809699
 30
0.0
  0
SPLINE
  5
10c
100
AcDbEntity
  8
0
 62
7
100
AcDbSpline
 70
8
 71
3
 72
8
 73
4
 74
0
 40
0
 40
0
 40
0
 40
0
 40
1
 40
1
 40
1
 40
1
 10
64.853227
 20
-13.809699
 30
0.0
 10
64.360946
 20
-13.317418
 30
0.0
 10
63.693270
 20
-13.040858
 30
0.0
 10
62.997080
 20
-13.040858
 30
0.0
  0
LWPOLYLINE
  5
10d
100
AcDbEntity
  8
0
 62
7
100
AcDbPolyline
 90
2
 70
0
 10
1.597660
 20
-2.229348
 30
0.0
 10
264.673080
 20
-2.229348
 30
0.0
  0
SPLINE
  5
10e
100
AcDbEntity
  8
0
 62
7
100
AcDbSpline
 70
8
 71
3
 72
8
 73
4
 74
0
 40
0
 40
0
 40
0
 40
0
 40
1
 40
1
 40
1
 40
1
 10
263.715500
 20
-3.062008
 30
0.0
 10
263.270591
 20
-3.062008
 30
0.0
 10
262.869491
 20
-3.330015
 30
0.0
 10
262.699232
 20
-3.741057
 30
0.0
  0
SPLINE
  5
10f
100
AcDbEntity
  8
0
 62
7
100
AcDbSpline
 70
8
 71
3
 72
8
 73
4
 74
0
 40
0
 40
0
 40
0
 40
0
 40
1
 40
1
 40
1
 40
1
 10
262.699232
 20
-3.741057
 30
0.0
 10
262.528973
 20
-4.152098
 30
0.0
 10
262.623084
 20
-4.625228
 30
0.0
 10
262.937682
 20
-4.939826
 30
0.0
  0
SPLINE
  5
110
100
AcDbEntity
  8
0
 62
7
100
AcDbSpline
 70
8
 71
3
 72
8
 73
4
 74
0
 40
0
 40
0
 40
0
 40
0
 40
1
 40
1
 40
1
 40
1
 10
262.937682
 20
-4.939826
 30
0.0
 10
263.252280
 20
-5.254424
 30
0.0
 10
263.725410
 20
-5.348535
 30
0.0
 10
264.136452
 20
-5.178276
 30
0.0
  0
SPLINE
  5
111
100
AcDbEntity
  8
0
 62
7
100
AcDbSpline
 70
8
 71
3
 72
8
 73
4
 74
0
 40
0
 40
0
 40
0
 40
0
 40
1
 40
1
 40
1
 40
1
 10
264.136452
 20
-5.178276
 30
0.0
 10
264.547494
 20
-5.008017
 30
0.0
 10
264.815500
 20
-4.606917
 30
0.0
 10
264.815500
 20
-4.162008
 30
0.0
  0
SPLINE
  5
112
100
AcDbEntity
  8
0
 62
7
100
AcDbSpline
 70
8
 71
3
 72
8
 73
4
 74
0
 40
0
 40
0
 40
0
 40
0
 40
1
 40
1
 40
1
 40
1
 10
264.815500
 20
-4.162008
 30
0.0
 10
264.815500
 20
-3.870270
 30
0.0
 10
264.699608
 20
-3.590481
 30
0.0
 10
264.493318
 20
-3.384191
 30
0.0
  0
SPLINE
  5
113
100
AcDbEntity
  8
0
 62
7
100
AcDbSpline
 70
8
 71
3
 72
8
 73
4
 74
0
 40
0
 40
0
 40
0
 40
0
 40
1
 40
1
 40
1
 40
1
 10
264.493318
 20
-3.384191
 30
0.0
 10
264.287028
 20
-3.177901
 30
0.0
 10
264.007238
 20
-3.062008
 30
0.0
 10
263.715500
 20
-3.062008
 30
0.0
  0
LWPOLYLINE
  5
114
100
AcDbEntity
  8
0
 62
7
100
AcDbPolyline
 90
1
 70
1
 10
62.997080
 20
-13.040858
 30
0.0
  0
SPLINE
  5
115
100
AcDbEntity
  8
0
 62
7
100
AcDbSpline
 70
8
 71
3
 72
8
 73
4
 74
0
 40
0
 40
0
 40
0
 40
0
 40
1
 40
1
 40
1
 40
1
 10
73.497186
 20
-13.040858
 30
0.0
 10
72.435477
 20
-13.040858
 30
0.0
 10
71.478311
 20
-13.680416
 30
0.0
 10
71.072013
 20
-14.661307
 30
0.0
  0
SPLINE
  5
116
100
AcDbEntity
  8
0
 62
7
100
AcDbSpline
 70
8
 71
3
 72
8
 73
4
 74
0
 40
0
 40
0
 40
0
 40
0
 40
1
 40
1
 40
1
 40
1
 10
71.072013
 20
-14.661307
 30
0.0
 10
70.665715
 20
-15.642198
 30
0.0
 10
70.890297
 20
-16.771252
 30
0.0
 10
71.641039
 20
-17.521993
 30
0.0
  0
SPLINE
  5
117
100
AcDbEntity
  8
0
 62
7
100
AcDbSpline
 70
8
 71
3
 72
8
 73
4
 74
0
 40
0
 40
0
 40
0
 40
0
 40
1
 40
1
 40
1
 40
1
 10
71.641039
 20
-17.521993
 30
0.0
 10
72.391780
 20
-18.272735
 30
0.0
 10
73.520835
 20
-18.497318
 30
0.0
 10
74.501726
 20
-18.091019
 30
0.0
  0
SPLINE
  5
118
100
AcDbEntity
  8
0
 62
7
100
AcDbSpline
 70
8
 71
3
 72
8
 73
4
 74
0
 40
0
 40
0
 40
0
 40
0
 40
1
 40
1
 40
1
 40
1
 10
74.501726
 20
-18.091019
 30
0.0
 10
75.482617
 20
-17.684721
 30
0.0
 10
76.122174
 20
-16.727555
 30
0.0
 10
76.122174
 20
-15.665846
 30
0.0
  0
SPLINE
  5
119
100
AcDbEntity
  8
0
 62
7
100
AcDbSpline
 70
8
 71
3
 72
8
 73
4
 74
0
 40
0
 40
0
 40
0
 40
0
 40
1
 40
1
 40
1
 40
1
 10
76.122174
 20
-15.665846
 30
0.0
 10
76.122174
 20
-14.969656
 30
0.0
 10
75.845614
 20
-14.301980
 30
0.0
 10
75.353333
 20
-13.809699
 30
0.0
  0
SPLINE
  5
11a
100
AcDbEntity
  8
0
 62
7
100
AcDbSpline
 70
8
 71
3
 72
8
 73
4
 74
0
 40
0
 40
0
 40
0
 40
0
 40
1
 40
1
 40
1
 40
1
 10
75.353333
 20
-13.809699
 30
0.0
 10
74.861052
 20
-13.317418
 30
0.0
 10
74.193376
 20
-13.040858
 30
0.0
 10
73.497186
 20
-13.040858
 30
0.0
  0
LWPOLYLINE
  5
11b
100
AcDbEntity
  8
0
 62
7
100
AcDbPolyline
 90
1
 70
1
 10
263.715500
 20
-3.062008
 30
0.0
  0
SPLINE
  5
11c
100
AcDbEntity
  8
0
 62
7
100
AcDbSpline
 70
8
 71
3
 72
8
 73
4
 74
0
 40
0
 40
0
 40
0
 40
0
 40
1
 40
1
 40
1
 40
1
 10
2.500201
 20
-3.062008
 30
0.0
 10
2.055292
 20
-3.062008
 30
0.0
 10
1.654192
 20
-3.330015
 30
0.0
 10
1.483933
 20
-3.741057
 30
0.0
  0
SPLINE
  5
11d
100
AcDbEntity
  8
0
 62
7
100
AcDbSpline
 70
8
 71
3
 72
8
 73
4
 74
0
 40
0
 40
0
 40
0
 40
0
 40
1
 40
1
 40
1
 40
1
 10
1.483933
 20
-3.741057
 30
0.0
 10
1.313674
 20
-4.152098
 30
0.0
 10
1.407785
 20
-4.625228
 30
0.0
 10
1.722383
 20
-4.939826
 30
0.0
  0
SPLINE
  5
11e
100
AcDbEntity
  8
0
 62
7
100
AcDbSpline
 70
8
 71
3
 72
8
 73
4
 74
0
 40
0
 40
0
 40
0
 40
0
 40
1
 40
1
 40
1
 40
1
 10
1.722383
 20
-4.939826
 30
0.0
 10
2.036981
 20
-5.254424
 30
0.0
 10
2.510111
 20
-5.348535
 30
0.0
 10
2.921153
 20
-5.178276
 30
0.0
  0
SPLINE
  5
11f
100
AcDbEntity
  8
0
 62
7
100
AcDbSpline
 70
8
 71
3
 72
8
 73
4
 74
0
 40
0
 40
0
 40
0
 40
0
 40
1
 40
1
 40
1
 40
1
 10
2.921153
 20
-5.178276
 30
0.0
 10
3.332195
 20
-5.008017
 30
0.0
 10
3.600201
 20
-4.606917
 30
0.0
 10
3.600201
 20
-4.162008
 30
0.0
  0
SPLINE
  5
120
100
AcDbEntity
  8
0
 62
7
100
AcDbSpline
 70
8
 71
3
 72
8
 73
4
 74
0
 40
0
 40
0
 40
0
 40
0
 40
1
 40
1
 40
1
 40
1
 10
3.600201
 20
-4.162008
 30
0.0
 10
3.600201
 20
-3.870270
 30
0.0
 10
3.484309
 20
-3.590481
 30
0.0
 10
3.278018
 20
-3.384191
 30
0.0
  0
SPLINE
  5
121
100
AcDbEntity
  8
0
 62
7
100
AcDbSpline
 70
8
 71
3
 72
8
 73
4
 74
0
 40
0
 40
0
 40
0
 40
0
 40
1
 40
1
 40
1
 40
1
 10
3.278018
 20
-3.384191
 30
0.0
 10
3.071728
 20
-3.177901
 30
0.0
 10
2.791939
 20
-3.062008
 30
0.0
 10
2.500201
 20
-3.062008
 30
0.0
  0
LWPOLYLINE
  5
122
100
AcDbEntity
  8
0
 62
7
100
AcDbPolyline
 90
1
 70
1
 10
73.497186
 20
-13.040858
 30
0.0
  0
LWPOLYLINE
  5
123
100
AcDbEntity
  8
0
 62
7
100
AcDbPolyline
 90
1
 70
1
 10
2.500201
 20
-3.062008
 30
0.0
  0
SPLINE
  5
124
100
AcDbEntity
  8
0
 62
7
100
AcDbSpline
 70
8
 71
3
 72
8
 73
4
 74
0
 40
0
 40
0
 40
0
 40
0
 40
1
 40
1
 40
1
 40
1
 10
21.340166
 20
-11.836847
 30
0.0
 10
21.340166
 20
-10.908591
 30
0.0
 10
20.971417
 20
-10.018354
 30
0.0
 10
20.315041
 20
-9.361978
 30
0.0
  0
SPLINE
  5
125
100
AcDbEntity
  8
0
 62
7
100
AcDbSpline
 70
8
 71
3
 72
8
 73
4
 74
0
 40
0
 40
0
 40
0
 40
0
 40
1
 40
1
 40
1
 40
1
 10
20.315041
 20
-9.361978
 30
0.0
 10
19.658665
 20
-8.705602
 30
0.0
 10
18.768428
 20
-8.336854
 30
0.0
 10
17.840173
 20
-8.336854
 30
0.0
  0
LWPOLYLINE
  5
126
100
AcDbEntity
  8
0
 62
7
100
AcDbPolyline
 90
2
 70
0
 10
21.338540
 20
-11.835628
 30
0.0
 10
21.338540
 20
-19.534368
 30
0.0
  0
SPLINE
  5
127
100
AcDbEntity
  8
0
 62
7
100
AcDbSpline
 70
8
 71
3
 72
8
 73
4
 74
0
 40
0
 40
0
 40
0
 40
0
 40
1
 40
1
 40
1
 40
1
 10
10.340162
 20
-8.336854
 30
0.0
 10
9.411906
 20
-8.336854
 30
0.0
 10
8.521669
 20
-8.705602
 30
0.0
 10
7.865293
 20
-9.361978
 30
0.0
  0
SPLINE
  5
128
100
AcDbEntity
  8
0
 62
7
100
AcDbSpline
 70
8
 71
3
 72
8
 73
4
 74
0
 40
0
 40
0
 40
0
 40
0
 40
1
 40
1
 40
1
 40
1
 10
7.865293
 20
-9.361978
 30
0.0
 10
7.208917
 20
-10.018354
 30
0.0
 10
6.840169
 20
-10.908591
 30
0.0
 10
6.840169
 20
-11.836847
 30
0.0
  0
LWPOLYLINE
  5
129
100
AcDbEntity
  8
0
 62
7
100
AcDbPolyline
 90
2
 70
0
 10
10.337800
 20
-8.335508
 30
0.0
 10
17.838420
 20
-8.335508
 30
0.0
  0
SPLINE
  5
12a
100
AcDbEntity
  8
0
 62
7
100
AcDbSpline
 70
8
 71
3
 72
8
 73
4
 74
0
 40
0
 40
0
 40
0
 40
0
 40
1
 40
1
 40
1
 40
1
 10
6.840169
 20
-19.536857
 30
0.0
 10
6.840169
 20
-20.465113
 30
0.0
 10
7.208917
 20
-21.355350
 30
0.0
 10
7.865293
 20
-22.011726
 30
0.0
  0
SPLINE
  5
12b
100
AcDbEntity
  8
0
 62
7
100
AcDbSpline
 70
8
 71
3
 72
8
 73
4
 74
0
 40
0
 40
0
 40
0
 40
0
 40
1
 40
1
 40
1
 40
1
 10
7.865293
 20
-22.011726
 30
0.0
 10
8.521669
 20
-22.668102
 30
0.0
 10
9.411906
 20
-23.036850
 30
0.0
 10
10.340162
 20
-23.036850
 30
0.0
  0
LWPOLYLINE
  5
12c
100
AcDbEntity
  8
0
 62
7
100
AcDbPolyline
 90
2
 70
0
 10
6.837680
 20
-19.534368
 30
0.0
 10
6.837680
 20
-11.835628
 30
0.0
  0
SPLINE
  5
12d
100
AcDbEntity
  8
0
 62
7
100
AcDbSpline
 70
8
 71
3
 72
8
 73
4
 74
0
 40
0
 40
0
 40
0
 40
0
 40
1
 40
1
 40
1
 40
1
 10
17.840173
 20
-23.036850
 30
0.0
 10
18.768428
 20
-23.036850
 30
0.0
 10
19.658665
 20
-22.668102
 30
0.0
 10
20.315041
 20
-22.011726
 30
0.0
  0
SPLINE
  5
12e
100
AcDbEntity
  8
0
 62
7
100
AcDbSpline
 70
8
 71
3
 72
8
 73
4
 74
0
 40
0
 40
0
 40
0
 40
0
 40
1
 40
1
 40
1
 40
1
 10
20.315041
 20
-22.011726
 30
0.0
 10
20.971417
 20
-21.355350
 30
0.0
 10
21.340166
 20
-20.465113
 30
0.0
 10
21.340166
 20
-19.536857
 30
0.0
  0
SPLINE
  5
12f
100
AcDbEntity
  8
0
 62
7
100
AcDbSpline
 70
8
 71
3
 72
8
 73
4
 74
0
 40
0
 40
0
 40
0
 40
0
 40
1
 40
1
 40
1
 40
1
 10
263.715500
 20
-27.611895
 30
0.0
 10
263.270591
 20
-27.611896
 30
0.0
 10
262.869491
 20
-27.879902
 30
0.0
 10
262.699232
 20
-28.290944
 30
0.0
  0
SPLINE
  5
130
100
AcDbEntity
  8
0
 62
7
100
AcDbSpline
 70
8
 71
3
 72
8
 73
4
 74
0
 40
0
 40
0
 40
0
 40
0
 40
1
 40
1
 40
1
 40
1
 10
262.699232
 20
-28.290944
 30
0.0
 10
262.528973
 20
-28.701986
 30
0.0
 10
262.623084
 20
-29.175116
 30
0.0
 10
262.937682
 20
-29.489714
 30
0.0
  0
SPLINE
  5
131
100
AcDbEntity
  8
0
 62
7
100
AcDbSpline
 70
8
 71
3
 72
8
 73
4
 74
0
 40
0
 40
0
 40
0
 40
0
 40
1
 40
1
 40
1
 40
1
 10
262.937682
 20
-29.489714
 30
0.0
 10
263.252280
 20
-29.804311
 30
0.0
 10
263.725410
 20
-29.898423
 30
0.0
 10
264.136452
 20
-29.728164
 30
0.0
  0
SPLINE
  5
132
100
AcDbEntity
  8
0
 62
7
100
AcDbSpline
 70
8
 71
3
 72
8
 73
4
 74
0
 40
0
 40
0
 40
0
 40
0
 40
1
 40
1
 40
1
 40
1
 10
264.136452
 20
-29.728164
 30
0.0
 10
264.547494
 20
-29.557904
 30
0.0
 10
264.815500
 20
-29.156804
 30
0.0
 10
264.815500
 20
-28.711896
 30
0.0
  0
SPLINE
  5
133
100
AcDbEntity
  8
0
 62
7
100
AcDbSpline
 70
8
 71
3
 72
8
 73
4
 74
0
 40
0
 40
0
 40
0
 40
0
 40
1
 40
1
 40
1
 40
1
 10
264.815500
 20
-28.711896
 30
0.0
 10
264.815500
 20
-28.420158
 30
0.0
 10
264.699608
 20
-28.140368
 30
0.0
 10
264.493318
 20
-27.934078
 30
0.0
  0
SPLINE
  5
134
100
AcDbEntity
  8
0
 62
7
100
AcDbSpline
 70
8
 71
3
 72
8
 73
4
 74
0
 40
0
 40
0
 40
0
 40
0
 40
1
 40
1
 40
1
 40
1
 10
264.493318
 20
-27.934078
 30
0.0
 10
264.287028
 20
-27.727788
 30
0.0
 10
264.007238
 20
-27.611895
 30
0.0
 10
263.715500
 20
-27.611896
 30
0.0
  0
LWPOLYLINE
  5
135
100
AcDbEntity
  8
0
 62
7
100
AcDbPolyline
 90
2
 70
0
 10
17.838420
 20
-23.034488
 30
0.0
 10
10.337800
 20
-23.034488
 30
0.0
  0
SPLINE
  5
136
100
AcDbEntity
  8
0
 62
7
100
AcDbSpline
 70
8
 71
3
 72
8
 73
4
 74
0
 40
0
 40
0
 40
0
 40
0
 40
1
 40
1
 40
1
 40
1
 10
99.965256
 20
-14.686851
 30
0.0
 10
99.560794
 20
-14.686851
 30
0.0
 10
99.196157
 20
-14.930494
 30
0.0
 10
99.041376
 20
-15.304168
 30
0.0
  0
SPLINE
  5
137
100
AcDbEntity
  8
0
 62
7
100
AcDbSpline
 70
8
 71
3
 72
8
 73
4
 74
0
 40
0
 40
0
 40
0
 40
0
 40
1
 40
1
 40
1
 40
1
 10
99.041376
 20
-15.304168
 30
0.0
 10
98.886595
 20
-15.677843
 30
0.0
 10
98.972151
 20
-16.107961
 30
0.0
 10
99.258149
 20
-16.393959
 30
0.0
  0
SPLINE
  5
138
100
AcDbEntity
  8
0
 62
7
100
AcDbSpline
 70
8
 71
3
 72
8
 73
4
 74
0
 40
0
 40
0
 40
0
 40
0
 40
1
 40
1
 40
1
 40
1
 10
99.258149
 20
-16.393959
 30
0.0
 10
99.544147
 20
-16.679957
 30
0.0
 10
99.974265
 20
-16.765513
 30
0.0
 10
100.347940
 20
-16.610732
 30
0.0
  0
SPLINE
  5
139
100
AcDbEntity
  8
0
 62
7
100
AcDbSpline
 70
8
 71
3
 72
8
 73
4
 74
0
 40
0
 40
0
 40
0
 40
0
 40
1
 40
1
 40
1
 40
1
 10
100.347940
 20
-16.610732
 30
0.0
 10
100.721614
 20
-16.455951
 30
0.0
 10
100.965257
 20
-16.091315
 30
0.0
 10
100.965257
 20
-15.686852
 30
0.0
  0
SPLINE
  5
13a
100
AcDbEntity
  8
0
 62
7
100
AcDbSpline
 70
8
 71
3
 72
8
 73
4
 74
0
 40
0
 40
0
 40
0
 40
0
 40
1
 40
1
 40
1
 40
1
 10
100.965257
 20
-15.686852
 30
0.0
 10
100.965257
 20
-15.421635
 30
0.0
 10
100.859900
 20
-15.167281
 30
0.0
 10
100.672363
 20
-14.979745
 30
0.0
  0
SPLINE
  5
13b
100
AcDbEntity
  8
0
 62
7
100
AcDbSpline
 70
8
 71
3
 72
8
 73
4
 74
0
 40
0
 40
0
 40
0
 40
0
 40
1
 40
1
 40
1
 40
1
 10
100.672363
 20
-14.979745
 30
0.0
 10
100.484827
 20
-14.792208
 30
0.0
 10
100.230473
 20
-14.686851
 30
0.0
 10
99.965256
 20
-14.686851
 30
0.0
  0
LWPOLYLINE
  5
13c
100
AcDbEntity
  8
0
 62
7
100
AcDbPolyline
 90
1
 70
1
 10
263.715500
 20
-27.611896
 30
0.0
  0
SPLINE
  5
13d
100
AcDbEntity
  8
0
 62
7
100
AcDbSpline
 70
8
 71
3
 72
8
 73
4
 74
0
 40
0
 40
0
 40
0
 40
0
 40
1
 40
1
 40
1
 40
1
 10
195.215256
 20
-14.686851
 30
0.0
 10
194.662971
 20
-14.686852
 30
0.0
 10
194.215255
 20
-15.134567
 30
0.0
 10
194.215255
 20
-15.686852
 30
0.0
  0
SPLINE
  5
13e
100
AcDbEntity
  8
0
 62
7
100
AcDbSpline
 70
8
 71
3
 72
8
 73
4
 74
0
 40
0
 40
0
 40
0
 40
0
 40
1
 40
1
 40
1
 40
1
 10
194.215255
 20
-15.686852
 30
0.0
 10
194.215255
 20
-16.239137
 30
0.0
 10
194.662971
 20
-16.686853
 30
0.0
 10
195.215256
 20
-16.686853
 30
0.0
  0
SPLINE
  5
13f
100
AcDbEntity
  8
0
 62
7
100
AcDbSpline
 70
8
 71
3
 72
8
 73
4
 74
0
 40
0
 40
0
 40
0
 40
0
 40
1
 40
1
 40
1
 40
1
 10
195.215256
 20
-16.686853
 30
0.0
 10
195.767541
 20
-16.686853
 30
0.0
 10
196.215257
 20
-16.239137
 30
0.0
 10
196.215257
 20
-15.686852
 30
0.0
  0
SPLINE
  5
140
100
AcDbEntity
  8
0
 62
7
100
AcDbSpline
 70
8
 71
3
 72
8
 73
4
 74
0
 40
0
 40
0
 40
0
 40
0
 40
1
 40
1
 40
1
 40
1
 10
196.215257
 20
-15.686852
 30
0.0
 10
196.215257
 20
-15.421635
 30
0.0
 10
196.109900
 20
-15.167281
 30
0.0
 10
195.922363
 20
-14.979745
 30
0.0
  0
SPLINE
  5
141
100
AcDbEntity
  8
0
 62
7
100
AcDbSpline
 70
8
 71
3
 72
8
 73
4
 74
0
 40
0
 40
0
 40
0
 40
0
 40
1
 40
1
 40
1
 40
1
 10
195.922363
 20
-14.979745
 30
0.0
 10
195.734827
 20
-14.792208
 30
0.0
 10
195.480473
 20
-14.686851
 30
0.0
 10
195.215256
 20
-14.686851
 30
0.0
  0
LWPOLYLINE
  5
142
100
AcDbEntity
  8
0
 62
7
100
AcDbPolyline
 90
1
 70
1
 10
99.965256
 20
-14.686851
 30
0.0
  0
SPLINE
  5
143
100
AcDbEntity
  8
0
 62
7
100
AcDbSpline
 70
8
 71
3
 72
8
 73
4
 74
0
 40
0
 40
0
 40
0
 40
0
 40
1
 40
1
 40
1
 40
1
 10
2.500201
 20
-27.611895
 30
0.0
 10
2.055292
 20
-27.611896
 30
0.0
 10
1.654192
 20
-27.879902
 30
0.0
 10
1.483933
 20
-28.290944
 30
0.0
  0
SPLINE
  5
144
100
AcDbEntity
  8
0
 62
7
100
AcDbSpline
 70
8
 71
3
 72
8
 73
4
 74
0
 40
0
 40
0
 40
0
 40
0
 40
1
 40
1
 40
1
 40
1
 10
1.483933
 20
-28.290944
 30
0.0
 10
1.313674
 20
-28.701986
 30
0.0
 10
1.407785
 20
-29.175116
 30
0.0
 10
1.722383
 20
-29.489714
 30
0.0
  0
SPLINE
  5
145
100
AcDbEntity
  8
0
 62
7
100
AcDbSpline
 70
8
 71
3
 72
8
 73
4
 74
0
 40
0
 40
0
 40
0
 40
0
 40
1
 40
1
 40
1
 40
1
 10
1.722383
 20
-29.489714
 30
0.0
 10
2.036981
 20
-29.804311
 30
0.0
 10
2.510111
 20
-29.898423
 30
0.0
 10
2.921153
 20
-29.728164
 30
0.0
  0
SPLINE
  5
146
100
AcDbEntity
  8
0
 62
7
100
AcDbSpline
 70
8
 71
3
 72
8
 73
4
 74
0
 40
0
 40
0
 40
0
 40
0
 40
1
 40
1
 40
1
 40
1
 10
2.921153
 20
-29.728164
 30
0.0
 10
3.332195
 20
-29.557904
 30
0.0
 10
3.600201
 20
-29.156804
 30
0.0
 10
3.600201
 20
-28.711896
 30
0.0
  0
SPLINE
  5
147
100
AcDbEntity
  8
0
 62
7
100
AcDbSpline
 70
8
 71
3
 72
8
 73
4
 74
0
 40
0
 40
0
 40
0
 40
0
 40
1
 40
1
 40
1
 40
1
 10
3.600201
 20
-28.711896
 30
0.0
 10
3.600201
 20
-28.420158
 30
0.0
 10
3.484309
 20
-28.140368
 30
0.0
 10
3.278018
 20
-27.934078
 30
0.0
  0
SPLINE
  5
148
100
AcDbEntity
  8
0
 62
7
100
AcDbSpline
 70
8
 71
3
 72
8
 73
4
 74
0
 40
0
 40
0
 40
0
 40
0
 40
1
 40
1
 40
1
 40
1
 10
3.278018
 20
-27.934078
 30
0.0
 10
3.071728
 20
-27.727788
 30
0.0
 10
2.791939
 20
-27.611896
 30
0.0
 10
2.500201
 20
-27.611896
 30
0.0
  0
LWPOLYLINE
  5
149
100
AcDbEntity
  8
0
 62
7
100
AcDbPolyline
 90
1
 70
1
 10
195.215256
 20
-14.686851
 30
0.0
  0
SPLINE
  5
14a
100
AcDbEntity
  8
0
 62
7
100
AcDbSpline
 70
8
 71
3
 72
8
 73
4
 74
0
 40
0
 40
0
 40
0
 40
0
 40
1
 40
1
 40
1
 40
1
 10
170.277282
 20
-14.796633
 30
0.0
 10
170.277289
 20
-13.470549
 30
0.0
 10
169.750509
 20
-12.198775
 30
0.0
 10
168.812828
 20
-11.261090
 30
0.0
  0
SPLINE
  5
14b
100
AcDbEntity
  8
0
 62
7
100
AcDbSpline
 70
8
 71
3
 72
8
 73
4
 74
0
 40
0
 40
0
 40
0
 40
0
 40
1
 40
1
 40
1
 40
1
 10
168.812828
 20
-11.261090
 30
0.0
 10
167.875147
 20
-10.323404
 30
0.0
 10
166.603376
 20
-9.796617
 30
0.0
 10
165.277292
 20
-9.796617
 30
0.0
  0
LWPOLYLINE
  5
14c
100
AcDbEntity
  8
0
 62
7
100
AcDbPolyline
 90
1
 70
1
 10
2.500201
 20
-27.611896
 30
0.0
  0
SPLINE
  5
14d
100
AcDbEntity
  8
0
 62
7
100
AcDbSpline
 70
8
 71
3
 72
8
 73
4
 74
0
 40
0
 40
0
 40
0
 40
0
 40
1
 40
1
 40
1
 40
1
 10
165.277292
 20
-26.351474
 30
0.0
 10
166.603394
 20
-26.351474
 30
0.0
 10
167.875180
 20
-25.824673
 30
0.0
 10
168.812864
 20
-24.886966
 30
0.0
  0
SPLINE
  5
14e
100
AcDbEntity
  8
0
 62
7
100
AcDbSpline
 70
8
 71
3
 72
8
 73
4
 74
0
 40
0
 40
0
 40
0
 40
0
 40
1
 40
1
 40
1
 40
1
 10
168.812864
 20
-24.886966
 30
0.0
 10
169.750547
 20
-23.949258
 30
0.0
 10
170.277316
 20
-22.677459
 30
0.0
 10
170.277282
 20
-21.351357
 30
0.0
  0
LWPOLYLINE
  5
14f
100
AcDbEntity
  8
0
 62
7
100
AcDbPolyline
 90
2
 70
0
 10
170.276520
 20
-21.350468
 30
0.0
 10
170.276520
 20
-14.794728
 30
0.0
  0
SPLINE
  5
150
100
AcDbEntity
  8
0
 62
7
100
AcDbSpline
 70
8
 71
3
 72
8
 73
4
 74
0
 40
0
 40
0
 40
0
 40
0
 40
1
 40
1
 40
1
 40
1
 10
145.994374
 20
-21.351357
 30
0.0
 10
145.994340
 20
-22.677459
 30
0.0
 10
146.521109
 20
-23.949258
 30
0.0
 10
147.458792
 20
-24.886966
 30
0.0
  0
SPLINE
  5
151
100
AcDbEntity
  8
0
 62
7
100
AcDbSpline
 70
8
 71
3
 72
8
 73
4
 74
0
 40
0
 40
0
 40
0
 40
0
 40
1
 40
1
 40
1
 40
1
 10
147.458792
 20
-24.886966
 30
0.0
 10
148.396476
 20
-25.824673
 30
0.0
 10
149.668262
 20
-26.351474
 30
0.0
 10
150.994364
 20
-26.351474
 30
0.0
  0
LWPOLYLINE
  5
152
100
AcDbEntity
  8
0
 62
7
100
AcDbPolyline
 90
2
 70
0
 10
150.992840
 20
-26.349188
 30
0.0
 10
165.275260
 20
-26.349188
 30
0.0
  0
SPLINE
  5
153
100
AcDbEntity
  8
0
 62
7
100
AcDbSpline
 70
8
 71
3
 72
8
 73
4
 74
0
 40
0
 40
0
 40
0
 40
0
 40
1
 40
1
 40
1
 40
1
 10
150.994364
 20
-9.796617
 30
0.0
 10
149.668280
 20
-9.796617
 30
0.0
 10
148.396509
 20
-10.323404
 30
0.0
 10
147.458828
 20
-11.261090
 30
0.0
  0
SPLINE
  5
154
100
AcDbEntity
  8
0
 62
7
100
AcDbSpline
 70
8
 71
3
 72
8
 73
4
 74
0
 40
0
 40
0
 40
0
 40
0
 40
1
 40
1
 40
1
 40
1
 10
147.458828
 20
-11.261090
 30
0.0
 10
146.521147
 20
-12.198775
 30
0.0
 10
145.994367
 20
-13.470549
 30
0.0
 10
145.994374
 20
-14.796633
 30
0.0
  0
LWPOLYLINE
  5
155
100
AcDbEntity
  8
0
 62
7
100
AcDbPolyline
 90
2
 70
0
 10
145.994120
 20
-14.794728
 30
0.0
 10
145.994120
 20
-21.350468
 30
0.0
  0
LWPOLYLINE
  5
156
100
AcDbEntity
  8
0
 62
7
100
AcDbPolyline
 90
2
 70
0
 10
165.275260
 20
-9.796008
 30
0.0
 10
150.992840
 20
-9.796008
 30
0.0
  0
LWPOLYLINE
  5
157
100
AcDbEntity
  8
0
 62
7
100
AcDbPolyline
 90
2
 70
0
 10
239.664240
 20
-8.686028
 30
0.0
 10
226.664520
 20
-8.686028
 30
0.0
  0
LWPOLYLINE
  5
158
100
AcDbEntity
  8
0
 62
7
100
AcDbPolyline
 90
2
 70
0
 10
226.164140
 20
-9.186408
 30
0.0
 10
226.164140
 20
-22.186128
 30
0.0
  0
LWPOLYLINE
  5
159
100
AcDbEntity
  8
0
 62
7
100
AcDbPolyline
 90
2
 70
0
 10
226.664520
 20
-22.686508
 30
0.0
 10
239.664240
 20
-22.686508
 30
0.0
  0
SPLINE
  5
15a
100
AcDbEntity
  8
0
 62
7
100
AcDbSpline
 70
8
 71
3
 72
8
 73
4
 74
0
 40
0
 40
0
 40
0
 40
0
 40
1
 40
1
 40
1
 40
1
 10
240.165128
 20
-9.186840
 30
0.0
 10
240.165128
 20
-8.910747
 30
0.0
 10
239.941348
 20
-8.686911
 30
0.0
 10
239.665256
 20
-8.686841
 30
0.0
  0
SPLINE
  5
15b
100
AcDbEntity
  8
0
 62
7
100
AcDbSpline
 70
8
 71
3
 72
8
 73
4
 74
0
 40
0
 40
0
 40
0
 40
0
 40
1
 40
1
 40
1
 40
1
 10
226.665282
 20
-8.686841
 30
0.0
 10
226.532652
 20
-8.686807
 30
0.0
 10
226.405443
 20
-8.739470
 30
0.0
 10
226.311647
 20
-8.833242
 30
0.0
  0
SPLINE
  5
15c
100
AcDbEntity
  8
0
 62
7
100
AcDbSpline
 70
8
 71
3
 72
8
 73
4
 74
0
 40
0
 40
0
 40
0
 40
0
 40
1
 40
1
 40
1
 40
1
 10
226.311647
 20
-8.833242
 30
0.0
 10
226.217852
 20
-8.927014
 30
0.0
 10
226.165156
 20
-9.054210
 30
0.0
 10
226.165156
 20
-9.186840
 30
0.0
  0
SPLINE
  5
15d
100
AcDbEntity
  8
0
 62
7
100
AcDbSpline
 70
8
 71
3
 72
8
 73
4
 74
0
 40
0
 40
0
 40
0
 40
0
 40
1
 40
1
 40
1
 40
1
 10
226.165156
 20
-22.186839
 30
0.0
 10
226.165156
 20
-22.319469
 30
0.0
 10
226.217852
 20
-22.446665
 30
0.0
 10
226.311647
 20
-22.540437
 30
0.0
  0
SPLINE
  5
15e
100
AcDbEntity
  8
0
 62
7
100
AcDbSpline
 70
8
 71
3
 72
8
 73
4
 74
0
 40
0
 40
0
 40
0
 40
0
 40
1
 40
1
 40
1
 40
1
 10
226.311647
 20
-22.540437
 30
0.0
 10
226.405443
 20
-22.634208
 30
0.0
 10
226.532652
 20
-22.686872
 30
0.0
 10
226.665282
 20
-22.686838
 30
0.0
  0
SPLINE
  5
15f
100
AcDbEntity
  8
0
 62
7
100
AcDbSpline
 70
8
 71
3
 72
8
 73
4
 74
0
 40
0
 40
0
 40
0
 40
0
 40
1
 40
1
 40
1
 40
1
 10
239.665256
 20
-22.686838
 30
0.0
 10
239.941348
 20
-22.686768
 30
0.0
 10
240.165128
 20
-22.462931
 30
0.0
 10
240.165128
 20
-22.186839
 30
0.0
  0
LWPOLYLINE
  5
160
100
AcDbEntity
  8
0
 62
7
100
AcDbPolyline
 90
2
 70
0
 10
240.164620
 20
-22.186128
 30
0.0
 10
240.164620
 20
-9.186408
 30
0.0
  0
LWPOLYLINE
  5
161
100
AcDbEntity
  8
0
 62
7
100
AcDbPolyline
 90
2
 70
0
 10
258.714240
 20
-8.686028
 30
0.0
 10
245.714520
 20
-8.686028
 30
0.0
  0
LWPOLYLINE
  5
162
100
AcDbEntity
  8
0
 62
7
100
AcDbPolyline
 90
2
 70
0
 10
245.214140
 20
-9.186408
 30
0.0
 10
245.214140
 20
-22.186128
 30
0.0
  0
LWPOLYLINE
  5
163
100
AcDbEntity
  8
0
 62
7
100
AcDbPolyline
 90
2
 70
0
 10
245.714520
 20
-22.686508
 30
0.0
 10
258.714240
 20
-22.686508
 30
0.0
  0
SPLINE
  5
164
100
AcDbEntity
  8
0
 62
7
100
AcDbSpline
 70
8
 71
3
 72
8
 73
4
 74
0
 40
0
 40
0
 40
0
 40
0
 40
1
 40
1
 40
1
 40
1
 10
259.214620
 20
-9.186840
 30
0.0
 10
259.214620
 20
-9.054166
 30
0.0
 10
259.161889
 20
-8.926931
 30
0.0
 10
259.068039
 20
-8.833152
 30
0.0
  0
SPLINE
  5
165
100
AcDbEntity
  8
0
 62
7
100
AcDbSpline
 70
8
 71
3
 72
8
 73
4
 74
0
 40
0
 40
0
 40
0
 40
0
 40
1
 40
1
 40
1
 40
1
 10
259.068039
 20
-8.833152
 30
0.0
 10
258.974189
 20
-8.739373
 30
0.0
 10
258.846914
 20
-8.686740
 30
0.0
 10
258.714240
 20
-8.686841
 30
0.0
  0
SPLINE
  5
166
100
AcDbEntity
  8
0
 62
7
100
AcDbSpline
 70
8
 71
3
 72
8
 73
4
 74
0
 40
0
 40
0
 40
0
 40
0
 40
1
 40
1
 40
1
 40
1
 10
245.715282
 20
-8.686841
 30
0.0
 10
245.582652
 20
-8.686807
 30
0.0
 10
245.455443
 20
-8.739470
 30
0.0
 10
245.361647
 20
-8.833242
 30
0.0
  0
SPLINE
  5
167
100
AcDbEntity
  8
0
 62
7
100
AcDbSpline
 70
8
 71
3
 72
8
 73
4
 74
0
 40
0
 40
0
 40
0
 40
0
 40
1
 40
1
 40
1
 40
1
 10
245.361647
 20
-8.833242
 30
0.0
 10
245.267852
 20
-8.927014
 30
0.0
 10
245.215156
 20
-9.054210
 30
0.0
 10
245.215156
 20
-9.186840
 30
0.0
  0
SPLINE
  5
168
100
AcDbEntity
  8
0
 62
7
100
AcDbSpline
 70
8
 71
3
 72
8
 73
4
 74
0
 40
0
 40
0
 40
0
 40
0
 40
1
 40
1
 40
1
 40
1
 10
245.215156
 20
-22.186839
 30
0.0
 10
245.215156
 20
-22.319469
 30
0.0
 10
245.267852
 20
-22.446665
 30
0.0
 10
245.361647
 20
-22.540437
 30
0.0
  0
SPLINE
  5
169
100
AcDbEntity
  8
0
 62
7
100
AcDbSpline
 70
8
 71
3
 72
8
 73
4
 74
0
 40
0
 40
0
 40
0
 40
0
 40
1
 40
1
 40
1
 40
1
 10
245.361647
 20
-22.540437
 30
0.0
 10
245.455443
 20
-22.634208
 30
0.0
 10
245.582652
 20
-22.686872
 30
0.0
 10
245.715282
 20
-22.686838
 30
0.0
  0
SPLINE
  5
16a
100
AcDbEntity
  8
0
 62
7
100
AcDbSpline
 70
8
 71
3
 72
8
 73
4
 74
0
 40
0
 40
0
 40
0
 40
0
 40
1
 40
1
 40
1
 40
1
 10
258.714240
 20
-22.686838
 30
0.0
 10
258.846914
 20
-22.686939
 30
0.0
 10
258.974189
 20
-22.634305
 30
0.0
 10
259.068039
 20
-22.540526
 30
0.0
  0
SPLINE
  5
16b
100
AcDbEntity
  8
0
 62
7
100
AcDbSpline
 70
8
 71
3
 72
8
 73
4
 74
0
 40
0
 40
0
 40
0
 40
0
 40
1
 40
1
 40
1
 40
1
 10
259.068039
 20
-22.540526
 30
0.0
 10
259.161889
 20
-22.446748
 30
0.0
 10
259.214620
 20
-22.319513
 30
0.0
 10
259.214620
 20
-22.186839
 30
0.0
  0
LWPOLYLINE
  5
16c
100
AcDbEntity
  8
0
 62
7
100
AcDbPolyline
 90
2
 70
0
 10
259.214620
 20
-22.186128
 30
0.0
 10
259.214620
 20
-9.186408
 30
0.0
  0
LWPOLYLINE
  5
16d
100
AcDbEntity
  8
0
 62
7
100
AcDbPolyline
 90
2
 70
0
 10
49.164240
 20
-8.686028
 30
0.0
 10
36.164520
 20
-8.686028
 30
0.0
  0
LWPOLYLINE
  5
16e
100
AcDbEntity
  8
0
 62
7
100
AcDbPolyline
 90
2
 70
0
 10
35.664140
 20
-9.186408
 30
0.0
 10
35.664140
 20
-22.186128
 30
0.0
  0
LWPOLYLINE
  5
16f
100
AcDbEntity
  8
0
 62
7
100
AcDbPolyline
 90
2
 70
0
 10
36.164520
 20
-22.686508
 30
0.0
 10
49.164240
 20
-22.686508
 30
0.0
  0
SPLINE
  5
170
100
AcDbEntity
  8
0
 62
7
100
AcDbSpline
 70
8
 71
3
 72
8
 73
4
 74
0
 40
0
 40
0
 40
0
 40
0
 40
1
 40
1
 40
1
 40
1
 10
49.665128
 20
-9.186840
 30
0.0
 10
49.665128
 20
-8.910747
 30
0.0
 10
49.441348
 20
-8.686911
 30
0.0
 10
49.165256
 20
-8.686841
 30
0.0
  0
SPLINE
  5
171
100
AcDbEntity
  8
0
 62
7
100
AcDbSpline
 70
8
 71
3
 72
8
 73
4
 74
0
 40
0
 40
0
 40
0
 40
0
 40
1
 40
1
 40
1
 40
1
 10
36.165282
 20
-8.686841
 30
0.0
 10
36.032652
 20
-8.686807
 30
0.0
 10
35.905443
 20
-8.739470
 30
0.0
 10
35.811647
 20
-8.833242
 30
0.0
  0
SPLINE
  5
172
100
AcDbEntity
  8
0
 62
7
100
AcDbSpline
 70
8
 71
3
 72
8
 73
4
 74
0
 40
0
 40
0
 40
0
 40
0
 40
1
 40
1
 40
1
 40
1
 10
35.811647
 20
-8.833242
 30
0.0
 10
35.717852
 20
-8.927014
 30
0.0
 10
35.665156
 20
-9.054210
 30
0.0
 10
35.665156
 20
-9.186840
 30
0.0
  0
SPLINE
  5
173
100
AcDbEntity
  8
0
 62
7
100
AcDbSpline
 70
8
 71
3
 72
8
 73
4
 74
0
 40
0
 40
0
 40
0
 40
0
 40
1
 40
1
 40
1
 40
1
 10
35.665156
 20
-22.186839
 30
0.0
 10
35.665156
 20
-22.319469
 30
0.0
 10
35.717852
 20
-22.446665
 30
0.0
 10
35.811647
 20
-22.540437
 30
0.0
  0
SPLINE
  5
174
100
AcDbEntity
  8
0
 62
7
100
AcDbSpline
 70
8
 71
3
 72
8
 73
4
 74
0
 40
0
 40
0
 40
0
 40
0
 40
1
 40
1
 40
1
 40
1
 10
35.811647
 20
-22.540437
 30
0.0
 10
35.905443
 20
-22.634208
 30
0.0
 10
36.032652
 20
-22.686872
 30
0.0
 10
36.165282
 20
-22.686838
 30
0.0
  0
SPLINE
  5
175
100
AcDbEntity
  8
0
 62
7
100
AcDbSpline
 70
8
 71
3
 72
8
 73
4
 74
0
 40
0
 40
0
 40
0
 40
0
 40
1
 40
1
 40
1
 40
1
 10
49.165256
 20
-22.686838
 30
0.0
 10
49.441348
 20
-22.686768
 30
0.0
 10
49.665128
 20
-22.462931
 30
0.0
 10
49.665128
 20
-22.186839
 30
0.0
  0
SPLINE
  5
176
100
AcDbEntity
  8
0
 62
7
100
AcDbSpline
 70
8
 71
3
 72
8
 73
4
 74
0
 40
0
 40
0
 40
0
 40
0
 40
1
 40
1
 40
1
 40
1
 10
220.615256
 20
-22.686838
 30
0.0
 10
220.891348
 20
-22.686768
 30
0.0
 10
221.115128
 20
-22.462931
 30
0.0
 10
221.115128
 20
-22.186839
 30
0.0
  0
SPLINE
  5
177
100
AcDbEntity
  8
0
 62
7
100
AcDbSpline
 70
8
 71
3
 72
8
 73
4
 74
0
 40
0
 40
0
 40
0
 40
0
 40
1
 40
1
 40
1
 40
1
 10
207.115156
 20
-22.186839
 30
0.0
 10
207.115156
 20
-22.319469
 30
0.0
 10
207.167852
 20
-22.446665
 30
0.0
 10
207.261647
 20
-22.540437
 30
0.0
  0
SPLINE
  5
178
100
AcDbEntity
  8
0
 62
7
100
AcDbSpline
 70
8
 71
3
 72
8
 73
4
 74
0
 40
0
 40
0
 40
0
 40
0
 40
1
 40
1
 40
1
 40
1
 10
207.261647
 20
-22.540437
 30
0.0
 10
207.355443
 20
-22.634208
 30
0.0
 10
207.482652
 20
-22.686872
 30
0.0
 10
207.615282
 20
-22.686838
 30
0.0
  0
SPLINE
  5
179
100
AcDbEntity
  8
0
 62
7
100
AcDbSpline
 70
8
 71
3
 72
8
 73
4
 74
0
 40
0
 40
0
 40
0
 40
0
 40
1
 40
1
 40
1
 40
1
 10
207.615282
 20
-8.686841
 30
0.0
 10
207.482652
 20
-8.686807
 30
0.0
 10
207.355443
 20
-8.739470
 30
0.0
 10
207.261647
 20
-8.833242
 30
0.0
  0
SPLINE
  5
17a
100
AcDbEntity
  8
0
 62
7
100
AcDbSpline
 70
8
 71
3
 72
8
 73
4
 74
0
 40
0
 40
0
 40
0
 40
0
 40
1
 40
1
 40
1
 40
1
 10
207.261647
 20
-8.833242
 30
0.0
 10
207.167852
 20
-8.927014
 30
0.0
 10
207.115156
 20
-9.054210
 30
0.0
 10
207.115156
 20
-9.186840
 30
0.0
  0
SPLINE
  5
17b
100
AcDbEntity
  8
0
 62
7
100
AcDbSpline
 70
8
 71
3
 72
8
 73
4
 74
0
 40
0
 40
0
 40
0
 40
0
 40
1
 40
1
 40
1
 40
1
 10
221.115128
 20
-9.186840
 30
0.0
 10
221.115128
 20
-8.910747
 30
0.0
 10
220.891348
 20
-8.686911
 30
0.0
 10
220.615256
 20
-8.686841
 30
0.0
  0
LWPOLYLINE
  5
17c
100
AcDbEntity
  8
0
 62
7
100
AcDbPolyline
 90
2
 70
0
 10
49.664620
 20
-22.186128
 30
0.0
 10
49.664620
 20
-9.186408
 30
0.0
  0
LWPOLYLINE
  5
17d
100
AcDbEntity
  8
0
 62
7
100
AcDbPolyline
 90
2
 70
0
 10
221.114620
 20
-22.186128
 30
0.0
 10
221.114620
 20
-9.186408
 30
0.0
  0
LWPOLYLINE
  5
17e
100
AcDbEntity
  8
0
 62
7
100
AcDbPolyline
 90
2
 70
0
 10
207.614520
 20
-22.686508
 30
0.0
 10
220.614240
 20
-22.686508
 30
0.0
  0
LWPOLYLINE
  5
17f
100
AcDbEntity
  8
0
 62
7
100
AcDbPolyline
 90
2
 70
0
 10
207.114140
 20
-9.186408
 30
0.0
 10
207.114140
 20
-22.186128
 30
0.0
  0
LWPOLYLINE
  5
180
100
AcDbEntity
  8
0
 62
7
100
AcDbPolyline
 90
2
 70
0
 10
220.614240
 20
-8.686028
 30
0.0
 10
207.614520
 20
-8.686028
 30
0.0
  0
ENDSEC
  0
SECTION
  2
OBJECTS
  0
DICTIONARY
  5
C
330
0
100
AcDbDictionary
  3
ACAD_GROUP
350
D
  3
ACAD_MLINESTYLE
350
17
  0
DICTIONARY
  5
D
330
C
100
AcDbDictionary
  0
DICTIONARY
  5
1A
330
C
100
AcDbDictionary
  0
DICTIONARY
  5
17
330
C
100
AcDbDictionary
  3
STANDARD
350
18
  0
DICTIONARY
  5
19
330
C
100
AcDbDictionary
  0
ENDSEC
  0
EOF
